<?plantuml 1.2026.2?><svg xmlns="http://www.w3.org/2000/svg" xmlns:xlink="http://www.w3.org/1999/xlink" contentStyleType="text/css" data-diagram-type="ACTIVITY" height="737px" preserveAspectRatio="none" style="width:331px;height:737px;background:#FFFFFF;" version="1.1" viewBox="0 0 331 737" width="331px" zoomAndPan="magnify"><title>&#20107;&#20214;&#26725;&#25509;&#32534;&#25490; - &#27963;&#21160;&#22270;</title><defs/><g><g class="title" data-source-line="1"><text fill="#000000" font-family="sans-serif" font-size="14" font-weight="bold" lengthAdjust="spacing" textLength="142.3789" x="93.1768" y="34.5332">&#20107;&#20214;&#26725;&#25509;&#32534;&#25490; - &#27963;&#21160;&#22270;</text></g><ellipse cx="153.3662" cy="58.6094" fill="#222222" rx="10" ry="10" style="stroke:#222222;stroke-width:1;"/><rect fill="#F1F1F1" height="35.0938" rx="12.5" ry="12.5" style="stroke:#181818;stroke-width:0.5;" width="203.4219" x="51.6553" y="88.6094"/><text fill="#000000" font-family="sans-serif" font-size="12" lengthAdjust="spacing" textLength="183.4219" x="61.6553" y="111.0664">&#25509;&#25910; order / trade / position / event</text><polygon fill="#F1F1F1" points="85.4917,143.7031,221.2407,143.7031,233.2407,155.7031,221.2407,167.7031,85.4917,167.7031,73.4917,155.7031,85.4917,143.7031" style="stroke:#181818;stroke-width:0.5;"/><text fill="#000000" font-family="sans-serif" font-size="11" lengthAdjust="spacing" textLength="135.749" x="85.4917" y="160.2041">position_aggregate &#19981;&#21487;&#29992;?</text><text fill="#000000" font-family="sans-serif" font-size="11" lengthAdjust="spacing" textLength="11" x="233.2407" y="153.2861">&#26159;</text><ellipse cx="266.2407" cy="155.7031" fill="none" rx="11" ry="11" style="stroke:#222222;stroke-width:1;"/><ellipse cx="266.2407" cy="155.7031" fill="#222222" rx="6" ry="6" style="stroke:#222222;stroke-width:1;"/><rect fill="#F1F1F1" height="35.0938" rx="12.5" ry="12.5" style="stroke:#181818;stroke-width:0.5;" width="140" x="83.3662" y="187.7031"/><text fill="#000000" font-family="sans-serif" font-size="12" lengthAdjust="spacing" textLength="120" x="93.3662" y="210.1602">&#25226;&#22806;&#37096;&#23545;&#35937;&#36716;&#25442;&#25104;&#23383;&#20856;</text><rect fill="#F1F1F1" height="35.0938" rx="12.5" ry="12.5" style="stroke:#181818;stroke-width:0.5;" width="149.416" x="78.6582" y="242.7969"/><text fill="#000000" font-family="sans-serif" font-size="12" lengthAdjust="spacing" textLength="129.416" x="88.6582" y="265.2539">&#26356;&#26032; position_aggregate</text><rect fill="#F1F1F1" height="35.0938" rx="12.5" ry="12.5" style="stroke:#181818;stroke-width:0.5;" width="92" x="107.3662" y="297.8906"/><text fill="#000000" font-family="sans-serif" font-size="12" lengthAdjust="spacing" textLength="72" x="117.3662" y="320.3477">&#21457;&#24067;&#39046;&#22495;&#20107;&#20214;</text><rect fill="#F1F1F1" height="35.0938" rx="12.5" ry="12.5" style="stroke:#181818;stroke-width:0.5;" width="92" x="107.3662" y="352.9844"/><text fill="#000000" font-family="sans-serif" font-size="12" lengthAdjust="spacing" textLength="72" x="117.3662" y="375.4414">&#35302;&#21457;&#35746;&#38405;&#37325;&#31639;</text><rect fill="#F1F1F1" height="35.0938" rx="12.5" ry="12.5" style="stroke:#181818;stroke-width:0.5;" width="200.0938" x="53.3193" y="456.9961"/><text fill="#000000" font-family="sans-serif" font-size="12" lengthAdjust="spacing" textLength="180.0938" x="63.3193" y="479.4531">&#21516;&#27493; combination_aggregate &#29366;&#24577;</text><polygon fill="#F1F1F1" points="59.5278,408.0781,247.2046,408.0781,259.2046,420.0781,247.2046,432.0781,59.5278,432.0781,47.5278,420.0781,59.5278,408.0781" style="stroke:#181818;stroke-width:0.5;"/><text fill="#000000" font-family="sans-serif" font-size="11" lengthAdjust="spacing" textLength="11" x="157.3662" y="443.4971">&#26159;</text><text fill="#000000" font-family="sans-serif" font-size="11" lengthAdjust="spacing" textLength="187.6768" x="59.5278" y="424.5791">&#39046;&#22495;&#20107;&#20214;&#20013;&#23384;&#22312; PositionClosedEvent?</text><polygon fill="#F1F1F1" points="153.3662,512.0898,165.3662,524.0898,153.3662,536.0898,141.3662,524.0898,153.3662,512.0898" style="stroke:#181818;stroke-width:0.5;"/><rect fill="#F1F1F1" height="35.0938" rx="12.5" ry="12.5" style="stroke:#181818;stroke-width:0.5;" width="284.7324" x="11" y="605.0078"/><text fill="#000000" font-family="sans-serif" font-size="12" lengthAdjust="spacing" textLength="264.7324" x="21" y="627.4648">&#25226; Manual / Risk / Combination &#20107;&#20214;&#36716;&#25104;&#21578;&#35686;&#20107;&#20214;</text><polygon fill="#F1F1F1" points="104.7498,556.0898,201.9827,556.0898,213.9827,568.0898,201.9827,580.0898,104.7498,580.0898,92.7498,568.0898,104.7498,556.0898" style="stroke:#181818;stroke-width:0.5;"/><text fill="#000000" font-family="sans-serif" font-size="11" lengthAdjust="spacing" textLength="11" x="157.3662" y="591.5088">&#26159;</text><text fill="#000000" font-family="sans-serif" font-size="11" lengthAdjust="spacing" textLength="97.2329" x="104.7498" y="572.5908">event_engine &#21487;&#29992;?</text><polygon fill="#F1F1F1" points="153.3662,660.1016,165.3662,672.1016,153.3662,684.1016,141.3662,672.1016,153.3662,660.1016" style="stroke:#181818;stroke-width:0.5;"/><ellipse cx="153.3662" cy="715.1016" fill="none" rx="11" ry="11" style="stroke:#222222;stroke-width:1;"/><ellipse cx="153.3662" cy="715.1016" fill="#222222" rx="6" ry="6" style="stroke:#222222;stroke-width:1;"/><line style="stroke:#181818;stroke-width:1;" x1="153.3662" x2="153.3662" y1="68.6094" y2="88.6094"/><polygon fill="#181818" points="149.3662,78.6094,153.3662,88.6094,157.3662,78.6094,153.3662,82.6094" style="stroke:#181818;stroke-width:1;"/><line style="stroke:#181818;stroke-width:1;" x1="153.3662" x2="153.3662" y1="167.7031" y2="187.7031"/><polygon fill="#181818" points="149.3662,177.7031,153.3662,187.7031,157.3662,177.7031,153.3662,181.7031" style="stroke:#181818;stroke-width:1;"/><line style="stroke:#181818;stroke-width:1;" x1="233.2407" x2="255.2407" y1="155.7031" y2="155.7031"/><polygon fill="#181818" points="245.2407,151.7031,255.2407,155.7031,245.2407,159.7031,249.2407,155.7031" style="stroke:#181818;stroke-width:1;"/><line style="stroke:#181818;stroke-width:1;" x1="153.3662" x2="153.3662" y1="123.7031" y2="143.7031"/><polygon fill="#181818" points="149.3662,133.7031,153.3662,143.7031,157.3662,133.7031,153.3662,137.7031" style="stroke:#181818;stroke-width:1;"/><line style="stroke:#181818;stroke-width:1;" x1="153.3662" x2="153.3662" y1="222.7969" y2="242.7969"/><polygon fill="#181818" points="149.3662,232.7969,153.3662,242.7969,157.3662,232.7969,153.3662,236.7969" style="stroke:#181818;stroke-width:1;"/><line style="stroke:#181818;stroke-width:1;" x1="153.3662" x2="153.3662" y1="277.8906" y2="297.8906"/><polygon fill="#181818" points="149.3662,287.8906,153.3662,297.8906,157.3662,287.8906,153.3662,291.8906" style="stroke:#181818;stroke-width:1;"/><line style="stroke:#181818;stroke-width:1;" x1="153.3662" x2="153.3662" y1="332.9844" y2="352.9844"/><polygon fill="#181818" points="149.3662,342.9844,153.3662,352.9844,157.3662,342.9844,153.3662,346.9844" style="stroke:#181818;stroke-width:1;"/><line style="stroke:#181818;stroke-width:1;" x1="153.3662" x2="153.3662" y1="432.0781" y2="456.9961"/><polygon fill="#181818" points="149.3662,446.9961,153.3662,456.9961,157.3662,446.9961,153.3662,450.9961" style="stroke:#181818;stroke-width:1;"/><line style="stroke:#181818;stroke-width:1;" x1="259.2046" x2="271.2046" y1="420.0781" y2="420.0781"/><polygon fill="#181818" points="267.2046,464.543,271.2046,474.543,275.2046,464.543,271.2046,468.543" style="stroke:#181818;stroke-width:1;"/><line style="stroke:#181818;stroke-width:1;" x1="271.2046" x2="271.2046" y1="420.0781" y2="524.0898"/><line style="stroke:#181818;stroke-width:1;" x1="271.2046" x2="165.3662" y1="524.0898" y2="524.0898"/><polygon fill="#181818" points="175.3662,520.0898,165.3662,524.0898,175.3662,528.0898,171.3662,524.0898" style="stroke:#181818;stroke-width:1;"/><line style="stroke:#181818;stroke-width:1;" x1="153.3662" x2="153.3662" y1="492.0898" y2="512.0898"/><polygon fill="#181818" points="149.3662,502.0898,153.3662,512.0898,157.3662,502.0898,153.3662,506.0898" style="stroke:#181818;stroke-width:1;"/><line style="stroke:#181818;stroke-width:1;" x1="153.3662" x2="153.3662" y1="388.0781" y2="408.0781"/><polygon fill="#181818" points="149.3662,398.0781,153.3662,408.0781,157.3662,398.0781,153.3662,402.0781" style="stroke:#181818;stroke-width:1;"/><line style="stroke:#181818;stroke-width:1;" x1="153.3662" x2="153.3662" y1="580.0898" y2="605.0078"/><polygon fill="#181818" points="149.3662,595.0078,153.3662,605.0078,157.3662,595.0078,153.3662,599.0078" style="stroke:#181818;stroke-width:1;"/><line style="stroke:#181818;stroke-width:1;" x1="213.9827" x2="305.7324" y1="568.0898" y2="568.0898"/><polygon fill="#181818" points="301.7324,612.5547,305.7324,622.5547,309.7324,612.5547,305.7324,616.5547" style="stroke:#181818;stroke-width:1;"/><line style="stroke:#181818;stroke-width:1;" x1="305.7324" x2="305.7324" y1="568.0898" y2="672.1016"/><line style="stroke:#181818;stroke-width:1;" x1="305.7324" x2="165.3662" y1="672.1016" y2="672.1016"/><polygon fill="#181818" points="175.3662,668.1016,165.3662,672.1016,175.3662,676.1016,171.3662,672.1016" style="stroke:#181818;stroke-width:1;"/><line style="stroke:#181818;stroke-width:1;" x1="153.3662" x2="153.3662" y1="640.1016" y2="660.1016"/><polygon fill="#181818" points="149.3662,650.1016,153.3662,660.1016,157.3662,650.1016,153.3662,654.1016" style="stroke:#181818;stroke-width:1;"/><line style="stroke:#181818;stroke-width:1;" x1="153.3662" x2="153.3662" y1="536.0898" y2="556.0898"/><polygon fill="#181818" points="149.3662,546.0898,153.3662,556.0898,157.3662,546.0898,153.3662,550.0898" style="stroke:#181818;stroke-width:1;"/><line style="stroke:#181818;stroke-width:1;" x1="153.3662" x2="153.3662" y1="684.1016" y2="704.1016"/><polygon fill="#181818" points="149.3662,694.1016,153.3662,704.1016,157.3662,694.1016,153.3662,698.1016" style="stroke:#181818;stroke-width:1;"/><?plantuml-src RP7DJi9058NtynHt2GlZdYvS49ScnXSWentgH9oITdIj8QYfycS8a612889TMD24a2hgqtIcxLiuvISQT7KdvzxCkT-vdF82WU3zDfZFP7yegyFmeoMhzx05SZeNZYkwNyZcsE8eevgoEGFJqea5sy0jh1DLYwPDEJMPUf9pmhY6Q1vIQpM73SCY1kRAnQ-8sYHikZjfuCU4GKfs9ca4O7EpY0ZJQHuf5ySHZwsuv8h9M_JQZpwVPMKWR-h2Qukohwc1xbIsNk2lWUg9MaFufNXm9Ngz9PGIewUHqgFn8EwKu-jAE6vhQB7Zxxd0zuJN4GykxAy-pXPCc-Yx2TBcmXbHlvFU48xCqqFAy0PdwCpanQMs9agS5i7a23Ce8_1_20aux65sXWigoGDgdwYI_J5O7Id9GuNHS29lj2PS6YKfVWC0?></g></svg>