<?plantuml 1.2026.2?><svg xmlns="http://www.w3.org/2000/svg" xmlns:xlink="http://www.w3.org/1999/xlink" contentStyleType="text/css" data-diagram-type="STATE" height="1205px" preserveAspectRatio="none" style="width:244px;height:1205px;background:#FFFFFF;" version="1.1" viewBox="0 0 244 1205" width="244px" zoomAndPan="magnify"><title>&#29983;&#21629;&#21608;&#26399;&#24037;&#20316;&#27969; - &#29366;&#24577;&#22270;</title><defs/><g><g class="title" data-source-line="1"><text fill="#000000" font-family="sans-serif" font-size="14" font-weight="bold" lengthAdjust="spacing" textLength="156.8164" x="36.8218" y="24.5332">&#29983;&#21629;&#21608;&#26399;&#24037;&#20316;&#27969; - &#29366;&#24577;&#22270;</text></g><g class="start_entity" data-qualified-name=".start." data-source-line="2" id="ent0002"><ellipse cx="88" cy="54.6094" fill="#222222" rx="10" ry="10" style="stroke:#222222;stroke-width:1;"/></g><g class="entity" data-qualified-name="..." id="ent0003"><rect fill="#F1F1F1" height="50" rx="12.5" ry="12.5" style="stroke:#181818;stroke-width:0.5;" width="62" x="57" y="125.6094"/><line style="stroke:#181818;stroke-width:0.5;" x1="57" x2="119" y1="153.2188" y2="153.2188"/><text fill="#000000" font-family="sans-serif" font-size="14" lengthAdjust="spacing" textLength="42" x="67" y="145.1426">&#24050;&#26500;&#36896;</text></g><g class="entity" data-qualified-name="....." id="ent0005"><rect fill="#F1F1F1" height="50" rx="12.5" ry="12.5" style="stroke:#181818;stroke-width:0.5;" width="90" x="43" y="253.6094"/><line style="stroke:#181818;stroke-width:0.5;" x1="43" x2="133" y1="281.2188" y2="281.2188"/><text fill="#000000" font-family="sans-serif" font-size="14" lengthAdjust="spacing" textLength="70" x="53" y="273.1426">&#24050;&#21152;&#36733;&#37197;&#32622;</text></g><g class="entity" data-qualified-name="....." id="ent0007"><rect fill="#F1F1F1" height="50" rx="12.5" ry="12.5" style="stroke:#181818;stroke-width:0.5;" width="90" x="43" y="381.6094"/><line style="stroke:#181818;stroke-width:0.5;" x1="43" x2="133" y1="409.2188" y2="409.2188"/><text fill="#000000" font-family="sans-serif" font-size="14" lengthAdjust="spacing" textLength="70" x="53" y="401.1426">&#24050;&#35013;&#37197;&#20381;&#36182;</text></g><g class="entity" data-qualified-name="..." id="ent0009"><rect fill="#F1F1F1" height="50" rx="12.5" ry="12.5" style="stroke:#181818;stroke-width:0.5;" width="62" x="7" y="509.6094"/><line style="stroke:#181818;stroke-width:0.5;" x1="7" x2="69" y1="537.2188" y2="537.2188"/><text fill="#000000" font-family="sans-serif" font-size="14" lengthAdjust="spacing" textLength="42" x="17" y="529.1426">&#24674;&#22797;&#20013;</text></g><g class="entity" data-qualified-name="..." id="ent0011"><rect fill="#F1F1F1" height="50" rx="12.5" ry="12.5" style="stroke:#181818;stroke-width:0.5;" width="62" x="58" y="637.6094"/><line style="stroke:#181818;stroke-width:0.5;" x1="58" x2="120" y1="665.2188" y2="665.2188"/><text fill="#000000" font-family="sans-serif" font-size="14" lengthAdjust="spacing" textLength="42" x="68" y="657.1426">&#39044;&#28909;&#20013;</text></g><g class="entity" data-qualified-name=".." id="ent0014"><rect fill="#F1F1F1" height="50" rx="12.5" ry="12.5" style="stroke:#181818;stroke-width:0.5;" width="50" x="64" y="765.6094"/><line style="stroke:#181818;stroke-width:0.5;" x1="64" x2="114" y1="793.2188" y2="793.2188"/><text fill="#000000" font-family="sans-serif" font-size="14" lengthAdjust="spacing" textLength="28" x="75" y="785.1426">&#23601;&#32490;</text></g><g class="entity" data-qualified-name="..." id="ent0016"><rect fill="#F1F1F1" height="50" rx="12.5" ry="12.5" style="stroke:#181818;stroke-width:0.5;" width="62" x="58" y="893.6094"/><line style="stroke:#181818;stroke-width:0.5;" x1="58" x2="120" y1="921.2188" y2="921.2188"/><text fill="#000000" font-family="sans-serif" font-size="14" lengthAdjust="spacing" textLength="42" x="68" y="913.1426">&#36816;&#34892;&#20013;</text></g><g class="entity" data-qualified-name="..." id="ent0018"><rect fill="#F1F1F1" height="50" rx="12.5" ry="12.5" style="stroke:#181818;stroke-width:0.5;" width="62" x="58" y="1021.6094"/><line style="stroke:#181818;stroke-width:0.5;" x1="58" x2="120" y1="1049.2188" y2="1049.2188"/><text fill="#000000" font-family="sans-serif" font-size="14" lengthAdjust="spacing" textLength="42" x="68" y="1041.1426">&#20572;&#27490;&#20013;</text></g><g class="entity" data-qualified-name="..." id="ent0020"><rect fill="#F1F1F1" height="50" rx="12.5" ry="12.5" style="stroke:#181818;stroke-width:0.5;" width="62" x="58" y="1149.6094"/><line style="stroke:#181818;stroke-width:0.5;" x1="58" x2="120" y1="1177.2188" y2="1177.2188"/><text fill="#000000" font-family="sans-serif" font-size="14" lengthAdjust="spacing" textLength="42" x="68" y="1169.1426">&#24050;&#20572;&#27490;</text></g><!--link *start* to ???--><g class="link" data-entity-1="ent0002" data-entity-2="ent0003" data-link-type="dependency" data-source-line="2" id="lnk4"><path d="M88,64.6194 C88,78.4994 88,99.5794 88,119.4494" fill="none" id="*start*-to-&#24050;&#26500;&#36896;" style="stroke:#181818;stroke-width:1;"/><polygon fill="#181818" points="88,125.4494,92,116.4494,88,120.4494,84,116.4494,88,125.4494" style="stroke:#181818;stroke-width:1;"/></g><!--link ??? to ?????--><g class="link" data-entity-1="ent0003" data-entity-2="ent0005" data-link-type="dependency" data-source-line="3" id="lnk6"><path d="M88,175.8994 C88,198.2194 88,225.0994 88,247.3894" fill="none" id="&#24050;&#26500;&#36896;-to-&#24050;&#21152;&#36733;&#37197;&#32622;" style="stroke:#181818;stroke-width:1;"/><polygon fill="#181818" points="88,253.3894,92,244.3894,88,248.3894,84,244.3894,88,253.3894" style="stroke:#181818;stroke-width:1;"/><text fill="#000000" font-family="sans-serif" font-size="13" lengthAdjust="spacing" textLength="38.3081" x="89" y="220.1045">on_init</text></g><!--link ????? to ?????--><g class="link" data-entity-1="ent0005" data-entity-2="ent0007" data-link-type="dependency" data-source-line="4" id="lnk8"><path d="M88,303.8994 C88,326.2194 88,353.0994 88,375.3894" fill="none" id="&#24050;&#21152;&#36733;&#37197;&#32622;-to-&#24050;&#35013;&#37197;&#20381;&#36182;" style="stroke:#181818;stroke-width:1;"/><polygon fill="#181818" points="88,381.3894,92,372.3894,88,376.3894,84,372.3894,88,381.3894" style="stroke:#181818;stroke-width:1;"/><text fill="#000000" font-family="sans-serif" font-size="13" lengthAdjust="spacing" textLength="138.6709" x="89" y="348.1045">&#26381;&#21153; / &#32858;&#21512; / &#32593;&#20851;&#21021;&#22987;&#21270;</text></g><!--link ????? to ???--><g class="link" data-entity-1="ent0007" data-entity-2="ent0009" data-link-type="dependency" data-source-line="5" id="lnk10"><path d="M55.66,431.8294 C46.95,440.1994 38.67,450.3394 34,461.6094 C27.77,476.6494 27.826,489.0763 30.446,503.4763" fill="none" id="&#24050;&#35013;&#37197;&#20381;&#36182;-to-&#24674;&#22797;&#20013;" style="stroke:#181818;stroke-width:1;"/><polygon fill="#181818" points="31.52,509.3794,33.8443,499.8087,30.625,504.4601,25.9736,501.2408,31.52,509.3794" style="stroke:#181818;stroke-width:1;"/><text fill="#000000" font-family="sans-serif" font-size="13" lengthAdjust="spacing" textLength="78" x="35" y="476.1045">&#23454;&#30424;&#24674;&#22797;&#36335;&#24452;</text></g><!--link ????? to ???--><g class="link" data-entity-1="ent0007" data-entity-2="ent0011" data-link-type="dependency" data-source-line="6" id="lnk12"><path d="M104.85,431.7594 C110.14,440.7194 115.31,451.2294 118,461.6094 C134.28,524.4194 133.83,544.6794 118,607.6094 C115.4,617.9294 113.3868,623.2199 108.2668,632.1799" fill="none" id="&#24050;&#35013;&#37197;&#20381;&#36182;-to-&#39044;&#28909;&#20013;" style="stroke:#181818;stroke-width:1;"/><polygon fill="#181818" points="105.29,637.3894,113.2282,631.5597,107.7707,633.0482,106.2823,627.5906,105.29,637.3894" style="stroke:#181818;stroke-width:1;"/><text fill="#000000" font-family="sans-serif" font-size="13" lengthAdjust="spacing" textLength="105.46" x="131" y="540.1045">&#22238;&#27979; warmup &#36335;&#24452;</text></g><!--link ??? to ???--><g class="link" data-entity-1="ent0009" data-entity-2="ent0011" data-link-type="dependency" data-source-line="7" id="lnk13"><path d="M44.08,559.6994 C47.98,573.8794 53.52,592.0494 60,607.6094 C64.17,617.6294 66.7303,622.9866 71.7703,632.1166" fill="none" id="&#24674;&#22797;&#20013;-to-&#39044;&#28909;&#20013;" style="stroke:#181818;stroke-width:1;"/><polygon fill="#181818" points="74.67,637.3694,73.8223,627.5571,72.2536,632.992,66.8186,631.4233,74.67,637.3694" style="stroke:#181818;stroke-width:1;"/><text fill="#000000" font-family="sans-serif" font-size="13" lengthAdjust="spacing" textLength="52" x="61" y="604.1045">&#21382;&#21490;&#22238;&#25918;</text></g><!--link ??? to ??--><g class="link" data-entity-1="ent0011" data-entity-2="ent0014" data-link-type="dependency" data-source-line="8" id="lnk15"><path d="M89,687.8994 C89,710.2194 89,737.0994 89,759.3894" fill="none" id="&#39044;&#28909;&#20013;-to-&#23601;&#32490;" style="stroke:#181818;stroke-width:1;"/><polygon fill="#181818" points="89,765.3894,93,756.3894,89,760.3894,85,756.3894,89,765.3894" style="stroke:#181818;stroke-width:1;"/><text fill="#000000" font-family="sans-serif" font-size="13" lengthAdjust="spacing" textLength="75.8481" x="90" y="732.1045">warmup &#23436;&#25104;</text></g><!--link ?? to ???--><g class="link" data-entity-1="ent0014" data-entity-2="ent0016" data-link-type="dependency" data-source-line="9" id="lnk17"><path d="M89,815.8994 C89,838.2194 89,865.0994 89,887.3894" fill="none" id="&#23601;&#32490;-to-&#36816;&#34892;&#20013;" style="stroke:#181818;stroke-width:1;"/><polygon fill="#181818" points="89,893.3894,93,884.3894,89,888.3894,85,884.3894,89,893.3894" style="stroke:#181818;stroke-width:1;"/><text fill="#000000" font-family="sans-serif" font-size="13" lengthAdjust="spacing" textLength="46.9727" x="90" y="860.1045">on_start</text></g><!--link ??? to ???--><g class="link" data-entity-1="ent0016" data-entity-2="ent0018" data-link-type="dependency" data-source-line="10" id="lnk19"><path d="M89,943.8994 C89,966.2194 89,993.0994 89,1015.3894" fill="none" id="&#36816;&#34892;&#20013;-to-&#20572;&#27490;&#20013;" style="stroke:#181818;stroke-width:1;"/><polygon fill="#181818" points="89,1021.3894,93,1012.3894,89,1016.3894,85,1012.3894,89,1021.3894" style="stroke:#181818;stroke-width:1;"/><text fill="#000000" font-family="sans-serif" font-size="13" lengthAdjust="spacing" textLength="46.2617" x="90" y="988.1045">on_stop</text></g><!--link ??? to ???--><g class="link" data-entity-1="ent0018" data-entity-2="ent0020" data-link-type="dependency" data-source-line="11" id="lnk21"><path d="M89,1071.8994 C89,1094.2194 89,1121.0994 89,1143.3894" fill="none" id="&#20572;&#27490;&#20013;-to-&#24050;&#20572;&#27490;" style="stroke:#181818;stroke-width:1;"/><polygon fill="#181818" points="89,1149.3894,93,1140.3894,89,1144.3894,85,1140.3894,89,1149.3894" style="stroke:#181818;stroke-width:1;"/><text fill="#000000" font-family="sans-serif" font-size="13" lengthAdjust="spacing" textLength="135.8145" x="90" y="1116.1045">&#20445;&#23384;&#24555;&#29031; / &#27880;&#38144; handler</text></g><?plantuml-src RP1VIuDG68VlpwSuru5qtqLV92A41WdBZMLqgwGXRfQ3CKRg_bYnKMYrOGj2_JA-vno_HMURorZTlJply_l1-ogIKgzXsXj1Du7kZ7WZM3xbYKTY3GkOMXz4rS1DqT7UCHQ4GmpBEHdgXJf6FzEMWpLcIL8ODaqYV80RyeaaImhQtPGsUp0uo5EVnNrk4yy6QuBtCTFkmJ7vG9Ck60imVPYseTD7kvbL3z42UBJppv0tG3Iaxc13sF8LKltVI17ez3ei8-wGn6ry9RREBvku35MTV_JR6xYRhqAz55MBzK5lx_JhcJjb5qGTOZgen2k3PGwRT3P5_3KNYjXIK0NN9Pf7mk2NqcYYYcs_l0RSo3CVmW5aBzIOydUHnQpegVXCb4_hjTOt?></g></svg>