<?plantuml 1.2026.2?><svg xmlns="http://www.w3.org/2000/svg" xmlns:xlink="http://www.w3.org/1999/xlink" contentStyleType="text/css" data-diagram-type="ACTIVITY" height="1165px" preserveAspectRatio="none" style="width:261px;height:1165px;background:#FFFFFF;" version="1.1" viewBox="0 0 261 1165" width="261px" zoomAndPan="magnify"><title>&#29983;&#21629;&#21608;&#26399;&#24037;&#20316;&#27969; - &#24322;&#24120;/&#38477;&#32423;&#36335;&#24452;&#22270;</title><defs/><g><g class="title" data-source-line="1"><text fill="#000000" font-family="sans-serif" font-size="14" font-weight="bold" lengthAdjust="spacing" textLength="218.4561" x="20" y="34.5332">&#29983;&#21629;&#21608;&#26399;&#24037;&#20316;&#27969; - &#24322;&#24120;/&#38477;&#32423;&#36335;&#24452;&#22270;</text></g><ellipse cx="121.8407" cy="58.6094" fill="#222222" rx="10" ry="10" style="stroke:#222222;stroke-width:1;"/><rect fill="#F1F1F1" height="35.0938" rx="12.5" ry="12.5" style="stroke:#181818;stroke-width:0.5;" width="116" x="63.8407" y="88.6094"/><text fill="#000000" font-family="sans-serif" font-size="12" lengthAdjust="spacing" textLength="96" x="73.8407" y="111.0664">&#35835;&#21462;&#30446;&#26631;&#21697;&#31181;&#37197;&#32622;</text><rect fill="#F1F1F1" height="35.0938" rx="12.5" ry="12.5" style="stroke:#181818;stroke-width:0.5;" width="72.6699" x="85.5057" y="192.6211"/><text fill="#000000" font-family="sans-serif" font-size="12" lengthAdjust="spacing" textLength="52.6699" x="95.5057" y="215.0781">&#35760;&#24405; error</text><ellipse cx="121.8407" cy="266.668" fill="none" rx="11" ry="11" style="stroke:#222222;stroke-width:1;"/><ellipse cx="121.8407" cy="266.668" fill="#222222" rx="6" ry="6" style="stroke:#222222;stroke-width:1;"/><polygon fill="#F1F1F1" points="68.0358,143.7031,175.6456,143.7031,187.6456,155.7031,175.6456,167.7031,68.0358,167.7031,56.0358,155.7031,68.0358,143.7031" style="stroke:#181818;stroke-width:0.5;"/><text fill="#000000" font-family="sans-serif" font-size="11" lengthAdjust="spacing" textLength="11" x="125.8407" y="179.1221">&#26159;</text><text fill="#000000" font-family="sans-serif" font-size="11" lengthAdjust="spacing" textLength="107.6099" x="68.0358" y="160.2041">target_products &#20026;&#31354;?</text><rect fill="#F1F1F1" height="35.0938" rx="12.5" ry="12.5" style="stroke:#181818;stroke-width:0.5;" width="128.7148" x="57.4833" y="319.668"/><text fill="#000000" font-family="sans-serif" font-size="12" lengthAdjust="spacing" textLength="108.7148" x="67.4833" y="342.125">&#35835;&#21462; strategy_config</text><rect fill="#F1F1F1" height="35.0938" rx="12.5" ry="12.5" style="stroke:#181818;stroke-width:0.5;" width="124.7188" x="59.4813" y="423.6797"/><text fill="#000000" font-family="sans-serif" font-size="12" lengthAdjust="spacing" textLength="104.7188" x="69.4813" y="446.1367">full_config &#22238;&#36864;&#20026; {}</text><polygon fill="#F1F1F1" points="96.7819,374.7617,146.8995,374.7617,158.8995,386.7617,146.8995,398.7617,96.7819,398.7617,84.7819,386.7617,96.7819,374.7617" style="stroke:#181818;stroke-width:0.5;"/><text fill="#000000" font-family="sans-serif" font-size="11" lengthAdjust="spacing" textLength="11" x="125.8407" y="410.1807">&#26159;</text><text fill="#000000" font-family="sans-serif" font-size="11" lengthAdjust="spacing" textLength="50.1177" x="96.7819" y="391.2627">&#35835;&#21462;&#22833;&#36133;?</text><polygon fill="#F1F1F1" points="121.8407,478.7734,133.8407,490.7734,121.8407,502.7734,109.8407,490.7734,121.8407,478.7734" style="stroke:#181818;stroke-width:0.5;"/><rect fill="#F1F1F1" height="35.0938" rx="12.5" ry="12.5" style="stroke:#181818;stroke-width:0.5;" width="150.0605" x="46.8104" y="522.7734"/><text fill="#000000" font-family="sans-serif" font-size="12" lengthAdjust="spacing" textLength="130.0605" x="56.8104" y="545.2305">&#35835;&#21462; subscription_config</text><rect fill="#F1F1F1" height="35.0938" rx="12.5" ry="12.5" style="stroke:#181818;stroke-width:0.5;" width="128" x="57.8407" y="626.7852"/><text fill="#000000" font-family="sans-serif" font-size="12" lengthAdjust="spacing" textLength="108" x="67.8407" y="649.2422">&#31105;&#29992;&#35746;&#38405;&#27169;&#24335;&#24182;&#32487;&#32493;</text><polygon fill="#F1F1F1" points="96.7819,577.8672,146.8995,577.8672,158.8995,589.8672,146.8995,601.8672,96.7819,601.8672,84.7819,589.8672,96.7819,577.8672" style="stroke:#181818;stroke-width:0.5;"/><text fill="#000000" font-family="sans-serif" font-size="11" lengthAdjust="spacing" textLength="11" x="125.8407" y="613.2861">&#26159;</text><text fill="#000000" font-family="sans-serif" font-size="11" lengthAdjust="spacing" textLength="50.1177" x="96.7819" y="594.3682">&#35835;&#21462;&#22833;&#36133;?</text><polygon fill="#F1F1F1" points="121.8407,681.8789,133.8407,693.8789,121.8407,705.8789,109.8407,693.8789,121.8407,681.8789" style="stroke:#181818;stroke-width:0.5;"/><rect fill="#F1F1F1" height="35.0938" rx="12.5" ry="12.5" style="stroke:#181818;stroke-width:0.5;" width="68" x="87.8407" y="774.7969"/><text fill="#000000" font-family="sans-serif" font-size="12" lengthAdjust="spacing" textLength="48" x="97.8407" y="797.2539">&#25298;&#32477;&#21551;&#21160;</text><ellipse cx="121.8407" cy="848.8438" fill="none" rx="11" ry="11" style="stroke:#222222;stroke-width:1;"/><ellipse cx="121.8407" cy="848.8438" fill="#222222" rx="6" ry="6" style="stroke:#222222;stroke-width:1;"/><polygon fill="#F1F1F1" points="96.7819,725.8789,146.8995,725.8789,158.8995,737.8789,146.8995,749.8789,96.7819,749.8789,84.7819,737.8789,96.7819,725.8789" style="stroke:#181818;stroke-width:0.5;"/><text fill="#000000" font-family="sans-serif" font-size="11" lengthAdjust="spacing" textLength="11" x="125.8407" y="761.2979">&#26159;</text><text fill="#000000" font-family="sans-serif" font-size="11" lengthAdjust="spacing" textLength="50.1177" x="96.7819" y="742.3799">&#29366;&#24577;&#25439;&#22351;?</text><rect fill="#F1F1F1" height="35.0938" rx="12.5" ry="12.5" style="stroke:#181818;stroke-width:0.5;" width="128" x="57.8407" y="950.7617"/><text fill="#000000" font-family="sans-serif" font-size="12" lengthAdjust="spacing" textLength="108" x="67.8407" y="973.2188">&#35760;&#24405;&#24322;&#24120;&#24182;&#20013;&#27490;&#21551;&#21160;</text><ellipse cx="121.8407" cy="1024.8086" fill="none" rx="11" ry="11" style="stroke:#222222;stroke-width:1;"/><ellipse cx="121.8407" cy="1024.8086" fill="#222222" rx="6" ry="6" style="stroke:#222222;stroke-width:1;"/><polygon fill="#F1F1F1" points="72.6361,901.8438,171.0453,901.8438,183.0453,913.8438,171.0453,925.8438,72.6361,925.8438,60.6361,913.8438,72.6361,901.8438" style="stroke:#181818;stroke-width:0.5;"/><text fill="#000000" font-family="sans-serif" font-size="11" lengthAdjust="spacing" textLength="11" x="125.8407" y="937.2627">&#26159;</text><text fill="#000000" font-family="sans-serif" font-size="11" lengthAdjust="spacing" textLength="98.4092" x="72.6361" y="918.3447">warmup / &#22238;&#25918;&#22833;&#36133;?</text><rect fill="#F1F1F1" height="35.0938" rx="12.5" ry="12.5" style="stroke:#181818;stroke-width:0.5;" width="104" x="69.8407" y="1077.8086"/><text fill="#000000" font-family="sans-serif" font-size="12" lengthAdjust="spacing" textLength="84" x="79.8407" y="1100.2656">&#32487;&#32493;&#21518;&#32493;&#21021;&#22987;&#21270;</text><ellipse cx="121.8407" cy="1143.9023" fill="none" rx="11" ry="11" style="stroke:#222222;stroke-width:1;"/><ellipse cx="121.8407" cy="1143.9023" fill="#222222" rx="6" ry="6" style="stroke:#222222;stroke-width:1;"/><line style="stroke:#181818;stroke-width:1;" x1="121.8407" x2="121.8407" y1="68.6094" y2="88.6094"/><polygon fill="#181818" points="117.8407,78.6094,121.8407,88.6094,125.8407,78.6094,121.8407,82.6094" style="stroke:#181818;stroke-width:1;"/><line style="stroke:#181818;stroke-width:1;" x1="121.8407" x2="121.8407" y1="227.7148" y2="255.668"/><polygon fill="#181818" points="117.8407,245.668,121.8407,255.668,125.8407,245.668,121.8407,249.668" style="stroke:#181818;stroke-width:1;"/><line style="stroke:#181818;stroke-width:1;" x1="121.8407" x2="121.8407" y1="167.7031" y2="192.6211"/><polygon fill="#181818" points="117.8407,182.6211,121.8407,192.6211,125.8407,182.6211,121.8407,186.6211" style="stroke:#181818;stroke-width:1;"/><line style="stroke:#181818;stroke-width:1;" x1="187.6456" x2="199.6456" y1="155.7031" y2="155.7031"/><polygon fill="#181818" points="195.6456,225.668,199.6456,235.668,203.6456,225.668,199.6456,229.668" style="stroke:#181818;stroke-width:1;"/><line style="stroke:#181818;stroke-width:1;" x1="199.6456" x2="199.6456" y1="155.7031" y2="299.668"/><line style="stroke:#181818;stroke-width:1;" x1="199.6456" x2="121.8407" y1="299.668" y2="299.668"/><line style="stroke:#181818;stroke-width:1;" x1="121.8407" x2="121.8407" y1="299.668" y2="319.668"/><polygon fill="#181818" points="117.8407,309.668,121.8407,319.668,125.8407,309.668,121.8407,313.668" style="stroke:#181818;stroke-width:1;"/><line style="stroke:#181818;stroke-width:1;" x1="121.8407" x2="121.8407" y1="123.7031" y2="143.7031"/><polygon fill="#181818" points="117.8407,133.7031,121.8407,143.7031,125.8407,133.7031,121.8407,137.7031" style="stroke:#181818;stroke-width:1;"/><line style="stroke:#181818;stroke-width:1;" x1="121.8407" x2="121.8407" y1="398.7617" y2="423.6797"/><polygon fill="#181818" points="117.8407,413.6797,121.8407,423.6797,125.8407,413.6797,121.8407,417.6797" style="stroke:#181818;stroke-width:1;"/><line style="stroke:#181818;stroke-width:1;" x1="158.8995" x2="194.2001" y1="386.7617" y2="386.7617"/><polygon fill="#181818" points="190.2001,431.2266,194.2001,441.2266,198.2001,431.2266,194.2001,435.2266" style="stroke:#181818;stroke-width:1;"/><line style="stroke:#181818;stroke-width:1;" x1="194.2001" x2="194.2001" y1="386.7617" y2="490.7734"/><line style="stroke:#181818;stroke-width:1;" x1="194.2001" x2="133.8407" y1="490.7734" y2="490.7734"/><polygon fill="#181818" points="143.8407,486.7734,133.8407,490.7734,143.8407,494.7734,139.8407,490.7734" style="stroke:#181818;stroke-width:1;"/><line style="stroke:#181818;stroke-width:1;" x1="121.8407" x2="121.8407" y1="458.7734" y2="478.7734"/><polygon fill="#181818" points="117.8407,468.7734,121.8407,478.7734,125.8407,468.7734,121.8407,472.7734" style="stroke:#181818;stroke-width:1;"/><line style="stroke:#181818;stroke-width:1;" x1="121.8407" x2="121.8407" y1="354.7617" y2="374.7617"/><polygon fill="#181818" points="117.8407,364.7617,121.8407,374.7617,125.8407,364.7617,121.8407,368.7617" style="stroke:#181818;stroke-width:1;"/><line style="stroke:#181818;stroke-width:1;" x1="121.8407" x2="121.8407" y1="502.7734" y2="522.7734"/><polygon fill="#181818" points="117.8407,512.7734,121.8407,522.7734,125.8407,512.7734,121.8407,516.7734" style="stroke:#181818;stroke-width:1;"/><line style="stroke:#181818;stroke-width:1;" x1="121.8407" x2="121.8407" y1="601.8672" y2="626.7852"/><polygon fill="#181818" points="117.8407,616.7852,121.8407,626.7852,125.8407,616.7852,121.8407,620.7852" style="stroke:#181818;stroke-width:1;"/><line style="stroke:#181818;stroke-width:1;" x1="158.8995" x2="195.8407" y1="589.8672" y2="589.8672"/><polygon fill="#181818" points="191.8407,634.332,195.8407,644.332,199.8407,634.332,195.8407,638.332" style="stroke:#181818;stroke-width:1;"/><line style="stroke:#181818;stroke-width:1;" x1="195.8407" x2="195.8407" y1="589.8672" y2="693.8789"/><line style="stroke:#181818;stroke-width:1;" x1="195.8407" x2="133.8407" y1="693.8789" y2="693.8789"/><polygon fill="#181818" points="143.8407,689.8789,133.8407,693.8789,143.8407,697.8789,139.8407,693.8789" style="stroke:#181818;stroke-width:1;"/><line style="stroke:#181818;stroke-width:1;" x1="121.8407" x2="121.8407" y1="661.8789" y2="681.8789"/><polygon fill="#181818" points="117.8407,671.8789,121.8407,681.8789,125.8407,671.8789,121.8407,675.8789" style="stroke:#181818;stroke-width:1;"/><line style="stroke:#181818;stroke-width:1;" x1="121.8407" x2="121.8407" y1="557.8672" y2="577.8672"/><polygon fill="#181818" points="117.8407,567.8672,121.8407,577.8672,125.8407,567.8672,121.8407,571.8672" style="stroke:#181818;stroke-width:1;"/><line style="stroke:#181818;stroke-width:1;" x1="121.8407" x2="121.8407" y1="809.8906" y2="837.8438"/><polygon fill="#181818" points="117.8407,827.8438,121.8407,837.8438,125.8407,827.8438,121.8407,831.8438" style="stroke:#181818;stroke-width:1;"/><line style="stroke:#181818;stroke-width:1;" x1="121.8407" x2="121.8407" y1="749.8789" y2="774.7969"/><polygon fill="#181818" points="117.8407,764.7969,121.8407,774.7969,125.8407,764.7969,121.8407,768.7969" style="stroke:#181818;stroke-width:1;"/><line style="stroke:#181818;stroke-width:1;" x1="158.8995" x2="170.8995" y1="737.8789" y2="737.8789"/><polygon fill="#181818" points="166.8995,807.8438,170.8995,817.8438,174.8995,807.8438,170.8995,811.8438" style="stroke:#181818;stroke-width:1;"/><line style="stroke:#181818;stroke-width:1;" x1="170.8995" x2="170.8995" y1="737.8789" y2="881.8438"/><line style="stroke:#181818;stroke-width:1;" x1="170.8995" x2="121.8407" y1="881.8438" y2="881.8438"/><line style="stroke:#181818;stroke-width:1;" x1="121.8407" x2="121.8407" y1="881.8438" y2="901.8438"/><polygon fill="#181818" points="117.8407,891.8438,121.8407,901.8438,125.8407,891.8438,121.8407,895.8438" style="stroke:#181818;stroke-width:1;"/><line style="stroke:#181818;stroke-width:1;" x1="121.8407" x2="121.8407" y1="705.8789" y2="725.8789"/><polygon fill="#181818" points="117.8407,715.8789,121.8407,725.8789,125.8407,715.8789,121.8407,719.8789" style="stroke:#181818;stroke-width:1;"/><line style="stroke:#181818;stroke-width:1;" x1="121.8407" x2="121.8407" y1="985.8555" y2="1013.8086"/><polygon fill="#181818" points="117.8407,1003.8086,121.8407,1013.8086,125.8407,1003.8086,121.8407,1007.8086" style="stroke:#181818;stroke-width:1;"/><line style="stroke:#181818;stroke-width:1;" x1="121.8407" x2="121.8407" y1="925.8438" y2="950.7617"/><polygon fill="#181818" points="117.8407,940.7617,121.8407,950.7617,125.8407,940.7617,121.8407,944.7617" style="stroke:#181818;stroke-width:1;"/><line style="stroke:#181818;stroke-width:1;" x1="183.0453" x2="195.8407" y1="913.8438" y2="913.8438"/><polygon fill="#181818" points="191.8407,983.8086,195.8407,993.8086,199.8407,983.8086,195.8407,987.8086" style="stroke:#181818;stroke-width:1;"/><line style="stroke:#181818;stroke-width:1;" x1="195.8407" x2="195.8407" y1="913.8438" y2="1057.8086"/><line style="stroke:#181818;stroke-width:1;" x1="195.8407" x2="121.8407" y1="1057.8086" y2="1057.8086"/><line style="stroke:#181818;stroke-width:1;" x1="121.8407" x2="121.8407" y1="1057.8086" y2="1077.8086"/><polygon fill="#181818" points="117.8407,1067.8086,121.8407,1077.8086,125.8407,1067.8086,121.8407,1071.8086" style="stroke:#181818;stroke-width:1;"/><line style="stroke:#181818;stroke-width:1;" x1="121.8407" x2="121.8407" y1="1112.9023" y2="1132.9023"/><polygon fill="#181818" points="117.8407,1122.9023,121.8407,1132.9023,125.8407,1122.9023,121.8407,1126.9023" style="stroke:#181818;stroke-width:1;"/><?plantuml-src ZP71Ji9048RlVOezmi5mfmSVXI2qs0JRPhkDCSQ46ea6h80YmG2YH6mzq6gYK2dmDCnk-nQsgNeGJRpiOVQVx_zdXaYaB23M7a9h2IsRzeSm6w-NVVfce2q4YsFml4nuOxAv5SnSM9r0RyLf98y9bmrS7neTrdFetIbS6Smomwh9bWxFII9AHPgIG78gLefwWMXexStPqtmxZSYk8ACKxRff3g5iu3p3yXe962kOZmeQKLHEa8kIo7qvH3MS9qBf85TGP54g9Vpa3nvUWjVn1bNKo-LFDOBURLYfHFRey8ZVGEixMW5BAf4K-VzuzcYmjXquex1RfVOzB1hmFcM-nVp9jqCCORKfhHZK7CAWiG6XzKlc3w3fGit-ENdSl9_7UxgACl40jBtw8qgol-HGKOYrDw6JqU_GR98GcXVnUpO0gmxd7PwBDHy0?></g></svg>