<?plantuml 1.2026.2?><svg xmlns="http://www.w3.org/2000/svg" xmlns:xlink="http://www.w3.org/1999/xlink" contentStyleType="text/css" data-diagram-type="ACTIVITY" height="653px" preserveAspectRatio="none" style="width:363px;height:653px;background:#FFFFFF;" version="1.1" viewBox="0 0 363 653" width="363px" zoomAndPan="magnify"><title>&#29983;&#21629;&#21608;&#26399;&#24037;&#20316;&#27969; - &#20998;&#25903;&#21028;&#23450;&#22270;</title><defs/><g><g class="title" data-source-line="1"><text fill="#000000" font-family="sans-serif" font-size="14" font-weight="bold" lengthAdjust="spacing" textLength="185.6914" x="87.4824" y="34.5332">&#29983;&#21629;&#21608;&#26399;&#24037;&#20316;&#27969; - &#20998;&#25903;&#21028;&#23450;&#22270;</text></g><ellipse cx="159.4761" cy="58.6094" fill="#222222" rx="10" ry="10" style="stroke:#222222;stroke-width:1;"/><rect fill="#F1F1F1" height="35.0938" rx="12.5" ry="12.5" style="stroke:#181818;stroke-width:0.5;" width="80" x="119.4761" y="88.6094"/><text fill="#000000" font-family="sans-serif" font-size="12" lengthAdjust="spacing" textLength="60" x="129.4761" y="111.0664">&#21152;&#36733;&#20027;&#37197;&#32622;</text><polygon fill="#F1F1F1" points="91,143.7031,227.9521,143.7031,239.9521,155.7031,227.9521,167.7031,91,167.7031,79,155.7031,91,143.7031" style="stroke:#181818;stroke-width:0.5;"/><text fill="#000000" font-family="sans-serif" font-size="11" lengthAdjust="spacing" textLength="136.9521" x="91" y="160.2041">strategy_full_config &#24050;&#27880;&#20837;?</text><text fill="#000000" font-family="sans-serif" font-size="11" lengthAdjust="spacing" textLength="11" x="68" y="153.2861">&#26159;</text><text fill="#000000" font-family="sans-serif" font-size="11" lengthAdjust="spacing" textLength="11" x="239.9521" y="153.2861">&#21542;</text><rect fill="#F1F1F1" height="35.0938" rx="12.5" ry="12.5" style="stroke:#181818;stroke-width:0.5;" width="116" x="11" y="177.7031"/><text fill="#000000" font-family="sans-serif" font-size="12" lengthAdjust="spacing" textLength="96" x="21" y="200.1602">&#30452;&#25509;&#20351;&#29992;&#27880;&#20837;&#37197;&#32622;</text><rect fill="#F1F1F1" height="35.0938" rx="12.5" ry="12.5" style="stroke:#181818;stroke-width:0.5;" width="205.4082" x="147.248" y="177.7031"/><text fill="#000000" font-family="sans-serif" font-size="12" lengthAdjust="spacing" textLength="185.4082" x="157.248" y="200.1602">&#20174; config/strategy_config.toml &#35835;&#21462;</text><polygon fill="#F1F1F1" points="159.4761,218.7969,171.4761,230.7969,159.4761,242.7969,147.4761,230.7969,159.4761,218.7969" style="stroke:#181818;stroke-width:0.5;"/><polygon fill="#F1F1F1" points="102.623,262.7969,216.3291,262.7969,228.3291,274.7969,216.3291,286.7969,102.623,286.7969,90.623,274.7969,102.623,262.7969" style="stroke:#181818;stroke-width:0.5;"/><text fill="#000000" font-family="sans-serif" font-size="11" lengthAdjust="spacing" textLength="113.7061" x="102.623" y="279.2979">subscription.toml &#23384;&#22312;?</text><text fill="#000000" font-family="sans-serif" font-size="11" lengthAdjust="spacing" textLength="11" x="79.623" y="272.3799">&#26159;</text><text fill="#000000" font-family="sans-serif" font-size="11" lengthAdjust="spacing" textLength="11" x="228.3291" y="272.3799">&#21542;</text><rect fill="#F1F1F1" height="35.0938" rx="12.5" ry="12.5" style="stroke:#181818;stroke-width:0.5;" width="92" x="34.623" y="296.7969"/><text fill="#000000" font-family="sans-serif" font-size="12" lengthAdjust="spacing" textLength="72" x="44.623" y="319.2539">&#21152;&#36733;&#35746;&#38405;&#37197;&#32622;</text><rect fill="#F1F1F1" height="35.0938" rx="12.5" ry="12.5" style="stroke:#181818;stroke-width:0.5;" width="134.3984" x="171.1299" y="296.7969"/><text fill="#000000" font-family="sans-serif" font-size="12" lengthAdjust="spacing" textLength="114.3984" x="181.1299" y="319.2539">&#22238;&#36864;&#21040; enabled=false</text><polygon fill="#F1F1F1" points="159.4761,337.8906,171.4761,349.8906,159.4761,361.8906,147.4761,349.8906,159.4761,337.8906" style="stroke:#181818;stroke-width:0.5;"/><polygon fill="#F1F1F1" points="117.74,381.8906,201.2122,381.8906,213.2122,393.8906,201.2122,405.8906,117.74,405.8906,105.74,393.8906,117.74,381.8906" style="stroke:#181818;stroke-width:0.5;"/><text fill="#000000" font-family="sans-serif" font-size="11" lengthAdjust="spacing" textLength="83.4722" x="117.74" y="398.3916">bar_window &gt; 0?</text><text fill="#000000" font-family="sans-serif" font-size="11" lengthAdjust="spacing" textLength="11" x="94.74" y="391.4736">&#26159;</text><text fill="#000000" font-family="sans-serif" font-size="11" lengthAdjust="spacing" textLength="11" x="213.2122" y="391.4736">&#21542;</text><rect fill="#F1F1F1" height="35.0938" rx="12.5" ry="12.5" style="stroke:#181818;stroke-width:0.5;" width="108.7051" x="41.3875" y="415.8906"/><text fill="#000000" font-family="sans-serif" font-size="12" lengthAdjust="spacing" textLength="88.7051" x="51.3875" y="438.3477">&#21551;&#29992; BarPipeline</text><rect fill="#F1F1F1" height="35.0938" rx="12.5" ry="12.5" style="stroke:#181818;stroke-width:0.5;" width="92" x="177.2122" y="415.8906"/><text fill="#000000" font-family="sans-serif" font-size="12" lengthAdjust="spacing" textLength="72" x="187.2122" y="438.3477">&#20351;&#29992;&#30452;&#36890;&#27169;&#24335;</text><polygon fill="#F1F1F1" points="159.4761,456.9844,171.4761,468.9844,159.4761,480.9844,147.4761,468.9844,159.4761,456.9844" style="stroke:#181818;stroke-width:0.5;"/><polygon fill="#F1F1F1" points="128.595,500.9844,190.3572,500.9844,202.3572,512.9844,190.3572,524.9844,128.595,524.9844,116.595,512.9844,128.595,500.9844" style="stroke:#181818;stroke-width:0.5;"/><text fill="#000000" font-family="sans-serif" font-size="11" lengthAdjust="spacing" textLength="61.7622" x="128.595" y="517.4854">backtesting?</text><text fill="#000000" font-family="sans-serif" font-size="11" lengthAdjust="spacing" textLength="11" x="105.595" y="510.5674">&#26159;</text><text fill="#000000" font-family="sans-serif" font-size="11" lengthAdjust="spacing" textLength="11" x="202.3572" y="510.5674">&#21542;</text><rect fill="#F1F1F1" height="35.0938" rx="12.5" ry="12.5" style="stroke:#181818;stroke-width:0.5;" width="102.0137" x="43.5469" y="534.9844"/><text fill="#000000" font-family="sans-serif" font-size="12" lengthAdjust="spacing" textLength="82.0137" x="53.5469" y="557.4414">&#36208;&#22238;&#27979; warmup</text><rect fill="#F1F1F1" height="35.0938" rx="12.5" ry="12.5" style="stroke:#181818;stroke-width:0.5;" width="117.6758" x="165.5605" y="534.9844"/><text fill="#000000" font-family="sans-serif" font-size="12" lengthAdjust="spacing" textLength="97.6758" x="175.5605" y="557.4414">&#36208;&#23454;&#30424;&#24674;&#22797; + &#22238;&#25918;</text><polygon fill="#F1F1F1" points="159.4761,576.0781,171.4761,588.0781,159.4761,600.0781,147.4761,588.0781,159.4761,576.0781" style="stroke:#181818;stroke-width:0.5;"/><ellipse cx="159.4761" cy="631.0781" fill="none" rx="11" ry="11" style="stroke:#222222;stroke-width:1;"/><ellipse cx="159.4761" cy="631.0781" fill="#222222" rx="6" ry="6" style="stroke:#222222;stroke-width:1;"/><line style="stroke:#181818;stroke-width:1;" x1="159.4761" x2="159.4761" y1="68.6094" y2="88.6094"/><polygon fill="#181818" points="155.4761,78.6094,159.4761,88.6094,163.4761,78.6094,159.4761,82.6094" style="stroke:#181818;stroke-width:1;"/><line style="stroke:#181818;stroke-width:1;" x1="79" x2="69" y1="155.7031" y2="155.7031"/><line style="stroke:#181818;stroke-width:1;" x1="69" x2="69" y1="155.7031" y2="177.7031"/><polygon fill="#181818" points="65,167.7031,69,177.7031,73,167.7031,69,171.7031" style="stroke:#181818;stroke-width:1;"/><line style="stroke:#181818;stroke-width:1;" x1="239.9521" x2="249.9521" y1="155.7031" y2="155.7031"/><line style="stroke:#181818;stroke-width:1;" x1="249.9521" x2="249.9521" y1="155.7031" y2="177.7031"/><polygon fill="#181818" points="245.9521,167.7031,249.9521,177.7031,253.9521,167.7031,249.9521,171.7031" style="stroke:#181818;stroke-width:1;"/><line style="stroke:#181818;stroke-width:1;" x1="69" x2="69" y1="212.7969" y2="230.7969"/><line style="stroke:#181818;stroke-width:1;" x1="69" x2="147.4761" y1="230.7969" y2="230.7969"/><polygon fill="#181818" points="137.4761,226.7969,147.4761,230.7969,137.4761,234.7969,141.4761,230.7969" style="stroke:#181818;stroke-width:1;"/><line style="stroke:#181818;stroke-width:1;" x1="249.9521" x2="249.9521" y1="212.7969" y2="230.7969"/><line style="stroke:#181818;stroke-width:1;" x1="249.9521" x2="171.4761" y1="230.7969" y2="230.7969"/><polygon fill="#181818" points="181.4761,226.7969,171.4761,230.7969,181.4761,234.7969,177.4761,230.7969" style="stroke:#181818;stroke-width:1;"/><line style="stroke:#181818;stroke-width:1;" x1="159.4761" x2="159.4761" y1="123.7031" y2="143.7031"/><polygon fill="#181818" points="155.4761,133.7031,159.4761,143.7031,163.4761,133.7031,159.4761,137.7031" style="stroke:#181818;stroke-width:1;"/><line style="stroke:#181818;stroke-width:1;" x1="90.623" x2="80.623" y1="274.7969" y2="274.7969"/><line style="stroke:#181818;stroke-width:1;" x1="80.623" x2="80.623" y1="274.7969" y2="296.7969"/><polygon fill="#181818" points="76.623,286.7969,80.623,296.7969,84.623,286.7969,80.623,290.7969" style="stroke:#181818;stroke-width:1;"/><line style="stroke:#181818;stroke-width:1;" x1="228.3291" x2="238.3291" y1="274.7969" y2="274.7969"/><line style="stroke:#181818;stroke-width:1;" x1="238.3291" x2="238.3291" y1="274.7969" y2="296.7969"/><polygon fill="#181818" points="234.3291,286.7969,238.3291,296.7969,242.3291,286.7969,238.3291,290.7969" style="stroke:#181818;stroke-width:1;"/><line style="stroke:#181818;stroke-width:1;" x1="80.623" x2="80.623" y1="331.8906" y2="349.8906"/><line style="stroke:#181818;stroke-width:1;" x1="80.623" x2="147.4761" y1="349.8906" y2="349.8906"/><polygon fill="#181818" points="137.4761,345.8906,147.4761,349.8906,137.4761,353.8906,141.4761,349.8906" style="stroke:#181818;stroke-width:1;"/><line style="stroke:#181818;stroke-width:1;" x1="238.3291" x2="238.3291" y1="331.8906" y2="349.8906"/><line style="stroke:#181818;stroke-width:1;" x1="238.3291" x2="171.4761" y1="349.8906" y2="349.8906"/><polygon fill="#181818" points="181.4761,345.8906,171.4761,349.8906,181.4761,353.8906,177.4761,349.8906" style="stroke:#181818;stroke-width:1;"/><line style="stroke:#181818;stroke-width:1;" x1="159.4761" x2="159.4761" y1="242.7969" y2="262.7969"/><polygon fill="#181818" points="155.4761,252.7969,159.4761,262.7969,163.4761,252.7969,159.4761,256.7969" style="stroke:#181818;stroke-width:1;"/><line style="stroke:#181818;stroke-width:1;" x1="105.74" x2="95.74" y1="393.8906" y2="393.8906"/><line style="stroke:#181818;stroke-width:1;" x1="95.74" x2="95.74" y1="393.8906" y2="415.8906"/><polygon fill="#181818" points="91.74,405.8906,95.74,415.8906,99.74,405.8906,95.74,409.8906" style="stroke:#181818;stroke-width:1;"/><line style="stroke:#181818;stroke-width:1;" x1="213.2122" x2="223.2122" y1="393.8906" y2="393.8906"/><line style="stroke:#181818;stroke-width:1;" x1="223.2122" x2="223.2122" y1="393.8906" y2="415.8906"/><polygon fill="#181818" points="219.2122,405.8906,223.2122,415.8906,227.2122,405.8906,223.2122,409.8906" style="stroke:#181818;stroke-width:1;"/><line style="stroke:#181818;stroke-width:1;" x1="95.74" x2="95.74" y1="450.9844" y2="468.9844"/><line style="stroke:#181818;stroke-width:1;" x1="95.74" x2="147.4761" y1="468.9844" y2="468.9844"/><polygon fill="#181818" points="137.4761,464.9844,147.4761,468.9844,137.4761,472.9844,141.4761,468.9844" style="stroke:#181818;stroke-width:1;"/><line style="stroke:#181818;stroke-width:1;" x1="223.2122" x2="223.2122" y1="450.9844" y2="468.9844"/><line style="stroke:#181818;stroke-width:1;" x1="223.2122" x2="171.4761" y1="468.9844" y2="468.9844"/><polygon fill="#181818" points="181.4761,464.9844,171.4761,468.9844,181.4761,472.9844,177.4761,468.9844" style="stroke:#181818;stroke-width:1;"/><line style="stroke:#181818;stroke-width:1;" x1="159.4761" x2="159.4761" y1="361.8906" y2="381.8906"/><polygon fill="#181818" points="155.4761,371.8906,159.4761,381.8906,163.4761,371.8906,159.4761,375.8906" style="stroke:#181818;stroke-width:1;"/><line style="stroke:#181818;stroke-width:1;" x1="116.595" x2="94.5537" y1="512.9844" y2="512.9844"/><line style="stroke:#181818;stroke-width:1;" x1="94.5537" x2="94.5537" y1="512.9844" y2="534.9844"/><polygon fill="#181818" points="90.5537,524.9844,94.5537,534.9844,98.5537,524.9844,94.5537,528.9844" style="stroke:#181818;stroke-width:1;"/><line style="stroke:#181818;stroke-width:1;" x1="202.3572" x2="224.3984" y1="512.9844" y2="512.9844"/><line style="stroke:#181818;stroke-width:1;" x1="224.3984" x2="224.3984" y1="512.9844" y2="534.9844"/><polygon fill="#181818" points="220.3984,524.9844,224.3984,534.9844,228.3984,524.9844,224.3984,528.9844" style="stroke:#181818;stroke-width:1;"/><line style="stroke:#181818;stroke-width:1;" x1="94.5537" x2="94.5537" y1="570.0781" y2="588.0781"/><line style="stroke:#181818;stroke-width:1;" x1="94.5537" x2="147.4761" y1="588.0781" y2="588.0781"/><polygon fill="#181818" points="137.4761,584.0781,147.4761,588.0781,137.4761,592.0781,141.4761,588.0781" style="stroke:#181818;stroke-width:1;"/><line style="stroke:#181818;stroke-width:1;" x1="224.3984" x2="224.3984" y1="570.0781" y2="588.0781"/><line style="stroke:#181818;stroke-width:1;" x1="224.3984" x2="171.4761" y1="588.0781" y2="588.0781"/><polygon fill="#181818" points="181.4761,584.0781,171.4761,588.0781,181.4761,592.0781,177.4761,588.0781" style="stroke:#181818;stroke-width:1;"/><line style="stroke:#181818;stroke-width:1;" x1="159.4761" x2="159.4761" y1="480.9844" y2="500.9844"/><polygon fill="#181818" points="155.4761,490.9844,159.4761,500.9844,163.4761,490.9844,159.4761,494.9844" style="stroke:#181818;stroke-width:1;"/><line style="stroke:#181818;stroke-width:1;" x1="159.4761" x2="159.4761" y1="600.0781" y2="620.0781"/><polygon fill="#181818" points="155.4761,610.0781,159.4761,620.0781,163.4761,610.0781,159.4761,614.0781" style="stroke:#181818;stroke-width:1;"/><?plantuml-src RP3DQi9G48NtUOfPAgK_QqjRw1Fq3IJgZRqq9Y6v8jtfmY8j_a4emOYseYMRHcah5cpiopWtoLiq6YpKT3dCcVETCumocO1l3h7hOTVX_I4k9cklp-SrE0Hit75pYeqnkZsqLuB1H9q96Rn_2Znl_RaCwqtVSqy5Aa7AOBh8IF4sAvLbEPjN5OaM0HTl_Dt1-kGY3UoQA93YrZGj06Hy-uEt8jAtRpgnP6T6P8D02ZilMzrwsOBOxFYN4Cz7J2t944oNs7wChfG2bOGuIJbdv7MgCQegiGXVBUmxYGnnZy0TXLRzVphQWx1QnSOCY2BcP58uayH8y0UN4_LiXIe5jGBdS9A4TAPHHRWKzIkg4Pag955n-uJe8M6rnvrd_6hl-UTl634OLOe9ys0-YoBo-GDKHBrKrlQjDtjtuDiMhurmt8G3sCZDrGvWC5Nx0G00?></g></svg>