<?plantuml 1.2026.2?><svg xmlns="http://www.w3.org/2000/svg" xmlns:xlink="http://www.w3.org/1999/xlink" contentStyleType="text/css" data-diagram-type="ACTIVITY" height="876px" preserveAspectRatio="none" style="width:330px;height:876px;background:#FFFFFF;" version="1.1" viewBox="0 0 330 876" width="330px" zoomAndPan="magnify"><title>&#29983;&#21629;&#21608;&#26399;&#24037;&#20316;&#27969; - &#27963;&#21160;&#22270;</title><defs/><g><g class="title" data-source-line="1"><text fill="#000000" font-family="sans-serif" font-size="14" font-weight="bold" lengthAdjust="spacing" textLength="156.8164" x="85.46" y="34.5332">&#29983;&#21629;&#21608;&#26399;&#24037;&#20316;&#27969; - &#27963;&#21160;&#22270;</text></g><ellipse cx="151.5298" cy="58.6094" fill="#222222" rx="10" ry="10" style="stroke:#222222;stroke-width:1;"/><rect fill="#F1F1F1" height="35.0938" rx="12.5" ry="12.5" style="stroke:#181818;stroke-width:0.5;" width="104" x="99.5298" y="88.6094"/><text fill="#000000" font-family="sans-serif" font-size="12" lengthAdjust="spacing" textLength="84" x="109.5298" y="111.0664">&#35760;&#24405;&#21021;&#22987;&#21270;&#26085;&#24535;</text><rect fill="#F1F1F1" height="35.0938" rx="12.5" ry="12.5" style="stroke:#181818;stroke-width:0.5;" width="230.7676" x="36.146" y="143.7031"/><text fill="#000000" font-family="sans-serif" font-size="12" lengthAdjust="spacing" textLength="210.7676" x="46.146" y="166.1602">&#35835;&#21462; target_products &#19982; strategy_config</text><rect fill="#F1F1F1" height="35.0938" rx="12.5" ry="12.5" style="stroke:#181818;stroke-width:0.5;" width="150.0605" x="76.4995" y="198.7969"/><text fill="#000000" font-family="sans-serif" font-size="12" lengthAdjust="spacing" textLength="130.0605" x="86.4995" y="221.2539">&#21152;&#36733; subscription_config</text><rect fill="#F1F1F1" height="35.0938" rx="12.5" ry="12.5" style="stroke:#181818;stroke-width:0.5;" width="104" x="99.5298" y="253.8906"/><text fill="#000000" font-family="sans-serif" font-size="12" lengthAdjust="spacing" textLength="84" x="109.5298" y="276.3477">&#21021;&#22987;&#21270;&#35746;&#38405;&#31649;&#29702;</text><rect fill="#F1F1F1" height="50.1875" rx="12.5" ry="12.5" style="stroke:#181818;stroke-width:0.5;" width="209.3926" x="46.8335" y="308.9844"/><text fill="#000000" font-family="sans-serif" font-size="12" lengthAdjust="spacing" textLength="120.7148" x="56.8335" y="331.4414">&#26500;&#24314; indicator / signal /</text><text fill="#000000" font-family="sans-serif" font-size="12" lengthAdjust="spacing" textLength="189.3926" x="56.8335" y="346.5352">selection / pricing / risk / sizing &#26381;&#21153;</text><rect fill="#F1F1F1" height="50.1875" rx="12.5" ry="12.5" style="stroke:#181818;stroke-width:0.5;" width="203.4277" x="49.8159" y="379.1719"/><text fill="#000000" font-family="sans-serif" font-size="12" lengthAdjust="spacing" textLength="154.7461" x="59.8159" y="401.6289">&#21021;&#22987;&#21270; aggregate / gateway /</text><text fill="#000000" font-family="sans-serif" font-size="12" lengthAdjust="spacing" textLength="183.4277" x="59.8159" y="416.7227">persistence / monitor / bar pipeline</text><rect fill="#F1F1F1" height="35.0938" rx="12.5" ry="12.5" style="stroke:#181818;stroke-width:0.5;" width="92" x="105.5298" y="449.3594"/><text fill="#000000" font-family="sans-serif" font-size="12" lengthAdjust="spacing" textLength="72" x="115.5298" y="471.8164">&#35760;&#24405;&#21021;&#22987;&#24555;&#29031;</text><polygon fill="#F1F1F1" points="115.4709,504.4531,187.5886,504.4531,199.5886,516.4531,187.5886,528.4531,115.4709,528.4531,103.4709,516.4531,115.4709,504.4531" style="stroke:#181818;stroke-width:0.5;"/><text fill="#000000" font-family="sans-serif" font-size="11" lengthAdjust="spacing" textLength="72.1177" x="115.4709" y="520.9541">&#26159;&#21542;&#22238;&#27979;&#27169;&#24335;?</text><text fill="#000000" font-family="sans-serif" font-size="11" lengthAdjust="spacing" textLength="11" x="92.4709" y="514.0361">&#26159;</text><text fill="#000000" font-family="sans-serif" font-size="11" lengthAdjust="spacing" textLength="11" x="199.5886" y="514.0361">&#21542;</text><rect fill="#F1F1F1" height="35.0938" rx="12.5" ry="12.5" style="stroke:#181818;stroke-width:0.5;" width="92" x="23.3457" y="538.4531"/><text fill="#000000" font-family="sans-serif" font-size="12" lengthAdjust="spacing" textLength="72" x="33.3457" y="560.9102">&#20851;&#38381;&#20132;&#26131;&#24320;&#20851;</text><rect fill="#F1F1F1" height="35.0938" rx="12.5" ry="12.5" style="stroke:#181818;stroke-width:0.5;" width="116.6914" x="11" y="593.5469"/><text fill="#000000" font-family="sans-serif" font-size="12" lengthAdjust="spacing" textLength="96.6914" x="21" y="616.0039">&#21152;&#36733; warmup bars</text><rect fill="#F1F1F1" height="35.0938" rx="12.5" ry="12.5" style="stroke:#181818;stroke-width:0.5;" width="172.0449" x="147.6914" y="538.4531"/><text fill="#000000" font-family="sans-serif" font-size="12" lengthAdjust="spacing" textLength="152.0449" x="157.6914" y="560.9102">&#20174; StateRepository &#24674;&#22797;&#24555;&#29031;</text><rect fill="#F1F1F1" height="35.0938" rx="12.5" ry="12.5" style="stroke:#181818;stroke-width:0.5;" width="170.0059" x="148.7109" y="593.5469"/><text fill="#000000" font-family="sans-serif" font-size="12" lengthAdjust="spacing" textLength="150.0059" x="158.7109" y="616.0039">&#21516;&#27493; OMS &#25345;&#20179; / &#22996;&#25176; / &#25104;&#20132;</text><rect fill="#F1F1F1" height="35.0938" rx="12.5" ry="12.5" style="stroke:#181818;stroke-width:0.5;" width="92.6914" x="187.3682" y="648.6406"/><text fill="#000000" font-family="sans-serif" font-size="12" lengthAdjust="spacing" textLength="72.6914" x="197.3682" y="671.0977">&#26657;&#39564; universe</text><rect fill="#F1F1F1" height="35.0938" rx="12.5" ry="12.5" style="stroke:#181818;stroke-width:0.5;" width="122.0117" x="172.708" y="703.7344"/><text fill="#000000" font-family="sans-serif" font-size="12" lengthAdjust="spacing" textLength="102.0117" x="182.708" y="726.1914">&#22238;&#25918;&#21382;&#21490; bars &#39044;&#28909;</text><polygon fill="#F1F1F1" points="151.5298,744.8281,163.5298,756.8281,151.5298,768.8281,139.5298,756.8281,151.5298,744.8281" style="stroke:#181818;stroke-width:0.5;"/><rect fill="#F1F1F1" height="35.0938" rx="12.5" ry="12.5" style="stroke:#181818;stroke-width:0.5;" width="92" x="105.5298" y="788.8281"/><text fill="#000000" font-family="sans-serif" font-size="12" lengthAdjust="spacing" textLength="72" x="115.5298" y="811.2852">&#27880;&#20876;&#39134;&#20070;&#21578;&#35686;</text><ellipse cx="151.5298" cy="854.9219" fill="none" rx="11" ry="11" style="stroke:#222222;stroke-width:1;"/><ellipse cx="151.5298" cy="854.9219" fill="#222222" rx="6" ry="6" style="stroke:#222222;stroke-width:1;"/><line style="stroke:#181818;stroke-width:1;" x1="151.5298" x2="151.5298" y1="68.6094" y2="88.6094"/><polygon fill="#181818" points="147.5298,78.6094,151.5298,88.6094,155.5298,78.6094,151.5298,82.6094" style="stroke:#181818;stroke-width:1;"/><line style="stroke:#181818;stroke-width:1;" x1="151.5298" x2="151.5298" y1="123.7031" y2="143.7031"/><polygon fill="#181818" points="147.5298,133.7031,151.5298,143.7031,155.5298,133.7031,151.5298,137.7031" style="stroke:#181818;stroke-width:1;"/><line style="stroke:#181818;stroke-width:1;" x1="151.5298" x2="151.5298" y1="178.7969" y2="198.7969"/><polygon fill="#181818" points="147.5298,188.7969,151.5298,198.7969,155.5298,188.7969,151.5298,192.7969" style="stroke:#181818;stroke-width:1;"/><line style="stroke:#181818;stroke-width:1;" x1="151.5298" x2="151.5298" y1="233.8906" y2="253.8906"/><polygon fill="#181818" points="147.5298,243.8906,151.5298,253.8906,155.5298,243.8906,151.5298,247.8906" style="stroke:#181818;stroke-width:1;"/><line style="stroke:#181818;stroke-width:1;" x1="151.5298" x2="151.5298" y1="288.9844" y2="308.9844"/><polygon fill="#181818" points="147.5298,298.9844,151.5298,308.9844,155.5298,298.9844,151.5298,302.9844" style="stroke:#181818;stroke-width:1;"/><line style="stroke:#181818;stroke-width:1;" x1="151.5298" x2="151.5298" y1="359.1719" y2="379.1719"/><polygon fill="#181818" points="147.5298,369.1719,151.5298,379.1719,155.5298,369.1719,151.5298,373.1719" style="stroke:#181818;stroke-width:1;"/><line style="stroke:#181818;stroke-width:1;" x1="151.5298" x2="151.5298" y1="429.3594" y2="449.3594"/><polygon fill="#181818" points="147.5298,439.3594,151.5298,449.3594,155.5298,439.3594,151.5298,443.3594" style="stroke:#181818;stroke-width:1;"/><line style="stroke:#181818;stroke-width:1;" x1="69.3457" x2="69.3457" y1="573.5469" y2="593.5469"/><polygon fill="#181818" points="65.3457,583.5469,69.3457,593.5469,73.3457,583.5469,69.3457,587.5469" style="stroke:#181818;stroke-width:1;"/><line style="stroke:#181818;stroke-width:1;" x1="233.7139" x2="233.7139" y1="573.5469" y2="593.5469"/><polygon fill="#181818" points="229.7139,583.5469,233.7139,593.5469,237.7139,583.5469,233.7139,587.5469" style="stroke:#181818;stroke-width:1;"/><line style="stroke:#181818;stroke-width:1;" x1="233.7139" x2="233.7139" y1="628.6406" y2="648.6406"/><polygon fill="#181818" points="229.7139,638.6406,233.7139,648.6406,237.7139,638.6406,233.7139,642.6406" style="stroke:#181818;stroke-width:1;"/><line style="stroke:#181818;stroke-width:1;" x1="233.7139" x2="233.7139" y1="683.7344" y2="703.7344"/><polygon fill="#181818" points="229.7139,693.7344,233.7139,703.7344,237.7139,693.7344,233.7139,697.7344" style="stroke:#181818;stroke-width:1;"/><line style="stroke:#181818;stroke-width:1;" x1="103.4709" x2="69.3457" y1="516.4531" y2="516.4531"/><line style="stroke:#181818;stroke-width:1;" x1="69.3457" x2="69.3457" y1="516.4531" y2="538.4531"/><polygon fill="#181818" points="65.3457,528.4531,69.3457,538.4531,73.3457,528.4531,69.3457,532.4531" style="stroke:#181818;stroke-width:1;"/><line style="stroke:#181818;stroke-width:1;" x1="199.5886" x2="233.7139" y1="516.4531" y2="516.4531"/><line style="stroke:#181818;stroke-width:1;" x1="233.7139" x2="233.7139" y1="516.4531" y2="538.4531"/><polygon fill="#181818" points="229.7139,528.4531,233.7139,538.4531,237.7139,528.4531,233.7139,532.4531" style="stroke:#181818;stroke-width:1;"/><line style="stroke:#181818;stroke-width:1;" x1="69.3457" x2="69.3457" y1="628.6406" y2="756.8281"/><line style="stroke:#181818;stroke-width:1;" x1="69.3457" x2="139.5298" y1="756.8281" y2="756.8281"/><polygon fill="#181818" points="129.5298,752.8281,139.5298,756.8281,129.5298,760.8281,133.5298,756.8281" style="stroke:#181818;stroke-width:1;"/><line style="stroke:#181818;stroke-width:1;" x1="233.7139" x2="233.7139" y1="738.8281" y2="756.8281"/><line style="stroke:#181818;stroke-width:1;" x1="233.7139" x2="163.5298" y1="756.8281" y2="756.8281"/><polygon fill="#181818" points="173.5298,752.8281,163.5298,756.8281,173.5298,760.8281,169.5298,756.8281" style="stroke:#181818;stroke-width:1;"/><line style="stroke:#181818;stroke-width:1;" x1="151.5298" x2="151.5298" y1="484.4531" y2="504.4531"/><polygon fill="#181818" points="147.5298,494.4531,151.5298,504.4531,155.5298,494.4531,151.5298,498.4531" style="stroke:#181818;stroke-width:1;"/><line style="stroke:#181818;stroke-width:1;" x1="151.5298" x2="151.5298" y1="768.8281" y2="788.8281"/><polygon fill="#181818" points="147.5298,778.8281,151.5298,788.8281,155.5298,778.8281,151.5298,782.8281" style="stroke:#181818;stroke-width:1;"/><line style="stroke:#181818;stroke-width:1;" x1="151.5298" x2="151.5298" y1="823.9219" y2="843.9219"/><polygon fill="#181818" points="147.5298,833.9219,151.5298,843.9219,155.5298,833.9219,151.5298,837.9219" style="stroke:#181818;stroke-width:1;"/><?plantuml-src NLBBJjj05DtxA-uI5XLxlEWNL9NAjX8oPkAE6iRMpAGeNJKgYMW8UOYKH28D92KFjKgeIb5RZE5dVCV9N_JQ4HBgQkxZt7FEt1dDTPv1qZx7LeIjgUcTu-zH7FNCJGcUWVaLOdMAP_UMqexKrkPY_WEZptZu1IT7M3irdH4-T6ogNuNOE0K2UKnl1zBVBRXQGVod3afBHpElkEtw8iSz0cFrOX55e0exofKyqDmNJvgFt8lvSDaj9_D1qgnGtVGFCBm5BdQvwsXVmWOexWad3nklXM9vvgOyL0qaTxdmA99SlSrWxzFSz8wnEdYg08xdIUQHEqAbnxvJJDa29XLNcWatRUpvWg_qTXm90GzOdWjc_xUBX-z9UM9R5i_1ckbUONECPtrpSsIc0xnhF5y7_OQ9hBLk0MnY-NhPcSMtbwPxWdSVABMpycep-uxSAmIfdh8jbbSCreWm6up3EcnfylgA1RvAZHN1b8PuUVne8QLfrini12zVR86fbUBmXCpZf6q-TIamXqtIpN3cOh3yLeE2uE_eocmrIxRRzrYlOEDdvW2MmuFauuoCqEfp5ht4zHGhjUNNVlntZAtgOZQswNlumJy0?></g></svg>