<?plantuml 1.2026.2?><svg xmlns="http://www.w3.org/2000/svg" xmlns:xlink="http://www.w3.org/1999/xlink" contentStyleType="text/css" data-diagram-type="DESCRIPTION" height="222px" preserveAspectRatio="none" style="width:1446px;height:222px;background:#FFFFFF;" version="1.1" viewBox="0 0 1446 222" width="1446px" zoomAndPan="magnify"><title>&#29983;&#21629;&#21608;&#26399;&#24037;&#20316;&#27969; - &#26550;&#26500;&#22270;</title><defs/><g><g class="title" data-source-line="1"><text fill="#000000" font-family="sans-serif" font-size="14" font-weight="bold" lengthAdjust="spacing" textLength="156.8164" x="637.8452" y="24.5332">&#29983;&#21629;&#21608;&#26399;&#24037;&#20316;&#27969; - &#26550;&#26500;&#22270;</text></g><!--entity Workflow--><g class="entity" data-qualified-name="Workflow" data-source-line="5" id="ent0002"><rect fill="#F1F1F1" height="37.6094" rx="2.5" ry="2.5" style="stroke:#181818;stroke-width:0.5;" width="132.0273" x="616" y="45.6094"/><text fill="#000000" font-family="sans-serif" font-size="14" lengthAdjust="spacing" textLength="112.0273" x="626" y="70.1426">LifecycleWorkflow</text></g><!--entity Config--><g class="entity" data-qualified-name="Config" data-source-line="6" id="ent0003"><rect fill="#F1F1F1" height="37.6094" rx="2.5" ry="2.5" style="stroke:#181818;stroke-width:0.5;" width="104.0615" x="7" y="170.1094"/><text fill="#000000" font-family="sans-serif" font-size="14" lengthAdjust="spacing" textLength="84.0615" x="17" y="194.6426">ConfigLoader</text></g><!--entity Subscription--><g class="entity" data-qualified-name="Subscription" data-source-line="7" id="ent0004"><rect fill="#F1F1F1" height="37.6094" rx="2.5" ry="2.5" style="stroke:#181818;stroke-width:0.5;" width="90" x="146" y="170.1094"/><text fill="#000000" font-family="sans-serif" font-size="14" lengthAdjust="spacing" textLength="70" x="156" y="194.6426">&#35746;&#38405;&#21021;&#22987;&#21270;</text></g><!--entity SignalServices--><g class="entity" data-qualified-name="SignalServices" data-source-line="8" id="ent0005"><rect fill="#F1F1F1" height="37.6094" rx="2.5" ry="2.5" style="stroke:#181818;stroke-width:0.5;" width="115.6689" x="271" y="170.1094"/><text fill="#000000" font-family="sans-serif" font-size="14" lengthAdjust="spacing" textLength="95.6689" x="281" y="194.6426">&#25351;&#26631; / &#20449;&#21495;&#26381;&#21153;</text></g><!--entity DecisionServices--><g class="entity" data-qualified-name="DecisionServices" data-source-line="9" id="ent0006"><rect fill="#F1F1F1" height="55.2188" rx="2.5" ry="2.5" style="stroke:#181818;stroke-width:0.5;" width="135.1172" x="422.5" y="161.6094"/><text fill="#000000" font-family="sans-serif" font-size="14" lengthAdjust="spacing" textLength="115.1172" x="432.5" y="186.1426">&#36873;&#32422; / &#23450;&#20215; / &#39118;&#25511; /</text><text fill="#000000" font-family="sans-serif" font-size="14" lengthAdjust="spacing" textLength="56" x="432.5" y="203.752">&#20179;&#20301;&#26381;&#21153;</text></g><!--entity Aggregates--><g class="entity" data-qualified-name="Aggregates" data-source-line="10" id="ent0007"><rect fill="#F1F1F1" height="37.6094" rx="2.5" ry="2.5" style="stroke:#181818;stroke-width:0.5;" width="62" x="593" y="170.1094"/><text fill="#000000" font-family="sans-serif" font-size="14" lengthAdjust="spacing" textLength="42" x="603" y="194.6426">&#32858;&#21512;&#26681;</text></g><!--entity Gateways--><g class="entity" data-qualified-name="Gateways" data-source-line="11" id="ent0008"><rect fill="#F1F1F1" height="37.6094" rx="2.5" ry="2.5" style="stroke:#181818;stroke-width:0.5;" width="93.1377" x="692.5" y="170.1094"/><text fill="#000000" font-family="sans-serif" font-size="14" lengthAdjust="spacing" textLength="73.1377" x="702.5" y="194.6426">Gateway &#32452;</text></g><!--entity Persistence--><g class="entity" data-qualified-name="Persistence" data-source-line="12" id="ent0009"><rect fill="#F1F1F1" height="37.6094" rx="2.5" ry="2.5" style="stroke:#181818;stroke-width:0.5;" width="101.6689" x="821" y="170.1094"/><text fill="#000000" font-family="sans-serif" font-size="14" lengthAdjust="spacing" textLength="81.6689" x="831" y="194.6426">&#25345;&#20037;&#21270; / &#30417;&#25511;</text></g><!--entity BarPipeline--><g class="entity" data-qualified-name="BarPipeline" data-source-line="13" id="ent0010"><rect fill="#F1F1F1" height="37.6094" rx="2.5" ry="2.5" style="stroke:#181818;stroke-width:0.5;" width="91.5996" x="1029" y="170.1094"/><text fill="#000000" font-family="sans-serif" font-size="14" lengthAdjust="spacing" textLength="71.5996" x="1039" y="194.6426">BarPipeline</text></g><!--entity Alert--><g class="entity" data-qualified-name="Alert" data-source-line="14" id="ent0011"><rect fill="#F1F1F1" height="37.6094" rx="2.5" ry="2.5" style="stroke:#181818;stroke-width:0.5;" width="93.9102" x="1156" y="170.1094"/><text fill="#000000" font-family="sans-serif" font-size="14" lengthAdjust="spacing" textLength="73.9102" x="1166" y="194.6426">Feishu &#21578;&#35686;</text></g><!--entity Recovery--><g class="entity" data-qualified-name="Recovery" data-source-line="15" id="ent0012"><rect fill="#F1F1F1" height="37.6094" rx="2.5" ry="2.5" style="stroke:#181818;stroke-width:0.5;" width="139.0068" x="1301.5" y="170.1094"/><text fill="#000000" font-family="sans-serif" font-size="14" lengthAdjust="spacing" textLength="119.0068" x="1311.5" y="194.6426">History / OMS &#24674;&#22797;</text></g><!--link Workflow to Config--><g class="link" data-entity-1="ent0002" data-entity-2="ent0003" data-link-type="dependency" data-source-line="17" id="lnk13"><path d="M615.7,67.9094 C496.97,72.6794 253.01,85.6294 173,113.6094 C137.29,126.0994 106.3346,148.281 84.6546,166.011" fill="none" id="Workflow-to-Config" style="stroke:#181818;stroke-width:1;"/><polygon fill="#181818" points="80.01,169.8094,89.5092,167.2082,83.8805,166.6441,84.4447,161.0154,80.01,169.8094" style="stroke:#181818;stroke-width:1;"/><text fill="#000000" font-family="sans-serif" font-size="13" lengthAdjust="spacing" textLength="52" x="174" y="128.1045">&#35835;&#21462;&#37197;&#32622;</text></g><!--link Workflow to Subscription--><g class="link" data-entity-1="ent0002" data-entity-2="ent0004" data-link-type="dependency" data-source-line="18" id="lnk14"><path d="M615.65,67.4994 C512.63,71.3594 319.73,82.6094 259,113.6094 C234.04,126.3494 217.0423,147.2732 205.3123,164.9132" fill="none" id="Workflow-to-Subscription" style="stroke:#181818;stroke-width:1;"/><polygon fill="#181818" points="201.99,169.9094,210.3043,164.6299,204.7586,165.7459,203.6427,160.2002,201.99,169.9094" style="stroke:#181818;stroke-width:1;"/><text fill="#000000" font-family="sans-serif" font-size="13" lengthAdjust="spacing" textLength="91" x="260" y="128.1045">&#21021;&#22987;&#21270;&#35746;&#38405;&#27169;&#24335;</text></g><!--link Workflow to SignalServices--><g class="link" data-entity-1="ent0002" data-entity-2="ent0005" data-link-type="dependency" data-source-line="19" id="lnk15"><path d="M615.99,69.9194 C538.96,75.9894 417.26,89.1694 379,113.6094 C358.13,126.9394 346.3367,146.9709 338.5567,164.3909" fill="none" id="Workflow-to-SignalServices" style="stroke:#181818;stroke-width:1;"/><polygon fill="#181818" points="336.11,169.8694,343.4324,163.2829,338.149,165.304,336.1278,160.0205,336.11,169.8694" style="stroke:#181818;stroke-width:1;"/><text fill="#000000" font-family="sans-serif" font-size="13" lengthAdjust="spacing" textLength="104" x="380" y="128.1045">&#26500;&#24314;&#31574;&#30053;&#20869;&#26680;&#26381;&#21153;</text></g><!--link Workflow to DecisionServices--><g class="link" data-entity-1="ent0002" data-entity-2="ent0006" data-link-type="dependency" data-source-line="20" id="lnk16"><path d="M615.83,75.7494 C571.43,83.9194 518.36,96.8094 503,113.6094 C491.3,126.3994 488.3049,139.8101 488.0549,155.6101" fill="none" id="Workflow-to-DecisionServices" style="stroke:#181818;stroke-width:1;"/><polygon fill="#181818" points="487.96,161.6094,492.1019,152.6738,488.0391,156.61,484.1029,152.5472,487.96,161.6094" style="stroke:#181818;stroke-width:1;"/><text fill="#000000" font-family="sans-serif" font-size="13" lengthAdjust="spacing" textLength="104" x="504" y="128.1045">&#26500;&#24314;&#21487;&#36873;&#39046;&#22495;&#26381;&#21153;</text></g><!--link Workflow to Aggregates--><g class="link" data-entity-1="ent0002" data-entity-2="ent0007" data-link-type="dependency" data-source-line="21" id="lnk17"><path d="M648.53,83.6294 C637.69,91.3094 626.95,101.3694 621,113.6094 C612.41,131.3094 613.735,148.3998 617.325,164.1298" fill="none" id="Workflow-to-Aggregates" style="stroke:#181818;stroke-width:1;"/><polygon fill="#181818" points="618.66,169.9794,620.5572,160.315,617.5475,165.1047,612.7577,162.095,618.66,169.9794" style="stroke:#181818;stroke-width:1;"/><text fill="#000000" font-family="sans-serif" font-size="13" lengthAdjust="spacing" textLength="75.8354" x="622" y="128.1045">&#21021;&#22987;&#21270; / &#24674;&#22797;</text></g><!--link Workflow to Gateways--><g class="link" data-entity-1="ent0002" data-entity-2="ent0008" data-link-type="dependency" data-source-line="22" id="lnk18"><path d="M690.41,83.6894 C701.19,106.8494 717.2298,141.319 728.0198,164.519" fill="none" id="Workflow-to-Gateways" style="stroke:#181818;stroke-width:1;"/><polygon fill="#181818" points="730.55,169.9594,730.3816,160.112,728.4415,165.4257,723.1277,163.4856,730.55,169.9594" style="stroke:#181818;stroke-width:1;"/><text fill="#000000" font-family="sans-serif" font-size="13" lengthAdjust="spacing" textLength="78" x="714" y="128.1045">&#26500;&#24314;&#24066;&#22330;&#25509;&#20837;</text></g><!--link Workflow to Persistence--><g class="link" data-entity-1="ent0002" data-entity-2="ent0009" data-link-type="dependency" data-source-line="23" id="lnk19"><path d="M740.79,83.6494 C760.82,91.2394 782.75,101.2194 801,113.6094 C824.06,129.2694 841.6478,148.8114 854.7878,165.3514" fill="none" id="Workflow-to-Persistence" style="stroke:#181818;stroke-width:1;"/><polygon fill="#181818" points="858.52,170.0494,856.0536,160.5143,855.4098,166.1344,849.7897,165.4906,858.52,170.0494" style="stroke:#181818;stroke-width:1;"/><text fill="#000000" font-family="sans-serif" font-size="13" lengthAdjust="spacing" textLength="174.1099" x="824" y="128.1045">&#21019;&#24314;&#20179;&#20648;&#12289;autosave&#12289;monitor</text></g><!--link Workflow to BarPipeline--><g class="link" data-entity-1="ent0002" data-entity-2="ent0010" data-link-type="dependency" data-source-line="24" id="lnk20"><path d="M748.25,70.1394 C829.95,76.6294 963.38,90.4094 1007,113.6094 C1031.74,126.7694 1048.7669,147.6037 1060.5669,165.1137" fill="none" id="Workflow-to-BarPipeline" style="stroke:#181818;stroke-width:1;"/><polygon fill="#181818" points="1063.92,170.0894,1062.2075,160.3905,1061.1258,165.943,1055.5733,164.8613,1063.92,170.0894" style="stroke:#181818;stroke-width:1;"/><text fill="#000000" font-family="sans-serif" font-size="13" lengthAdjust="spacing" textLength="80.8945" x="1033" y="128.1045">&#26500;&#24314; K &#32447;&#32858;&#21512;</text></g><!--link Workflow to Alert--><g class="link" data-entity-1="ent0002" data-entity-2="ent0011" data-link-type="dependency" data-source-line="25" id="lnk21"><path d="M748.11,67.7894 C854.14,72.1194 1056.93,84.0694 1122,113.6094 C1149.84,126.2494 1170.7011,147.5616 1185.2911,165.2416" fill="none" id="Workflow-to-Alert" style="stroke:#181818;stroke-width:1;"/><polygon fill="#181818" points="1189.11,169.8694,1186.4668,160.3818,1185.9276,166.0129,1180.2965,165.4737,1189.11,169.8694" style="stroke:#181818;stroke-width:1;"/><text fill="#000000" font-family="sans-serif" font-size="13" lengthAdjust="spacing" textLength="127.8354" x="1151" y="128.1045">&#27880;&#20876; / &#27880;&#38144;&#20107;&#20214;&#22788;&#29702;&#22120;</text></g><!--link Workflow to Recovery--><g class="link" data-entity-1="ent0002" data-entity-2="ent0012" data-link-type="dependency" data-source-line="26" id="lnk22"><path d="M748.12,65.6094 C884.32,66.4394 1191.44,72.9394 1287,113.6094 C1315.88,125.8994 1337.7737,147.6281 1352.9237,165.4481" fill="none" id="Workflow-to-Recovery" style="stroke:#181818;stroke-width:1;"/><polygon fill="#181818" points="1356.81,170.0194,1354.028,160.5716,1353.5714,166.21,1347.933,165.7534,1356.81,170.0194" style="stroke:#181818;stroke-width:1;"/><text fill="#000000" font-family="sans-serif" font-size="13" lengthAdjust="spacing" textLength="117" x="1316" y="128.1045">&#22238;&#27979;&#39044;&#28909;&#25110;&#23454;&#30424;&#24674;&#22797;</text></g><?plantuml-src RPBBRjf058RtFCM8FSg-YqgzgAtKL8tAefjkfixWZ69iP1iGEqY1q70BIehIGBar96mWYoWXWT8yJ7t6-2qws86CKNOpu-y_Suw_CQcf46GVjw4sWzg0DTimxbkp9hlEe11YhHlMoaBZRy3OfMeCwpYAZ1syhIMfAgC8LWmYV96qQ4nJYMg6pHGlgXF9nAgia41WzGK5Dsc4I2b98PyrVJUYQCaWmWPQRWAh40g-qjG8bJSrl4rq5_8EH6G-wZadEIZyWeiYbEek5Ov_DIITnaoggIBBIlkiiuysa7NVXUgODSjmqFKIL5Qn4YPwWah443DE-hizEUSP69rQqp5VEByhh7A1DhwerlJ8cfM5Cg-9H0r-wLE5vfbJE2ompfrBlf1bdSZOz3Dl-K4Ifv0zpRhKmzxm3v6nxd9yLDwAtQZnLbnqY-W6DKoYIaIaNs9zYyQ8GbNYOi9UnDuGQkp44TGEviDphq65wAQ8lEFLDJt5R_tu8OnOfWTdPPVyH2GjGVHK8B1KY4AXvm-gq3Cqlvn2jUxaolPiv4T4JnnSIVISia4N_bJN4ZvFFBDuczE9FQpRF_gGpx7EhQV37rltiWf2zP8BTdfvQBUV2Zvg4llZ_y2RtmylRJrMlzs3veHL-f3h-r71bbkumMd-cc1ly2-TmN5JCt22y6LKKod_w_wmu71r5NgFxCczzyRMHbY8N71N0yYN5grV3PpZj3KfMjCREClQXtduEV1dbaeNlJLQxBhezBBsjo4hr67KiXidtlJ_0G00?></g></svg>