<?plantuml 1.2026.2?><svg xmlns="http://www.w3.org/2000/svg" xmlns:xlink="http://www.w3.org/1999/xlink" contentStyleType="text/css" data-diagram-type="ACTIVITY" height="872px" preserveAspectRatio="none" style="width:584px;height:872px;background:#FFFFFF;" version="1.1" viewBox="0 0 584 872" width="584px" zoomAndPan="magnify"><title>&#34892;&#24773;&#24037;&#20316;&#27969; - &#20998;&#25903;&#21028;&#23450;&#22270;</title><defs/><g><g class="title" data-source-line="1"><text fill="#000000" font-family="sans-serif" font-size="14" font-weight="bold" lengthAdjust="spacing" textLength="156.8164" x="212.3354" y="34.5332">&#34892;&#24773;&#24037;&#20316;&#27969; - &#20998;&#25903;&#21028;&#23450;&#22270;</text></g><ellipse cx="298.7676" cy="58.6094" fill="#222222" rx="10" ry="10" style="stroke:#222222;stroke-width:1;"/><rect fill="#F1F1F1" height="35.0938" rx="12.5" ry="12.5" style="stroke:#181818;stroke-width:0.5;" width="64.6777" x="266.4287" y="88.6094"/><text fill="#000000" font-family="sans-serif" font-size="12" lengthAdjust="spacing" textLength="44.6777" x="276.4287" y="111.0664">bar &#21040;&#36798;</text><rect fill="#F1F1F1" height="35.0938" rx="12.5" ry="12.5" style="stroke:#181818;stroke-width:0.5;" width="173.3867" x="212.0742" y="192.6211"/><text fill="#000000" font-family="sans-serif" font-size="12" lengthAdjust="spacing" textLength="153.3867" x="222.0742" y="215.0781">&#36339;&#36807; autosave / timer refresh</text><polygon fill="#F1F1F1" points="252.6191,143.7031,344.916,143.7031,356.916,155.7031,344.916,167.7031,252.6191,167.7031,240.6191,155.7031,252.6191,143.7031" style="stroke:#181818;stroke-width:0.5;"/><text fill="#000000" font-family="sans-serif" font-size="11" lengthAdjust="spacing" textLength="11" x="302.7676" y="179.1221">&#26159;</text><text fill="#000000" font-family="sans-serif" font-size="11" lengthAdjust="spacing" textLength="92.2969" x="252.6191" y="160.2041">&#26159;&#21542;&#22788;&#20110; warmup?</text><polygon fill="#F1F1F1" points="298.7676,247.7148,310.7676,259.7148,298.7676,271.7148,286.7676,259.7148,298.7676,247.7148" style="stroke:#181818;stroke-width:0.5;"/><rect fill="#F1F1F1" height="35.0938" rx="12.5" ry="12.5" style="stroke:#181818;stroke-width:0.5;" width="92" x="252.7676" y="340.6328"/><text fill="#000000" font-family="sans-serif" font-size="12" lengthAdjust="spacing" textLength="72" x="262.7676" y="363.0898">&#25191;&#34892;&#25442;&#26376;&#26816;&#26597;</text><polygon fill="#F1F1F1" points="203.0789,291.7148,394.4563,291.7148,406.4563,303.7148,394.4563,315.7148,203.0789,315.7148,191.0789,303.7148,203.0789,291.7148" style="stroke:#181818;stroke-width:0.5;"/><text fill="#000000" font-family="sans-serif" font-size="11" lengthAdjust="spacing" textLength="11" x="302.7676" y="327.1338">&#26159;</text><text fill="#000000" font-family="sans-serif" font-size="11" lengthAdjust="spacing" textLength="191.3774" x="203.0789" y="308.2158">14:50 &#19988;&#20855;&#22791; future_selection_service?</text><polygon fill="#F1F1F1" points="298.7676,395.7266,310.7676,407.7266,298.7676,419.7266,286.7676,407.7266,298.7676,395.7266" style="stroke:#181818;stroke-width:0.5;"/><rect fill="#F1F1F1" height="35.0938" rx="12.5" ry="12.5" style="stroke:#181818;stroke-width:0.5;" width="226.7246" x="185.4053" y="488.6445"/><text fill="#000000" font-family="sans-serif" font-size="12" lengthAdjust="spacing" textLength="206.7246" x="195.4053" y="511.1016">&#24320;&#20179;&#27969;&#31243;&#22312; option_chain &#38454;&#27573;&#25552;&#21069;&#32467;&#26463;</text><polygon fill="#F1F1F1" points="213.488,439.7266,384.0471,439.7266,396.0471,451.7266,384.0471,463.7266,213.488,463.7266,201.488,451.7266,213.488,439.7266" style="stroke:#181818;stroke-width:0.5;"/><text fill="#000000" font-family="sans-serif" font-size="11" lengthAdjust="spacing" textLength="11" x="302.7676" y="475.1455">&#26159;</text><text fill="#000000" font-family="sans-serif" font-size="11" lengthAdjust="spacing" textLength="170.5591" x="213.488" y="456.2275">option_chain &#21151;&#33021;&#20851;&#38381;&#25110;&#26500;&#24314;&#22833;&#36133;?</text><polygon fill="#F1F1F1" points="298.7676,543.7383,310.7676,555.7383,298.7676,567.7383,286.7676,555.7383,298.7676,543.7383" style="stroke:#181818;stroke-width:0.5;"/><polygon fill="#F1F1F1" points="32,587.7383,119.4414,587.7383,131.4414,599.7383,119.4414,611.7383,32,611.7383,20,599.7383,32,587.7383" style="stroke:#181818;stroke-width:0.5;"/><text fill="#000000" font-family="sans-serif" font-size="11" lengthAdjust="spacing" textLength="11" x="79.7207" y="623.1572">&#26159;</text><text fill="#000000" font-family="sans-serif" font-size="11" lengthAdjust="spacing" textLength="87.4414" x="32" y="604.2393">open signal &#32570;&#22833;?</text><rect fill="#F1F1F1" height="35.0938" rx="12.5" ry="12.5" style="stroke:#181818;stroke-width:0.5;" width="125.3457" x="13.0479" y="645.5742"/><text fill="#000000" font-family="sans-serif" font-size="12" lengthAdjust="spacing" textLength="105.3457" x="23.0479" y="668.0313">&#24320;&#20179; trace &#30452;&#25509;&#32467;&#26463;</text><polygon fill="#F1F1F1" points="194.7869,587.7383,269.3752,587.7383,281.3752,599.7383,269.3752,611.7383,194.7869,611.7383,182.7869,599.7383,194.7869,587.7383" style="stroke:#181818;stroke-width:0.5;"/><text fill="#000000" font-family="sans-serif" font-size="11" lengthAdjust="spacing" textLength="74.5884" x="194.7869" y="604.2393">selection &#22833;&#36133;?</text><rect fill="#F1F1F1" height="35.0938" rx="12.5" ry="12.5" style="stroke:#181818;stroke-width:0.5;" width="167.375" x="148.3936" y="631.7383"/><text fill="#000000" font-family="sans-serif" font-size="12" lengthAdjust="spacing" textLength="147.375" x="158.3936" y="654.1953">&#24320;&#20179; trace &#22312; selection &#32467;&#26463;</text><polygon fill="#F1F1F1" points="389.6934,587.7383,490.5625,587.7383,502.5625,599.7383,490.5625,611.7383,389.6934,611.7383,377.6934,599.7383,389.6934,587.7383" style="stroke:#181818;stroke-width:0.5;"/><text fill="#000000" font-family="sans-serif" font-size="11" lengthAdjust="spacing" textLength="100.8691" x="389.6934" y="604.2393">pricing / sizing &#32570;&#22833;?</text><rect fill="#F1F1F1" height="35.0938" rx="12.5" ry="12.5" style="stroke:#181818;stroke-width:0.5;" width="208.7188" x="335.7686" y="631.7383"/><text fill="#000000" font-family="sans-serif" font-size="12" lengthAdjust="spacing" textLength="188.7188" x="345.7686" y="654.1953">&#32487;&#32493;&#65292;&#20294;&#30456;&#20851; stage &#26631;&#35760;&#20026; skipped</text><polygon fill="#F1F1F1" points="254.4426,720.668,343.0925,720.668,355.0925,732.668,343.0925,744.668,254.4426,744.668,242.4426,732.668,254.4426,720.668" style="stroke:#181818;stroke-width:0.5;"/><text fill="#000000" font-family="sans-serif" font-size="11" lengthAdjust="spacing" textLength="88.6499" x="254.4426" y="737.1689">close signal &#32570;&#22833;?</text><text fill="#000000" font-family="sans-serif" font-size="11" lengthAdjust="spacing" textLength="11" x="231.4426" y="730.251">&#26159;</text><text fill="#000000" font-family="sans-serif" font-size="11" lengthAdjust="spacing" textLength="11" x="355.0925" y="730.251">&#21542;</text><rect fill="#F1F1F1" height="35.0938" rx="12.5" ry="12.5" style="stroke:#181818;stroke-width:0.5;" width="101.3457" x="181.7698" y="754.668"/><text fill="#000000" font-family="sans-serif" font-size="12" lengthAdjust="spacing" textLength="81.3457" x="191.7698" y="777.125">&#24179;&#20179; trace &#32467;&#26463;</text><rect fill="#F1F1F1" height="35.0938" rx="12.5" ry="12.5" style="stroke:#181818;stroke-width:0.5;" width="101.3691" x="314.408" y="754.668"/><text fill="#000000" font-family="sans-serif" font-size="12" lengthAdjust="spacing" textLength="81.3691" x="324.408" y="777.125">&#23581;&#35797; close plan</text><polygon fill="#F1F1F1" points="298.7676,795.7617,310.7676,807.7617,298.7676,819.7617,286.7676,807.7617,298.7676,795.7617" style="stroke:#181818;stroke-width:0.5;"/><ellipse cx="298.7676" cy="850.7617" fill="none" rx="11" ry="11" style="stroke:#222222;stroke-width:1;"/><ellipse cx="298.7676" cy="850.7617" fill="#222222" rx="6" ry="6" style="stroke:#222222;stroke-width:1;"/><line style="stroke:#181818;stroke-width:1;" x1="298.7676" x2="298.7676" y1="68.6094" y2="88.6094"/><polygon fill="#181818" points="294.7676,78.6094,298.7676,88.6094,302.7676,78.6094,298.7676,82.6094" style="stroke:#181818;stroke-width:1;"/><line style="stroke:#181818;stroke-width:1;" x1="298.7676" x2="298.7676" y1="167.7031" y2="192.6211"/><polygon fill="#181818" points="294.7676,182.6211,298.7676,192.6211,302.7676,182.6211,298.7676,186.6211" style="stroke:#181818;stroke-width:1;"/><line style="stroke:#181818;stroke-width:1;" x1="356.916" x2="395.4609" y1="155.7031" y2="155.7031"/><polygon fill="#181818" points="391.4609,200.168,395.4609,210.168,399.4609,200.168,395.4609,204.168" style="stroke:#181818;stroke-width:1;"/><line style="stroke:#181818;stroke-width:1;" x1="395.4609" x2="395.4609" y1="155.7031" y2="259.7148"/><line style="stroke:#181818;stroke-width:1;" x1="395.4609" x2="310.7676" y1="259.7148" y2="259.7148"/><polygon fill="#181818" points="320.7676,255.7148,310.7676,259.7148,320.7676,263.7148,316.7676,259.7148" style="stroke:#181818;stroke-width:1;"/><line style="stroke:#181818;stroke-width:1;" x1="298.7676" x2="298.7676" y1="227.7148" y2="247.7148"/><polygon fill="#181818" points="294.7676,237.7148,298.7676,247.7148,302.7676,237.7148,298.7676,241.7148" style="stroke:#181818;stroke-width:1;"/><line style="stroke:#181818;stroke-width:1;" x1="298.7676" x2="298.7676" y1="123.7031" y2="143.7031"/><polygon fill="#181818" points="294.7676,133.7031,298.7676,143.7031,302.7676,133.7031,298.7676,137.7031" style="stroke:#181818;stroke-width:1;"/><line style="stroke:#181818;stroke-width:1;" x1="298.7676" x2="298.7676" y1="315.7148" y2="340.6328"/><polygon fill="#181818" points="294.7676,330.6328,298.7676,340.6328,302.7676,330.6328,298.7676,334.6328" style="stroke:#181818;stroke-width:1;"/><line style="stroke:#181818;stroke-width:1;" x1="406.4563" x2="418.4563" y1="303.7148" y2="303.7148"/><polygon fill="#181818" points="414.4563,348.1797,418.4563,358.1797,422.4563,348.1797,418.4563,352.1797" style="stroke:#181818;stroke-width:1;"/><line style="stroke:#181818;stroke-width:1;" x1="418.4563" x2="418.4563" y1="303.7148" y2="407.7266"/><line style="stroke:#181818;stroke-width:1;" x1="418.4563" x2="310.7676" y1="407.7266" y2="407.7266"/><polygon fill="#181818" points="320.7676,403.7266,310.7676,407.7266,320.7676,411.7266,316.7676,407.7266" style="stroke:#181818;stroke-width:1;"/><line style="stroke:#181818;stroke-width:1;" x1="298.7676" x2="298.7676" y1="375.7266" y2="395.7266"/><polygon fill="#181818" points="294.7676,385.7266,298.7676,395.7266,302.7676,385.7266,298.7676,389.7266" style="stroke:#181818;stroke-width:1;"/><line style="stroke:#181818;stroke-width:1;" x1="298.7676" x2="298.7676" y1="271.7148" y2="291.7148"/><polygon fill="#181818" points="294.7676,281.7148,298.7676,291.7148,302.7676,281.7148,298.7676,285.7148" style="stroke:#181818;stroke-width:1;"/><line style="stroke:#181818;stroke-width:1;" x1="298.7676" x2="298.7676" y1="463.7266" y2="488.6445"/><polygon fill="#181818" points="294.7676,478.6445,298.7676,488.6445,302.7676,478.6445,298.7676,482.6445" style="stroke:#181818;stroke-width:1;"/><line style="stroke:#181818;stroke-width:1;" x1="396.0471" x2="422.1299" y1="451.7266" y2="451.7266"/><polygon fill="#181818" points="418.1299,496.1914,422.1299,506.1914,426.1299,496.1914,422.1299,500.1914" style="stroke:#181818;stroke-width:1;"/><line style="stroke:#181818;stroke-width:1;" x1="422.1299" x2="422.1299" y1="451.7266" y2="555.7383"/><line style="stroke:#181818;stroke-width:1;" x1="422.1299" x2="310.7676" y1="555.7383" y2="555.7383"/><polygon fill="#181818" points="320.7676,551.7383,310.7676,555.7383,320.7676,559.7383,316.7676,555.7383" style="stroke:#181818;stroke-width:1;"/><line style="stroke:#181818;stroke-width:1;" x1="298.7676" x2="298.7676" y1="523.7383" y2="543.7383"/><polygon fill="#181818" points="294.7676,533.7383,298.7676,543.7383,302.7676,533.7383,298.7676,537.7383" style="stroke:#181818;stroke-width:1;"/><line style="stroke:#181818;stroke-width:1;" x1="298.7676" x2="298.7676" y1="419.7266" y2="439.7266"/><polygon fill="#181818" points="294.7676,429.7266,298.7676,439.7266,302.7676,429.7266,298.7676,433.7266" style="stroke:#181818;stroke-width:1;"/><line style="stroke:#181818;stroke-width:1;" x1="75.7207" x2="75.7207" y1="611.7383" y2="645.5742"/><polygon fill="#181818" points="71.7207,635.5742,75.7207,645.5742,79.7207,635.5742,75.7207,639.5742" style="stroke:#181818;stroke-width:1;"/><line style="stroke:#181818;stroke-width:1;" x1="75.7207" x2="75.7207" y1="680.668" y2="700.668"/><polygon fill="#181818" points="71.7207,690.668,75.7207,700.668,79.7207,690.668,75.7207,694.668" style="stroke:#181818;stroke-width:1;"/><line style="stroke:#181818;stroke-width:1;" x1="232.0811" x2="232.0811" y1="611.7383" y2="631.7383"/><polygon fill="#181818" points="228.0811,621.7383,232.0811,631.7383,236.0811,621.7383,232.0811,625.7383" style="stroke:#181818;stroke-width:1;"/><line style="stroke:#181818;stroke-width:1;" x1="232.0811" x2="232.0811" y1="666.832" y2="700.668"/><polygon fill="#181818" points="228.0811,690.668,232.0811,700.668,236.0811,690.668,232.0811,694.668" style="stroke:#181818;stroke-width:1;"/><line style="stroke:#181818;stroke-width:1;" x1="440.1279" x2="440.1279" y1="611.7383" y2="631.7383"/><polygon fill="#181818" points="436.1279,621.7383,440.1279,631.7383,444.1279,621.7383,440.1279,625.7383" style="stroke:#181818;stroke-width:1;"/><line style="stroke:#181818;stroke-width:1;" x1="440.1279" x2="440.1279" y1="666.832" y2="700.668"/><polygon fill="#181818" points="436.1279,690.668,440.1279,700.668,444.1279,690.668,440.1279,694.668" style="stroke:#181818;stroke-width:1;"/><line style="stroke:#181818;stroke-width:1;" x1="131.4414" x2="182.7869" y1="599.7383" y2="599.7383"/><polygon fill="#181818" points="172.7869,595.7383,182.7869,599.7383,172.7869,603.7383,176.7869,599.7383" style="stroke:#181818;stroke-width:1;"/><line style="stroke:#181818;stroke-width:1;" x1="281.3752" x2="377.6934" y1="599.7383" y2="599.7383"/><polygon fill="#181818" points="367.6934,595.7383,377.6934,599.7383,367.6934,603.7383,371.6934,599.7383" style="stroke:#181818;stroke-width:1;"/><line style="stroke:#181818;stroke-width:1;" x1="298.7676" x2="298.7676" y1="567.7383" y2="572.7383"/><line style="stroke:#181818;stroke-width:1;" x1="298.7676" x2="75.7207" y1="572.7383" y2="572.7383"/><line style="stroke:#181818;stroke-width:1;" x1="75.7207" x2="75.7207" y1="572.7383" y2="587.7383"/><polygon fill="#181818" points="71.7207,577.7383,75.7207,587.7383,79.7207,577.7383,75.7207,581.7383" style="stroke:#181818;stroke-width:1;"/><line style="stroke:#181818;stroke-width:1;" x1="502.5625" x2="558.4873" y1="599.7383" y2="599.7383"/><line style="stroke:#181818;stroke-width:1;" x1="558.4873" x2="558.4873" y1="599.7383" y2="700.668"/><polygon fill="#181818" points="554.4873,690.668,558.4873,700.668,562.4873,690.668,558.4873,694.668" style="stroke:#181818;stroke-width:1;"/><line style="stroke:#181818;stroke-width:1;" x1="75.7207" x2="558.4873" y1="700.668" y2="700.668"/><line style="stroke:#181818;stroke-width:1;" x1="242.4426" x2="232.4426" y1="732.668" y2="732.668"/><line style="stroke:#181818;stroke-width:1;" x1="232.4426" x2="232.4426" y1="732.668" y2="754.668"/><polygon fill="#181818" points="228.4426,744.668,232.4426,754.668,236.4426,744.668,232.4426,748.668" style="stroke:#181818;stroke-width:1;"/><line style="stroke:#181818;stroke-width:1;" x1="355.0925" x2="365.0925" y1="732.668" y2="732.668"/><line style="stroke:#181818;stroke-width:1;" x1="365.0925" x2="365.0925" y1="732.668" y2="754.668"/><polygon fill="#181818" points="361.0925,744.668,365.0925,754.668,369.0925,744.668,365.0925,748.668" style="stroke:#181818;stroke-width:1;"/><line style="stroke:#181818;stroke-width:1;" x1="232.4426" x2="232.4426" y1="789.7617" y2="807.7617"/><line style="stroke:#181818;stroke-width:1;" x1="232.4426" x2="286.7676" y1="807.7617" y2="807.7617"/><polygon fill="#181818" points="276.7676,803.7617,286.7676,807.7617,276.7676,811.7617,280.7676,807.7617" style="stroke:#181818;stroke-width:1;"/><line style="stroke:#181818;stroke-width:1;" x1="365.0925" x2="365.0925" y1="789.7617" y2="807.7617"/><line style="stroke:#181818;stroke-width:1;" x1="365.0925" x2="310.7676" y1="807.7617" y2="807.7617"/><polygon fill="#181818" points="320.7676,803.7617,310.7676,807.7617,320.7676,811.7617,316.7676,807.7617" style="stroke:#181818;stroke-width:1;"/><line style="stroke:#181818;stroke-width:1;" x1="298.7676" x2="298.7676" y1="700.668" y2="720.668"/><polygon fill="#181818" points="294.7676,710.668,298.7676,720.668,302.7676,710.668,298.7676,714.668" style="stroke:#181818;stroke-width:1;"/><line style="stroke:#181818;stroke-width:1;" x1="298.7676" x2="298.7676" y1="819.7617" y2="839.7617"/><polygon fill="#181818" points="294.7676,829.7617,298.7676,839.7617,302.7676,829.7617,298.7676,833.7617" style="stroke:#181818;stroke-width:1;"/><?plantuml-src XPBBJi9058RtVOgpr8LH4ztWmaSnOnrWOcsRcK4JLnf1wjt4QmJ52mWR0OC8Ki2NwKphobTmAa55OjoTv9pp_Vz_PZZX1eRWPbTkf4IZu7MoihuEOo2SJNbS4KvUb2z4fginZYZN8lE8gbOrw7PdD8r4OKIULyJXlSWdlTO-h22wbB1dHu77iVdP6zK08a6Z5hoc0IMunT0oXd7WP0bJe3XACOlFQDXS8D4URt8gCZq1NlDOf1eYduPeWYSedcFOm3edbgagkanqF2GYjufXYhrRcNNatPhC5GQublsvhSSHCK5ivuADZaZLtiuUf7CghvB2ROdyO_1K6EAAzfhd7gcZ-AKTaIt10EZj_5cMw_BWK6pj-MhgClTBL94OYPd80ByTAlo11qwHZi7FFCdzmXV8O3YaV6M7liMXnT3OzzXlW4s9JioOkZiZgs7Hzn9oVBVekm_lxLsli-bdckeeeDuwXa5UfuDorMksW2qIsyOB0z5qmsBulsmljH_PVfY24VLdUYFLow1o0ZsQRI2pByAuPNy0?></g></svg>