<?plantuml 1.2026.2?><svg xmlns="http://www.w3.org/2000/svg" xmlns:xlink="http://www.w3.org/1999/xlink" contentStyleType="text/css" data-diagram-type="ACTIVITY" height="747px" preserveAspectRatio="none" style="width:341px;height:747px;background:#FFFFFF;" version="1.1" viewBox="0 0 341 747" width="341px" zoomAndPan="magnify"><title>&#34892;&#24773;&#24037;&#20316;&#27969; - &#24179;&#20179;&#23376;&#27969;&#31243;&#27963;&#21160;&#22270;</title><defs/><g><g class="title" data-source-line="1"><text fill="#000000" font-family="sans-serif" font-size="14" font-weight="bold" lengthAdjust="spacing" textLength="200.1289" x="69.209" y="34.5332">&#34892;&#24773;&#24037;&#20316;&#27969; - &#24179;&#20179;&#23376;&#27969;&#31243;&#27963;&#21160;&#22270;</text></g><ellipse cx="170.4365" cy="58.6094" fill="#222222" rx="10" ry="10" style="stroke:#222222;stroke-width:1;"/><rect fill="#F1F1F1" height="35.0938" rx="12.5" ry="12.5" style="stroke:#181818;stroke-width:0.5;" width="155.375" x="92.749" y="88.6094"/><text fill="#000000" font-family="sans-serif" font-size="12" lengthAdjust="spacing" textLength="135.375" x="102.749" y="111.0664">&#21019;&#24314; close DecisionTrace</text><rect fill="#F1F1F1" height="35.0938" rx="12.5" ry="12.5" style="stroke:#181818;stroke-width:0.5;" width="120.0254" x="110.4238" y="143.7031"/><text fill="#000000" font-family="sans-serif" font-size="12" lengthAdjust="spacing" textLength="100.0254" x="120.4238" y="166.1602">&#27839;&#29992; indicator &#32467;&#26524;</text><rect fill="#F1F1F1" height="35.0938" rx="12.5" ry="12.5" style="stroke:#181818;stroke-width:0.5;" width="153.3945" x="93.7393" y="198.7969"/><text fill="#000000" font-family="sans-serif" font-size="12" lengthAdjust="spacing" textLength="133.3945" x="103.7393" y="221.2539">&#26500;&#24314; close SignalContext</text><rect fill="#F1F1F1" height="35.0938" rx="12.5" ry="12.5" style="stroke:#181818;stroke-width:0.5;" width="110.0352" x="115.4189" y="253.8906"/><text fill="#000000" font-family="sans-serif" font-size="12" lengthAdjust="spacing" textLength="90.0352" x="125.4189" y="276.3477">&#26816;&#26597; close signal</text><rect fill="#F1F1F1" height="35.0938" rx="12.5" ry="12.5" style="stroke:#181818;stroke-width:0.5;" width="85.0566" x="127.9082" y="357.9023"/><text fill="#000000" font-family="sans-serif" font-size="12" lengthAdjust="spacing" textLength="65.0566" x="137.9082" y="380.3594">signal=noop</text><ellipse cx="170.4365" cy="431.9492" fill="none" rx="11" ry="11" style="stroke:#222222;stroke-width:1;"/><ellipse cx="170.4365" cy="431.9492" fill="#222222" rx="6" ry="6" style="stroke:#222222;stroke-width:1;"/><polygon fill="#F1F1F1" points="134.3777,308.9844,206.4954,308.9844,218.4954,320.9844,206.4954,332.9844,134.3777,332.9844,122.3777,320.9844,134.3777,308.9844" style="stroke:#181818;stroke-width:0.5;"/><text fill="#000000" font-family="sans-serif" font-size="11" lengthAdjust="spacing" textLength="11" x="174.4365" y="344.4033">&#26159;</text><text fill="#000000" font-family="sans-serif" font-size="11" lengthAdjust="spacing" textLength="72.1177" x="134.3777" y="325.4854">&#27809;&#26377;&#24179;&#20179;&#20449;&#21495;?</text><rect fill="#F1F1F1" height="35.0938" rx="12.5" ry="12.5" style="stroke:#181818;stroke-width:0.5;" width="142.7246" x="99.0742" y="484.9492"/><text fill="#000000" font-family="sans-serif" font-size="12" lengthAdjust="spacing" textLength="122.7246" x="109.0742" y="507.4063">&#29983;&#25104; close signal stage</text><rect fill="#F1F1F1" height="35.0938" rx="12.5" ry="12.5" style="stroke:#181818;stroke-width:0.5;" width="146.7383" x="97.0674" y="540.043"/><text fill="#000000" font-family="sans-serif" font-size="12" lengthAdjust="spacing" textLength="126.7383" x="107.0674" y="562.5">&#26500;&#24314; close plan payload</text><polygon fill="#F1F1F1" points="124.5835,595.1367,216.2896,595.1367,228.2896,607.1367,216.2896,619.1367,124.5835,619.1367,112.5835,607.1367,124.5835,595.1367" style="stroke:#181818;stroke-width:0.5;"/><text fill="#000000" font-family="sans-serif" font-size="11" lengthAdjust="spacing" textLength="91.7061" x="124.5835" y="611.6377">close plan &#19981;&#21487;&#24471;?</text><text fill="#000000" font-family="sans-serif" font-size="11" lengthAdjust="spacing" textLength="11" x="101.5835" y="604.7197">&#26159;</text><text fill="#000000" font-family="sans-serif" font-size="11" lengthAdjust="spacing" textLength="11" x="228.2896" y="604.7197">&#21542;</text><rect fill="#F1F1F1" height="35.0938" rx="12.5" ry="12.5" style="stroke:#181818;stroke-width:0.5;" width="149.0996" x="11" y="629.1367"/><text fill="#000000" font-family="sans-serif" font-size="12" lengthAdjust="spacing" textLength="129.0996" x="21" y="651.5938">execution_plan=skipped</text><rect fill="#F1F1F1" height="35.0938" rx="12.5" ry="12.5" style="stroke:#181818;stroke-width:0.5;" width="150.4473" x="180.0996" y="629.1367"/><text fill="#000000" font-family="sans-serif" font-size="12" lengthAdjust="spacing" textLength="130.4473" x="190.0996" y="651.5938">execution_plan=planned</text><polygon fill="#F1F1F1" points="170.4365,670.2305,182.4365,682.2305,170.4365,694.2305,158.4365,682.2305,170.4365,670.2305" style="stroke:#181818;stroke-width:0.5;"/><ellipse cx="170.4365" cy="725.2305" fill="none" rx="11" ry="11" style="stroke:#222222;stroke-width:1;"/><ellipse cx="170.4365" cy="725.2305" fill="#222222" rx="6" ry="6" style="stroke:#222222;stroke-width:1;"/><line style="stroke:#181818;stroke-width:1;" x1="170.4365" x2="170.4365" y1="68.6094" y2="88.6094"/><polygon fill="#181818" points="166.4365,78.6094,170.4365,88.6094,174.4365,78.6094,170.4365,82.6094" style="stroke:#181818;stroke-width:1;"/><line style="stroke:#181818;stroke-width:1;" x1="170.4365" x2="170.4365" y1="123.7031" y2="143.7031"/><polygon fill="#181818" points="166.4365,133.7031,170.4365,143.7031,174.4365,133.7031,170.4365,137.7031" style="stroke:#181818;stroke-width:1;"/><line style="stroke:#181818;stroke-width:1;" x1="170.4365" x2="170.4365" y1="178.7969" y2="198.7969"/><polygon fill="#181818" points="166.4365,188.7969,170.4365,198.7969,174.4365,188.7969,170.4365,192.7969" style="stroke:#181818;stroke-width:1;"/><line style="stroke:#181818;stroke-width:1;" x1="170.4365" x2="170.4365" y1="233.8906" y2="253.8906"/><polygon fill="#181818" points="166.4365,243.8906,170.4365,253.8906,174.4365,243.8906,170.4365,247.8906" style="stroke:#181818;stroke-width:1;"/><line style="stroke:#181818;stroke-width:1;" x1="170.4365" x2="170.4365" y1="392.9961" y2="420.9492"/><polygon fill="#181818" points="166.4365,410.9492,170.4365,420.9492,174.4365,410.9492,170.4365,414.9492" style="stroke:#181818;stroke-width:1;"/><line style="stroke:#181818;stroke-width:1;" x1="170.4365" x2="170.4365" y1="332.9844" y2="357.9023"/><polygon fill="#181818" points="166.4365,347.9023,170.4365,357.9023,174.4365,347.9023,170.4365,351.9023" style="stroke:#181818;stroke-width:1;"/><line style="stroke:#181818;stroke-width:1;" x1="218.4954" x2="230.4954" y1="320.9844" y2="320.9844"/><polygon fill="#181818" points="226.4954,390.9492,230.4954,400.9492,234.4954,390.9492,230.4954,394.9492" style="stroke:#181818;stroke-width:1;"/><line style="stroke:#181818;stroke-width:1;" x1="230.4954" x2="230.4954" y1="320.9844" y2="464.9492"/><line style="stroke:#181818;stroke-width:1;" x1="230.4954" x2="170.4365" y1="464.9492" y2="464.9492"/><line style="stroke:#181818;stroke-width:1;" x1="170.4365" x2="170.4365" y1="464.9492" y2="484.9492"/><polygon fill="#181818" points="166.4365,474.9492,170.4365,484.9492,174.4365,474.9492,170.4365,478.9492" style="stroke:#181818;stroke-width:1;"/><line style="stroke:#181818;stroke-width:1;" x1="170.4365" x2="170.4365" y1="288.9844" y2="308.9844"/><polygon fill="#181818" points="166.4365,298.9844,170.4365,308.9844,174.4365,298.9844,170.4365,302.9844" style="stroke:#181818;stroke-width:1;"/><line style="stroke:#181818;stroke-width:1;" x1="170.4365" x2="170.4365" y1="520.043" y2="540.043"/><polygon fill="#181818" points="166.4365,530.043,170.4365,540.043,174.4365,530.043,170.4365,534.043" style="stroke:#181818;stroke-width:1;"/><line style="stroke:#181818;stroke-width:1;" x1="112.5835" x2="85.5498" y1="607.1367" y2="607.1367"/><line style="stroke:#181818;stroke-width:1;" x1="85.5498" x2="85.5498" y1="607.1367" y2="629.1367"/><polygon fill="#181818" points="81.5498,619.1367,85.5498,629.1367,89.5498,619.1367,85.5498,623.1367" style="stroke:#181818;stroke-width:1;"/><line style="stroke:#181818;stroke-width:1;" x1="228.2896" x2="255.3232" y1="607.1367" y2="607.1367"/><line style="stroke:#181818;stroke-width:1;" x1="255.3232" x2="255.3232" y1="607.1367" y2="629.1367"/><polygon fill="#181818" points="251.3232,619.1367,255.3232,629.1367,259.3232,619.1367,255.3232,623.1367" style="stroke:#181818;stroke-width:1;"/><line style="stroke:#181818;stroke-width:1;" x1="85.5498" x2="85.5498" y1="664.2305" y2="682.2305"/><line style="stroke:#181818;stroke-width:1;" x1="85.5498" x2="158.4365" y1="682.2305" y2="682.2305"/><polygon fill="#181818" points="148.4365,678.2305,158.4365,682.2305,148.4365,686.2305,152.4365,682.2305" style="stroke:#181818;stroke-width:1;"/><line style="stroke:#181818;stroke-width:1;" x1="255.3232" x2="255.3232" y1="664.2305" y2="682.2305"/><line style="stroke:#181818;stroke-width:1;" x1="255.3232" x2="182.4365" y1="682.2305" y2="682.2305"/><polygon fill="#181818" points="192.4365,678.2305,182.4365,682.2305,192.4365,686.2305,188.4365,682.2305" style="stroke:#181818;stroke-width:1;"/><line style="stroke:#181818;stroke-width:1;" x1="170.4365" x2="170.4365" y1="575.1367" y2="595.1367"/><polygon fill="#181818" points="166.4365,585.1367,170.4365,595.1367,174.4365,585.1367,170.4365,589.1367" style="stroke:#181818;stroke-width:1;"/><line style="stroke:#181818;stroke-width:1;" x1="170.4365" x2="170.4365" y1="694.2305" y2="714.2305"/><polygon fill="#181818" points="166.4365,704.2305,170.4365,714.2305,174.4365,704.2305,170.4365,708.2305" style="stroke:#181818;stroke-width:1;"/><?plantuml-src RP3DIWCn4CVlUOevjWTVO4lne6-WTmdRj0P34ZOHwarHeNxHXHOKkhGiKjcB56gbwcBxCfkiZs5sM_3pCZ3yVZFpPpJLZC17V6rFpyrydBr7zla4Di2yFcLfppo6hisJApjBpMLY1WkaD0uqyandOD8ty9bG1BQ9JnKLV3V0FgaXpqwNUJy1oXlKnre4aASzEumACZpx6jkXBOxPbk2Qj7K1xu_jQBo6geGrX6WJAdOQs-XYbIbRngOxtwo2tYVSeRj95G5uAx_EXP0rroij928kG1CXB--FR2VyiTW9k4L-9v8CSv3uY0dSM9_-1hAN6zETcCNjd-EaJVn3xJwmLuXrTK2b96u3OMwsOiA7_woYyD8gOnQ9Fm40?></g></svg>