<?plantuml 1.2026.2?><svg xmlns="http://www.w3.org/2000/svg" xmlns:xlink="http://www.w3.org/1999/xlink" contentStyleType="text/css" data-diagram-type="ACTIVITY" height="1145px" preserveAspectRatio="none" style="width:243px;height:1145px;background:#FFFFFF;" version="1.1" viewBox="0 0 243 1145" width="243px" zoomAndPan="magnify"><title>&#34892;&#24773;&#24037;&#20316;&#27969; - &#24320;&#20179;&#23376;&#27969;&#31243;&#27963;&#21160;&#22270;</title><defs/><g><g class="title" data-source-line="1"><text fill="#000000" font-family="sans-serif" font-size="14" font-weight="bold" lengthAdjust="spacing" textLength="200.1289" x="20" y="34.5332">&#34892;&#24773;&#24037;&#20316;&#27969; - &#24320;&#20179;&#23376;&#27969;&#31243;&#27963;&#21160;&#22270;</text></g><ellipse cx="118.4761" cy="58.6094" fill="#222222" rx="10" ry="10" style="stroke:#222222;stroke-width:1;"/><rect fill="#F1F1F1" height="35.0938" rx="12.5" ry="12.5" style="stroke:#181818;stroke-width:0.5;" width="154.0566" x="41.4478" y="88.6094"/><text fill="#000000" font-family="sans-serif" font-size="12" lengthAdjust="spacing" textLength="134.0566" x="51.4478" y="111.0664">&#21019;&#24314; open DecisionTrace</text><rect fill="#F1F1F1" height="35.0938" rx="12.5" ry="12.5" style="stroke:#181818;stroke-width:0.5;" width="125.3809" x="55.7856" y="143.7031"/><text fill="#000000" font-family="sans-serif" font-size="12" lengthAdjust="spacing" textLength="105.3809" x="65.7856" y="166.1602">&#20889;&#20837; indicator stage</text><rect fill="#F1F1F1" height="35.0938" rx="12.5" ry="12.5" style="stroke:#181818;stroke-width:0.5;" width="122.0469" x="57.4526" y="198.7969"/><text fill="#000000" font-family="sans-serif" font-size="12" lengthAdjust="spacing" textLength="102.0469" x="67.4526" y="221.2539">&#26500;&#24314; SignalContext</text><rect fill="#F1F1F1" height="35.0938" rx="12.5" ry="12.5" style="stroke:#181818;stroke-width:0.5;" width="108.7168" x="64.1177" y="253.8906"/><text fill="#000000" font-family="sans-serif" font-size="12" lengthAdjust="spacing" textLength="88.7168" x="74.1177" y="276.3477">&#26816;&#26597; open signal</text><rect fill="#F1F1F1" height="35.0938" rx="12.5" ry="12.5" style="stroke:#181818;stroke-width:0.5;" width="85.0566" x="75.9478" y="357.9023"/><text fill="#000000" font-family="sans-serif" font-size="12" lengthAdjust="spacing" textLength="65.0566" x="85.9478" y="380.3594">signal=noop</text><ellipse cx="118.4761" cy="431.9492" fill="none" rx="11" ry="11" style="stroke:#222222;stroke-width:1;"/><ellipse cx="118.4761" cy="431.9492" fill="#222222" rx="6" ry="6" style="stroke:#222222;stroke-width:1;"/><polygon fill="#F1F1F1" points="93.4172,308.9844,143.5349,308.9844,155.5349,320.9844,143.5349,332.9844,93.4172,332.9844,81.4172,320.9844,93.4172,308.9844" style="stroke:#181818;stroke-width:0.5;"/><text fill="#000000" font-family="sans-serif" font-size="11" lengthAdjust="spacing" textLength="11" x="122.4761" y="344.4033">&#26159;</text><text fill="#000000" font-family="sans-serif" font-size="11" lengthAdjust="spacing" textLength="50.1177" x="93.4172" y="325.4854">&#27809;&#26377;&#20449;&#21495;?</text><rect fill="#F1F1F1" height="35.0938" rx="12.5" ry="12.5" style="stroke:#181818;stroke-width:0.5;" width="144.0313" x="46.4604" y="484.9492"/><text fill="#000000" font-family="sans-serif" font-size="12" lengthAdjust="spacing" textLength="124.0313" x="56.4604" y="507.4063">&#30331;&#35760;&#20020;&#26102; signal symbol</text><rect fill="#F1F1F1" height="35.0938" rx="12.5" ry="12.5" style="stroke:#181818;stroke-width:0.5;" width="136.4258" x="50.2632" y="588.9609"/><text fill="#000000" font-family="sans-serif" font-size="12" lengthAdjust="spacing" textLength="116.4258" x="60.2632" y="611.418">option_chain=skipped</text><ellipse cx="118.4761" cy="663.0078" fill="none" rx="11" ry="11" style="stroke:#222222;stroke-width:1;"/><ellipse cx="118.4761" cy="663.0078" fill="#222222" rx="6" ry="6" style="stroke:#222222;stroke-width:1;"/><polygon fill="#F1F1F1" points="71.6965,540.043,165.2556,540.043,177.2556,552.043,165.2556,564.043,71.6965,564.043,59.6965,552.043,71.6965,540.043" style="stroke:#181818;stroke-width:0.5;"/><text fill="#000000" font-family="sans-serif" font-size="11" lengthAdjust="spacing" textLength="11" x="122.4761" y="575.4619">&#26159;</text><text fill="#000000" font-family="sans-serif" font-size="11" lengthAdjust="spacing" textLength="93.5591" x="71.6965" y="556.5439">option_chain &#20026;&#31354;?</text><rect fill="#F1F1F1" height="35.0938" rx="12.5" ry="12.5" style="stroke:#181818;stroke-width:0.5;" width="68" x="84.4761" y="716.0078"/><text fill="#000000" font-family="sans-serif" font-size="12" lengthAdjust="spacing" textLength="48" x="94.4761" y="738.4648">&#36873;&#25321;&#21512;&#32422;</text><rect fill="#F1F1F1" height="35.0938" rx="12.5" ry="12.5" style="stroke:#181818;stroke-width:0.5;" width="117.0605" x="59.9458" y="820.0195"/><text fill="#000000" font-family="sans-serif" font-size="12" lengthAdjust="spacing" textLength="97.0605" x="69.9458" y="842.4766">selection=rejected</text><ellipse cx="118.4761" cy="894.0664" fill="none" rx="11" ry="11" style="stroke:#222222;stroke-width:1;"/><ellipse cx="118.4761" cy="894.0664" fill="#222222" rx="6" ry="6" style="stroke:#222222;stroke-width:1;"/><polygon fill="#F1F1F1" points="87.9172,771.1016,149.0349,771.1016,161.0349,783.1016,149.0349,795.1016,87.9172,795.1016,75.9172,783.1016,87.9172,771.1016" style="stroke:#181818;stroke-width:0.5;"/><text fill="#000000" font-family="sans-serif" font-size="11" lengthAdjust="spacing" textLength="11" x="122.4761" y="806.5205">&#26159;</text><text fill="#000000" font-family="sans-serif" font-size="11" lengthAdjust="spacing" textLength="61.1177" x="87.9172" y="787.6025">&#26410;&#36873;&#20013;&#21512;&#32422;?</text><rect fill="#F1F1F1" height="35.0938" rx="12.5" ry="12.5" style="stroke:#181818;stroke-width:0.5;" width="174.0723" x="31.4399" y="947.0664"/><text fill="#000000" font-family="sans-serif" font-size="12" lengthAdjust="spacing" textLength="154.0723" x="41.4399" y="969.5234">&#26500;&#24314; pricing / greeks payload</text><rect fill="#F1F1F1" height="35.0938" rx="12.5" ry="12.5" style="stroke:#181818;stroke-width:0.5;" width="123.3828" x="56.7847" y="1002.1602"/><text fill="#000000" font-family="sans-serif" font-size="12" lengthAdjust="spacing" textLength="103.3828" x="66.7847" y="1024.6172">&#26500;&#24314; sizing payload</text><rect fill="#F1F1F1" height="35.0938" rx="12.5" ry="12.5" style="stroke:#181818;stroke-width:0.5;" width="155.3984" x="40.7769" y="1057.2539"/><text fill="#000000" font-family="sans-serif" font-size="12" lengthAdjust="spacing" textLength="135.3984" x="50.7769" y="1079.7109">&#20889;&#20837; execution_plan &#39592;&#26550;</text><ellipse cx="118.4761" cy="1123.3477" fill="none" rx="11" ry="11" style="stroke:#222222;stroke-width:1;"/><ellipse cx="118.4761" cy="1123.3477" fill="#222222" rx="6" ry="6" style="stroke:#222222;stroke-width:1;"/><line style="stroke:#181818;stroke-width:1;" x1="118.4761" x2="118.4761" y1="68.6094" y2="88.6094"/><polygon fill="#181818" points="114.4761,78.6094,118.4761,88.6094,122.4761,78.6094,118.4761,82.6094" style="stroke:#181818;stroke-width:1;"/><line style="stroke:#181818;stroke-width:1;" x1="118.4761" x2="118.4761" y1="123.7031" y2="143.7031"/><polygon fill="#181818" points="114.4761,133.7031,118.4761,143.7031,122.4761,133.7031,118.4761,137.7031" style="stroke:#181818;stroke-width:1;"/><line style="stroke:#181818;stroke-width:1;" x1="118.4761" x2="118.4761" y1="178.7969" y2="198.7969"/><polygon fill="#181818" points="114.4761,188.7969,118.4761,198.7969,122.4761,188.7969,118.4761,192.7969" style="stroke:#181818;stroke-width:1;"/><line style="stroke:#181818;stroke-width:1;" x1="118.4761" x2="118.4761" y1="233.8906" y2="253.8906"/><polygon fill="#181818" points="114.4761,243.8906,118.4761,253.8906,122.4761,243.8906,118.4761,247.8906" style="stroke:#181818;stroke-width:1;"/><line style="stroke:#181818;stroke-width:1;" x1="118.4761" x2="118.4761" y1="392.9961" y2="420.9492"/><polygon fill="#181818" points="114.4761,410.9492,118.4761,420.9492,122.4761,410.9492,118.4761,414.9492" style="stroke:#181818;stroke-width:1;"/><line style="stroke:#181818;stroke-width:1;" x1="118.4761" x2="118.4761" y1="332.9844" y2="357.9023"/><polygon fill="#181818" points="114.4761,347.9023,118.4761,357.9023,122.4761,347.9023,118.4761,351.9023" style="stroke:#181818;stroke-width:1;"/><line style="stroke:#181818;stroke-width:1;" x1="155.5349" x2="171.0044" y1="320.9844" y2="320.9844"/><polygon fill="#181818" points="167.0044,390.9492,171.0044,400.9492,175.0044,390.9492,171.0044,394.9492" style="stroke:#181818;stroke-width:1;"/><line style="stroke:#181818;stroke-width:1;" x1="171.0044" x2="171.0044" y1="320.9844" y2="464.9492"/><line style="stroke:#181818;stroke-width:1;" x1="171.0044" x2="118.4761" y1="464.9492" y2="464.9492"/><line style="stroke:#181818;stroke-width:1;" x1="118.4761" x2="118.4761" y1="464.9492" y2="484.9492"/><polygon fill="#181818" points="114.4761,474.9492,118.4761,484.9492,122.4761,474.9492,118.4761,478.9492" style="stroke:#181818;stroke-width:1;"/><line style="stroke:#181818;stroke-width:1;" x1="118.4761" x2="118.4761" y1="288.9844" y2="308.9844"/><polygon fill="#181818" points="114.4761,298.9844,118.4761,308.9844,122.4761,298.9844,118.4761,302.9844" style="stroke:#181818;stroke-width:1;"/><line style="stroke:#181818;stroke-width:1;" x1="118.4761" x2="118.4761" y1="624.0547" y2="652.0078"/><polygon fill="#181818" points="114.4761,642.0078,118.4761,652.0078,122.4761,642.0078,118.4761,646.0078" style="stroke:#181818;stroke-width:1;"/><line style="stroke:#181818;stroke-width:1;" x1="118.4761" x2="118.4761" y1="564.043" y2="588.9609"/><polygon fill="#181818" points="114.4761,578.9609,118.4761,588.9609,122.4761,578.9609,118.4761,582.9609" style="stroke:#181818;stroke-width:1;"/><line style="stroke:#181818;stroke-width:1;" x1="177.2556" x2="196.689" y1="552.043" y2="552.043"/><polygon fill="#181818" points="192.689,622.0078,196.689,632.0078,200.689,622.0078,196.689,626.0078" style="stroke:#181818;stroke-width:1;"/><line style="stroke:#181818;stroke-width:1;" x1="196.689" x2="196.689" y1="552.043" y2="696.0078"/><line style="stroke:#181818;stroke-width:1;" x1="196.689" x2="118.4761" y1="696.0078" y2="696.0078"/><line style="stroke:#181818;stroke-width:1;" x1="118.4761" x2="118.4761" y1="696.0078" y2="716.0078"/><polygon fill="#181818" points="114.4761,706.0078,118.4761,716.0078,122.4761,706.0078,118.4761,710.0078" style="stroke:#181818;stroke-width:1;"/><line style="stroke:#181818;stroke-width:1;" x1="118.4761" x2="118.4761" y1="520.043" y2="540.043"/><polygon fill="#181818" points="114.4761,530.043,118.4761,540.043,122.4761,530.043,118.4761,534.043" style="stroke:#181818;stroke-width:1;"/><line style="stroke:#181818;stroke-width:1;" x1="118.4761" x2="118.4761" y1="855.1133" y2="883.0664"/><polygon fill="#181818" points="114.4761,873.0664,118.4761,883.0664,122.4761,873.0664,118.4761,877.0664" style="stroke:#181818;stroke-width:1;"/><line style="stroke:#181818;stroke-width:1;" x1="118.4761" x2="118.4761" y1="795.1016" y2="820.0195"/><polygon fill="#181818" points="114.4761,810.0195,118.4761,820.0195,122.4761,810.0195,118.4761,814.0195" style="stroke:#181818;stroke-width:1;"/><line style="stroke:#181818;stroke-width:1;" x1="161.0349" x2="187.0063" y1="783.1016" y2="783.1016"/><polygon fill="#181818" points="183.0063,853.0664,187.0063,863.0664,191.0063,853.0664,187.0063,857.0664" style="stroke:#181818;stroke-width:1;"/><line style="stroke:#181818;stroke-width:1;" x1="187.0063" x2="187.0063" y1="783.1016" y2="927.0664"/><line style="stroke:#181818;stroke-width:1;" x1="187.0063" x2="118.4761" y1="927.0664" y2="927.0664"/><line style="stroke:#181818;stroke-width:1;" x1="118.4761" x2="118.4761" y1="927.0664" y2="947.0664"/><polygon fill="#181818" points="114.4761,937.0664,118.4761,947.0664,122.4761,937.0664,118.4761,941.0664" style="stroke:#181818;stroke-width:1;"/><line style="stroke:#181818;stroke-width:1;" x1="118.4761" x2="118.4761" y1="751.1016" y2="771.1016"/><polygon fill="#181818" points="114.4761,761.1016,118.4761,771.1016,122.4761,761.1016,118.4761,765.1016" style="stroke:#181818;stroke-width:1;"/><line style="stroke:#181818;stroke-width:1;" x1="118.4761" x2="118.4761" y1="982.1602" y2="1002.1602"/><polygon fill="#181818" points="114.4761,992.1602,118.4761,1002.1602,122.4761,992.1602,118.4761,996.1602" style="stroke:#181818;stroke-width:1;"/><line style="stroke:#181818;stroke-width:1;" x1="118.4761" x2="118.4761" y1="1037.2539" y2="1057.2539"/><polygon fill="#181818" points="114.4761,1047.2539,118.4761,1057.2539,122.4761,1047.2539,118.4761,1051.2539" style="stroke:#181818;stroke-width:1;"/><line style="stroke:#181818;stroke-width:1;" x1="118.4761" x2="118.4761" y1="1092.3477" y2="1112.3477"/><polygon fill="#181818" points="114.4761,1102.3477,118.4761,1112.3477,122.4761,1102.3477,118.4761,1106.3477" style="stroke:#181818;stroke-width:1;"/><?plantuml-src RL1TIm9157sVNt4Vyo5wTv4UwX_KUsphk4vkCyFk1DgJKOPcaD13YM9862fO4QQozl5dTcRrNpJh6WRsTkyvvvvpk8881yEiVQtEItBS2JwRwlqCDa5-58FfhHpKz1fsgseubLTTsVX2dZ1TWPAot91J7nZ757QnHJp2wBvhMjZGt6LTbZf0Q9fOfc0kw1ix8bJh8ZhQ8pOrdHr61SwB27uigeTExEKjE0CXae4DzTPMpKhmtPOtu-q4YAmMRAZxbmG2ICRA56MC6tht1EC8wyWCGicmFfqzlmQJeReRBIt1AnmVibzdneKkV61bJK8XcFXXpryB-Aj9UJd2EKwl9SsB5LNjoLevz9-Ck7Iphy5WCeZ1zTxOmLRad7BnaPx-CLt-YRl48jI6BR1TZ7CUSBFWC3Ez-gH7JYF12b--7kUnTR9epnsJmhpVLQsHWQAG7m00?></g></svg>