<?plantuml 1.2026.2?><svg xmlns="http://www.w3.org/2000/svg" xmlns:xlink="http://www.w3.org/1999/xlink" contentStyleType="text/css" data-diagram-type="ACTIVITY" height="1195px" preserveAspectRatio="none" style="width:374px;height:1195px;background:#FFFFFF;" version="1.1" viewBox="0 0 374 1195" width="374px" zoomAndPan="magnify"><title>&#34892;&#24773;&#24037;&#20316;&#27969; - &#27963;&#21160;&#22270;</title><defs/><g><g class="title" data-source-line="1"><text fill="#000000" font-family="sans-serif" font-size="14" font-weight="bold" lengthAdjust="spacing" textLength="127.9414" x="121.6035" y="34.5332">&#34892;&#24773;&#24037;&#20316;&#27969; - &#27963;&#21160;&#22270;</text></g><ellipse cx="195.0898" cy="58.6094" fill="#222222" rx="10" ry="10" style="stroke:#222222;stroke-width:1;"/><rect fill="#F1F1F1" height="35.0938" rx="12.5" ry="12.5" style="stroke:#181818;stroke-width:0.5;" width="70.6777" x="159.751" y="88.6094"/><text fill="#000000" font-family="sans-serif" font-size="12" lengthAdjust="spacing" textLength="50.6777" x="169.751" y="111.0664">&#25509;&#25910; bars</text><rect fill="#F1F1F1" height="35.0938" rx="12.5" ry="12.5" style="stroke:#181818;stroke-width:0.5;" width="96.0254" x="147.0771" y="143.7031"/><text fill="#000000" font-family="sans-serif" font-size="12" lengthAdjust="spacing" textLength="76.0254" x="157.0771" y="166.1602">&#26356;&#26032; last_bars</text><rect fill="#F1F1F1" height="35.0938" rx="12.5" ry="12.5" style="stroke:#181818;stroke-width:0.5;" width="92" x="149.0898" y="247.7148"/><text fill="#000000" font-family="sans-serif" font-size="12" lengthAdjust="spacing" textLength="72" x="159.0898" y="270.1719">&#25191;&#34892;&#25442;&#26376;&#26816;&#26597;</text><rect fill="#F1F1F1" height="35.0938" rx="12.5" ry="12.5" style="stroke:#181818;stroke-width:0.5;" width="156.0254" x="117.0771" y="317.8086"/><text fill="#000000" font-family="sans-serif" font-size="12" lengthAdjust="spacing" textLength="136.0254" x="127.0771" y="340.2656">&#25353;&#38408;&#20540;&#35302;&#21457; universe &#26657;&#39564;</text><polygon fill="#F1F1F1" points="105.5188,198.7969,284.6609,198.7969,296.6609,210.7969,284.6609,222.7969,105.5188,222.7969,93.5188,210.7969,105.5188,198.7969" style="stroke:#181818;stroke-width:0.5;"/><text fill="#000000" font-family="sans-serif" font-size="11" lengthAdjust="spacing" textLength="11" x="199.0898" y="234.2158">&#26159;</text><text fill="#000000" font-family="sans-serif" font-size="11" lengthAdjust="spacing" textLength="179.1421" x="105.5188" y="215.2979">target_aggregate &#21487;&#29992;&#19988;&#38750; warmup?</text><polygon fill="#F1F1F1" points="195.0898,372.9023,207.0898,384.9023,195.0898,396.9023,183.0898,384.9023,195.0898,372.9023" style="stroke:#181818;stroke-width:0.5;"/><polygon fill="#F1F1F1" points="144.0349,416.9023,246.1448,416.9023,258.1448,428.9023,246.1448,440.9023,144.0349,440.9023,132.0349,428.9023,144.0349,416.9023" style="stroke:#181818;stroke-width:0.5;"/><text fill="#000000" font-family="sans-serif" font-size="11" lengthAdjust="spacing" textLength="102.1099" x="144.0349" y="433.4033">bar_pipeline &#24050;&#21551;&#29992;?</text><text fill="#000000" font-family="sans-serif" font-size="11" lengthAdjust="spacing" textLength="11" x="121.0349" y="426.4854">&#26159;</text><text fill="#000000" font-family="sans-serif" font-size="11" lengthAdjust="spacing" textLength="11" x="258.1448" y="426.4854">&#21542;</text><rect fill="#F1F1F1" height="35.0938" rx="12.5" ry="12.5" style="stroke:#181818;stroke-width:0.5;" width="182.1055" x="11" y="450.9023"/><text fill="#000000" font-family="sans-serif" font-size="12" lengthAdjust="spacing" textLength="162.1055" x="21" y="473.3594">&#20132;&#32473; bar_pipeline.handle_bars</text><rect fill="#F1F1F1" height="35.0938" rx="12.5" ry="12.5" style="stroke:#181818;stroke-width:0.5;" width="150.043" x="213.1055" y="450.9023"/><text fill="#000000" font-family="sans-serif" font-size="12" lengthAdjust="spacing" textLength="130.043" x="223.1055" y="473.3594">&#30452;&#25509;&#36827;&#20837; _process_bars</text><polygon fill="#F1F1F1" points="195.0898,491.9961,207.0898,503.9961,195.0898,515.9961,183.0898,503.9961,195.0898,491.9961" style="stroke:#181818;stroke-width:0.5;"/><rect fill="#F1F1F1" height="35.0938" rx="12.5" ry="12.5" style="stroke:#181818;stroke-width:0.5;" width="149.3633" x="120.4082" y="535.9961"/><text fill="#000000" font-family="sans-serif" font-size="12" lengthAdjust="spacing" textLength="129.3633" x="130.4082" y="558.4531">&#36880;&#20010; vt_symbol &#22788;&#29702; bar</text><rect fill="#F1F1F1" height="35.0938" rx="12.5" ry="12.5" style="stroke:#181818;stroke-width:0.5;" width="103.3555" x="143.4121" y="591.0898"/><text fill="#000000" font-family="sans-serif" font-size="12" lengthAdjust="spacing" textLength="83.3555" x="153.4121" y="613.5469">&#26356;&#26032; instrument</text><rect fill="#F1F1F1" height="35.0938" rx="12.5" ry="12.5" style="stroke:#181818;stroke-width:0.5;" width="216.1133" x="87.0332" y="646.1836"/><text fill="#000000" font-family="sans-serif" font-size="12" lengthAdjust="spacing" textLength="196.1133" x="97.0332" y="668.6406">&#26500;&#24314; option_chain / indicator_context</text><rect fill="#F1F1F1" height="35.0938" rx="12.5" ry="12.5" style="stroke:#181818;stroke-width:0.5;" width="104" x="143.0898" y="701.2773"/><text fill="#000000" font-family="sans-serif" font-size="12" lengthAdjust="spacing" textLength="84" x="153.0898" y="723.7344">&#25191;&#34892;&#24320;&#20179;&#23376;&#27969;&#31243;</text><rect fill="#F1F1F1" height="35.0938" rx="12.5" ry="12.5" style="stroke:#181818;stroke-width:0.5;" width="222.7109" x="83.7344" y="756.3711"/><text fill="#000000" font-family="sans-serif" font-size="12" lengthAdjust="spacing" textLength="202.7109" x="93.7344" y="778.8281">&#23545;&#27599;&#20010; active position &#25191;&#34892;&#24179;&#20179;&#23376;&#27969;&#31243;</text><rect fill="#F1F1F1" height="35.0938" rx="12.5" ry="12.5" style="stroke:#181818;stroke-width:0.5;" width="68" x="161.0898" y="811.4648"/><text fill="#000000" font-family="sans-serif" font-size="12" lengthAdjust="spacing" textLength="48" x="171.0898" y="833.9219">&#35760;&#24405;&#24555;&#29031;</text><rect fill="#F1F1F1" height="35.0938" rx="12.5" ry="12.5" style="stroke:#181818;stroke-width:0.5;" width="88.0391" x="151.0703" y="915.4766"/><text fill="#000000" font-family="sans-serif" font-size="12" lengthAdjust="spacing" textLength="68.0391" x="161.0703" y="937.9336">maybe_save</text><polygon fill="#F1F1F1" points="122.0322,866.5586,268.1475,866.5586,280.1475,878.5586,268.1475,890.5586,122.0322,890.5586,110.0322,878.5586,122.0322,866.5586" style="stroke:#181818;stroke-width:0.5;"/><text fill="#000000" font-family="sans-serif" font-size="11" lengthAdjust="spacing" textLength="11" x="199.0898" y="901.9775">&#26159;</text><text fill="#000000" font-family="sans-serif" font-size="11" lengthAdjust="spacing" textLength="146.1152" x="122.0322" y="883.0596">auto_save &#21487;&#29992;&#19988;&#38750; warmup?</text><polygon fill="#F1F1F1" points="195.0898,970.5703,207.0898,982.5703,195.0898,994.5703,183.0898,982.5703,195.0898,970.5703" style="stroke:#181818;stroke-width:0.5;"/><rect fill="#F1F1F1" height="35.0938" rx="12.5" ry="12.5" style="stroke:#181818;stroke-width:0.5;" width="179.3867" x="105.3965" y="1063.4883"/><text fill="#000000" font-family="sans-serif" font-size="12" lengthAdjust="spacing" textLength="159.3867" x="115.3965" y="1085.9453">reconcile_subscriptions(timer)</text><polygon fill="#F1F1F1" points="148.031,1014.5703,242.1487,1014.5703,254.1487,1026.5703,242.1487,1038.5703,148.031,1038.5703,136.031,1026.5703,148.031,1014.5703" style="stroke:#181818;stroke-width:0.5;"/><text fill="#000000" font-family="sans-serif" font-size="11" lengthAdjust="spacing" textLength="11" x="199.0898" y="1049.9893">&#26159;</text><text fill="#000000" font-family="sans-serif" font-size="11" lengthAdjust="spacing" textLength="94.1177" x="148.031" y="1031.0713">&#21040;&#36798;&#35746;&#38405;&#21047;&#26032;&#21608;&#26399;?</text><polygon fill="#F1F1F1" points="195.0898,1118.582,207.0898,1130.582,195.0898,1142.582,183.0898,1130.582,195.0898,1118.582" style="stroke:#181818;stroke-width:0.5;"/><ellipse cx="195.0898" cy="1173.582" fill="none" rx="11" ry="11" style="stroke:#222222;stroke-width:1;"/><ellipse cx="195.0898" cy="1173.582" fill="#222222" rx="6" ry="6" style="stroke:#222222;stroke-width:1;"/><line style="stroke:#181818;stroke-width:1;" x1="195.0898" x2="195.0898" y1="68.6094" y2="88.6094"/><polygon fill="#181818" points="191.0898,78.6094,195.0898,88.6094,199.0898,78.6094,195.0898,82.6094" style="stroke:#181818;stroke-width:1;"/><line style="stroke:#181818;stroke-width:1;" x1="195.0898" x2="195.0898" y1="123.7031" y2="143.7031"/><polygon fill="#181818" points="191.0898,133.7031,195.0898,143.7031,199.0898,133.7031,195.0898,137.7031" style="stroke:#181818;stroke-width:1;"/><line style="stroke:#181818;stroke-width:1;" x1="195.0898" x2="195.0898" y1="282.8086" y2="317.8086"/><polygon fill="#181818" points="191.0898,307.8086,195.0898,317.8086,199.0898,307.8086,195.0898,311.8086" style="stroke:#181818;stroke-width:1;"/><line style="stroke:#181818;stroke-width:1;" x1="195.0898" x2="195.0898" y1="222.7969" y2="247.7148"/><polygon fill="#181818" points="191.0898,237.7148,195.0898,247.7148,199.0898,237.7148,195.0898,241.7148" style="stroke:#181818;stroke-width:1;"/><line style="stroke:#181818;stroke-width:1;" x1="296.6609" x2="308.6609" y1="210.7969" y2="210.7969"/><polygon fill="#181818" points="304.6609,290.3086,308.6609,300.3086,312.6609,290.3086,308.6609,294.3086" style="stroke:#181818;stroke-width:1;"/><line style="stroke:#181818;stroke-width:1;" x1="308.6609" x2="308.6609" y1="210.7969" y2="384.9023"/><line style="stroke:#181818;stroke-width:1;" x1="308.6609" x2="207.0898" y1="384.9023" y2="384.9023"/><polygon fill="#181818" points="217.0898,380.9023,207.0898,384.9023,217.0898,388.9023,213.0898,384.9023" style="stroke:#181818;stroke-width:1;"/><line style="stroke:#181818;stroke-width:1;" x1="195.0898" x2="195.0898" y1="352.9023" y2="372.9023"/><polygon fill="#181818" points="191.0898,362.9023,195.0898,372.9023,199.0898,362.9023,195.0898,366.9023" style="stroke:#181818;stroke-width:1;"/><line style="stroke:#181818;stroke-width:1;" x1="195.0898" x2="195.0898" y1="178.7969" y2="198.7969"/><polygon fill="#181818" points="191.0898,188.7969,195.0898,198.7969,199.0898,188.7969,195.0898,192.7969" style="stroke:#181818;stroke-width:1;"/><line style="stroke:#181818;stroke-width:1;" x1="132.0349" x2="102.0527" y1="428.9023" y2="428.9023"/><line style="stroke:#181818;stroke-width:1;" x1="102.0527" x2="102.0527" y1="428.9023" y2="450.9023"/><polygon fill="#181818" points="98.0527,440.9023,102.0527,450.9023,106.0527,440.9023,102.0527,444.9023" style="stroke:#181818;stroke-width:1;"/><line style="stroke:#181818;stroke-width:1;" x1="258.1448" x2="288.127" y1="428.9023" y2="428.9023"/><line style="stroke:#181818;stroke-width:1;" x1="288.127" x2="288.127" y1="428.9023" y2="450.9023"/><polygon fill="#181818" points="284.127,440.9023,288.127,450.9023,292.127,440.9023,288.127,444.9023" style="stroke:#181818;stroke-width:1;"/><line style="stroke:#181818;stroke-width:1;" x1="102.0527" x2="102.0527" y1="485.9961" y2="503.9961"/><line style="stroke:#181818;stroke-width:1;" x1="102.0527" x2="183.0898" y1="503.9961" y2="503.9961"/><polygon fill="#181818" points="173.0898,499.9961,183.0898,503.9961,173.0898,507.9961,177.0898,503.9961" style="stroke:#181818;stroke-width:1;"/><line style="stroke:#181818;stroke-width:1;" x1="288.127" x2="288.127" y1="485.9961" y2="503.9961"/><line style="stroke:#181818;stroke-width:1;" x1="288.127" x2="207.0898" y1="503.9961" y2="503.9961"/><polygon fill="#181818" points="217.0898,499.9961,207.0898,503.9961,217.0898,507.9961,213.0898,503.9961" style="stroke:#181818;stroke-width:1;"/><line style="stroke:#181818;stroke-width:1;" x1="195.0898" x2="195.0898" y1="396.9023" y2="416.9023"/><polygon fill="#181818" points="191.0898,406.9023,195.0898,416.9023,199.0898,406.9023,195.0898,410.9023" style="stroke:#181818;stroke-width:1;"/><line style="stroke:#181818;stroke-width:1;" x1="195.0898" x2="195.0898" y1="515.9961" y2="535.9961"/><polygon fill="#181818" points="191.0898,525.9961,195.0898,535.9961,199.0898,525.9961,195.0898,529.9961" style="stroke:#181818;stroke-width:1;"/><line style="stroke:#181818;stroke-width:1;" x1="195.0898" x2="195.0898" y1="571.0898" y2="591.0898"/><polygon fill="#181818" points="191.0898,581.0898,195.0898,591.0898,199.0898,581.0898,195.0898,585.0898" style="stroke:#181818;stroke-width:1;"/><line style="stroke:#181818;stroke-width:1;" x1="195.0898" x2="195.0898" y1="626.1836" y2="646.1836"/><polygon fill="#181818" points="191.0898,636.1836,195.0898,646.1836,199.0898,636.1836,195.0898,640.1836" style="stroke:#181818;stroke-width:1;"/><line style="stroke:#181818;stroke-width:1;" x1="195.0898" x2="195.0898" y1="681.2773" y2="701.2773"/><polygon fill="#181818" points="191.0898,691.2773,195.0898,701.2773,199.0898,691.2773,195.0898,695.2773" style="stroke:#181818;stroke-width:1;"/><line style="stroke:#181818;stroke-width:1;" x1="195.0898" x2="195.0898" y1="736.3711" y2="756.3711"/><polygon fill="#181818" points="191.0898,746.3711,195.0898,756.3711,199.0898,746.3711,195.0898,750.3711" style="stroke:#181818;stroke-width:1;"/><line style="stroke:#181818;stroke-width:1;" x1="195.0898" x2="195.0898" y1="791.4648" y2="811.4648"/><polygon fill="#181818" points="191.0898,801.4648,195.0898,811.4648,199.0898,801.4648,195.0898,805.4648" style="stroke:#181818;stroke-width:1;"/><line style="stroke:#181818;stroke-width:1;" x1="195.0898" x2="195.0898" y1="890.5586" y2="915.4766"/><polygon fill="#181818" points="191.0898,905.4766,195.0898,915.4766,199.0898,905.4766,195.0898,909.4766" style="stroke:#181818;stroke-width:1;"/><line style="stroke:#181818;stroke-width:1;" x1="280.1475" x2="292.1475" y1="878.5586" y2="878.5586"/><polygon fill="#181818" points="288.1475,923.0234,292.1475,933.0234,296.1475,923.0234,292.1475,927.0234" style="stroke:#181818;stroke-width:1;"/><line style="stroke:#181818;stroke-width:1;" x1="292.1475" x2="292.1475" y1="878.5586" y2="982.5703"/><line style="stroke:#181818;stroke-width:1;" x1="292.1475" x2="207.0898" y1="982.5703" y2="982.5703"/><polygon fill="#181818" points="217.0898,978.5703,207.0898,982.5703,217.0898,986.5703,213.0898,982.5703" style="stroke:#181818;stroke-width:1;"/><line style="stroke:#181818;stroke-width:1;" x1="195.0898" x2="195.0898" y1="950.5703" y2="970.5703"/><polygon fill="#181818" points="191.0898,960.5703,195.0898,970.5703,199.0898,960.5703,195.0898,964.5703" style="stroke:#181818;stroke-width:1;"/><line style="stroke:#181818;stroke-width:1;" x1="195.0898" x2="195.0898" y1="846.5586" y2="866.5586"/><polygon fill="#181818" points="191.0898,856.5586,195.0898,866.5586,199.0898,856.5586,195.0898,860.5586" style="stroke:#181818;stroke-width:1;"/><line style="stroke:#181818;stroke-width:1;" x1="195.0898" x2="195.0898" y1="1038.5703" y2="1063.4883"/><polygon fill="#181818" points="191.0898,1053.4883,195.0898,1063.4883,199.0898,1053.4883,195.0898,1057.4883" style="stroke:#181818;stroke-width:1;"/><line style="stroke:#181818;stroke-width:1;" x1="254.1487" x2="294.7832" y1="1026.5703" y2="1026.5703"/><polygon fill="#181818" points="290.7832,1071.0352,294.7832,1081.0352,298.7832,1071.0352,294.7832,1075.0352" style="stroke:#181818;stroke-width:1;"/><line style="stroke:#181818;stroke-width:1;" x1="294.7832" x2="294.7832" y1="1026.5703" y2="1130.582"/><line style="stroke:#181818;stroke-width:1;" x1="294.7832" x2="207.0898" y1="1130.582" y2="1130.582"/><polygon fill="#181818" points="217.0898,1126.582,207.0898,1130.582,217.0898,1134.582,213.0898,1130.582" style="stroke:#181818;stroke-width:1;"/><line style="stroke:#181818;stroke-width:1;" x1="195.0898" x2="195.0898" y1="1098.582" y2="1118.582"/><polygon fill="#181818" points="191.0898,1108.582,195.0898,1118.582,199.0898,1108.582,195.0898,1112.582" style="stroke:#181818;stroke-width:1;"/><line style="stroke:#181818;stroke-width:1;" x1="195.0898" x2="195.0898" y1="994.5703" y2="1014.5703"/><polygon fill="#181818" points="191.0898,1004.5703,195.0898,1014.5703,199.0898,1004.5703,195.0898,1008.5703" style="stroke:#181818;stroke-width:1;"/><line style="stroke:#181818;stroke-width:1;" x1="195.0898" x2="195.0898" y1="1142.582" y2="1162.582"/><polygon fill="#181818" points="191.0898,1152.582,195.0898,1162.582,199.0898,1152.582,195.0898,1156.582" style="stroke:#181818;stroke-width:1;"/><?plantuml-src ZP7DJjj058NtVegxJ1Qq-sJ1erWJPqX6iiVMp3WjkrIGAhI163MjKYM5ycCIKPL4b3P08BoCPso_1MCdg3zikfoZS-ytvrn1X8qXEUgehPQSXT7zKFry0skWhkRotLWE5WONY0cZfFP2rVi55SHuMRy6L-hJ56p4XRcK3B811MsjOM6YMetX6X8OP7SIzyRHTI_zSW2l47DyRxq8eeuf55H_KZG0IcfdbF5tZzMmhKwQwZ0ivt9d9-stPVCk6Pt9xZxub3GmunZKrwFql5CsCAsIZILNVy7qY8TjGZLpTYc33FkC5DsUnlFFyAVxHHtHgerN8R2jznTaS9RROnroBqmU1h8LWkanryASFpcNy5BQ3ABhSsW8asyw5TS6UReT1sypnk-Q2EM2-Gwc8jCEjkNy5bnF49UQLXqH2Y-rfKei95ncMYuL-7Nkp8kHTyre_a5-3_HXul5xhSl9ZPfqCoooX2u5F9UJR1ki9cv-_3EHN4pb_KVvy2rkZLQdGhvmJOuQ_tSZ1srMS6x_gtVPdYQBHN9ndFPRiZtJMUN-M0qFdyqph6DPH1VD_Ggt6CdJyu8W3cR5fvrSkDuZ?></g></svg>