<?plantuml 1.2026.2?><svg xmlns="http://www.w3.org/2000/svg" xmlns:xlink="http://www.w3.org/1999/xlink" contentStyleType="text/css" data-diagram-type="DESCRIPTION" height="258px" preserveAspectRatio="none" style="width:1328px;height:258px;background:#FFFFFF;" version="1.1" viewBox="0 0 1328 258" width="1328px" zoomAndPan="magnify"><title>&#34892;&#24773;&#24037;&#20316;&#27969; - &#26550;&#26500;&#22270;</title><defs/><g><g class="title" data-source-line="1"><text fill="#000000" font-family="sans-serif" font-size="14" font-weight="bold" lengthAdjust="spacing" textLength="127.9414" x="593.0635" y="24.5332">&#34892;&#24773;&#24037;&#20316;&#27969; - &#26550;&#26500;&#22270;</text></g><!--entity Workflow--><g class="entity" data-qualified-name="Workflow" data-source-line="5" id="ent0002"><rect fill="#F1F1F1" height="37.6094" rx="2.5" ry="2.5" style="stroke:#181818;stroke-width:0.5;" width="120.3447" x="589" y="45.6094"/><text fill="#000000" font-family="sans-serif" font-size="14" lengthAdjust="spacing" textLength="100.3447" x="599" y="70.1426">MarketWorkflow</text></g><!--entity BarPipeline--><g class="entity" data-qualified-name="BarPipeline" data-source-line="6" id="ent0003"><rect fill="#F1F1F1" height="37.6094" rx="2.5" ry="2.5" style="stroke:#181818;stroke-width:0.5;" width="91.5996" x="7" y="187.6094"/><text fill="#000000" font-family="sans-serif" font-size="14" lengthAdjust="spacing" textLength="71.5996" x="17" y="212.1426">BarPipeline</text></g><!--entity Instrument--><g class="entity" data-qualified-name="Instrument" data-source-line="7" id="ent0004"><rect fill="#F1F1F1" height="37.6094" rx="2.5" ry="2.5" style="stroke:#181818;stroke-width:0.5;" width="141.3926" x="134.5" y="187.6094"/><text fill="#000000" font-family="sans-serif" font-size="14" lengthAdjust="spacing" textLength="121.3926" x="144.5" y="212.1426">InstrumentManager</text></g><!--entity Position--><g class="entity" data-qualified-name="Position" data-source-line="8" id="ent0005"><rect fill="#F1F1F1" height="37.6094" rx="2.5" ry="2.5" style="stroke:#181818;stroke-width:0.5;" width="134.4131" x="336" y="187.6094"/><text fill="#000000" font-family="sans-serif" font-size="14" lengthAdjust="spacing" textLength="114.4131" x="346" y="212.1426">PositionAggregate</text></g><!--entity Gateway--><g class="entity" data-qualified-name="Gateway" data-source-line="9" id="ent0006"><rect fill="#F1F1F1" height="55.2188" rx="2.5" ry="2.5" style="stroke:#181818;stroke-width:0.5;" width="125.834" x="505" y="179.1094"/><text fill="#000000" font-family="sans-serif" font-size="14" lengthAdjust="spacing" textLength="105.8135" x="515" y="203.6426">MarketGateway /</text><text fill="#000000" font-family="sans-serif" font-size="14" lengthAdjust="spacing" textLength="105.834" x="515" y="221.252">AccountGateway</text></g><!--entity SignalServices--><g class="entity" data-qualified-name="SignalServices" data-source-line="10" id="ent0007"><rect fill="#F1F1F1" height="55.2188" rx="2.5" ry="2.5" style="stroke:#181818;stroke-width:0.5;" width="128.1582" x="667" y="179.1094"/><text fill="#000000" font-family="sans-serif" font-size="14" lengthAdjust="spacing" textLength="108.1582" x="677" y="203.6426">IndicatorService /</text><text fill="#000000" font-family="sans-serif" font-size="14" lengthAdjust="spacing" textLength="85.5996" x="677" y="221.252">SignalService</text></g><!--entity DecisionServices--><g class="entity" data-qualified-name="DecisionServices" data-source-line="11" id="ent0008"><rect fill="#F1F1F1" height="90.4375" rx="2.5" ry="2.5" style="stroke:#181818;stroke-width:0.5;" width="120.3857" x="830" y="161.6094"/><text fill="#000000" font-family="sans-serif" font-size="14" lengthAdjust="spacing" textLength="100.3857" x="840" y="186.1426">OptionSelector /</text><text fill="#000000" font-family="sans-serif" font-size="14" lengthAdjust="spacing" textLength="50.5723" x="840" y="203.752">Pricing /</text><text fill="#000000" font-family="sans-serif" font-size="14" lengthAdjust="spacing" textLength="52.9033" x="840" y="221.3613">Greeks /</text><text fill="#000000" font-family="sans-serif" font-size="14" lengthAdjust="spacing" textLength="38.1309" x="840" y="238.9707">Sizing</text></g><!--entity Observability--><g class="entity" data-qualified-name="Observability" data-source-line="12" id="ent0009"><rect fill="#F1F1F1" height="55.2188" rx="2.5" ry="2.5" style="stroke:#181818;stroke-width:0.5;" width="117.2549" x="1023.5" y="179.1094"/><text fill="#000000" font-family="sans-serif" font-size="14" lengthAdjust="spacing" textLength="97.2549" x="1033.5" y="203.6426">DecisionTrace /</text><text fill="#000000" font-family="sans-serif" font-size="14" lengthAdjust="spacing" textLength="80.917" x="1033.5" y="221.252">Observability</text></g><!--entity RuntimeHooks--><g class="entity" data-qualified-name="RuntimeHooks" data-source-line="13" id="ent0010"><rect fill="#F1F1F1" height="55.2188" rx="2.5" ry="2.5" style="stroke:#181818;stroke-width:0.5;" width="146.0684" x="1176" y="179.1094"/><text fill="#000000" font-family="sans-serif" font-size="14" lengthAdjust="spacing" textLength="126.0684" x="1186" y="203.6426">Subscription hooks /</text><text fill="#000000" font-family="sans-serif" font-size="14" lengthAdjust="spacing" textLength="60.71" x="1186" y="221.252">AutoSave</text></g><!--link Workflow to BarPipeline--><g class="link" data-entity-1="ent0002" data-entity-2="ent0003" data-link-type="dependency" data-source-line="15" id="lnk11"><path d="M588.9,68.0094 C457.27,73.6994 152.02,89.3494 112,113.6094 C84.25,130.4294 69.382,160.2209 61.152,181.8709" fill="none" id="Workflow-to-BarPipeline" style="stroke:#181818;stroke-width:1;"/><polygon fill="#181818" points="59.02,187.4794,65.9569,180.488,60.7967,182.8057,58.479,177.6454,59.02,187.4794" style="stroke:#181818;stroke-width:1;"/><text fill="#000000" font-family="sans-serif" font-size="13" lengthAdjust="spacing" textLength="108.3481" x="113" y="128.1045">tick &#32858;&#21512; / bar &#36716;&#21457;</text></g><!--link Workflow to Instrument--><g class="link" data-entity-1="ent0002" data-entity-2="ent0004" data-link-type="dependency" data-source-line="16" id="lnk12"><path d="M588.91,65.6694 C490.13,66.9094 299.11,74.4794 246,113.6094 C222.07,131.2394 212.9886,160.1403 208.8186,181.5203" fill="none" id="Workflow-to-Instrument" style="stroke:#181818;stroke-width:1;"/><polygon fill="#181818" points="207.67,187.4094,213.3189,179.3416,208.6272,182.5018,205.4669,177.8101,207.67,187.4094" style="stroke:#181818;stroke-width:1;"/><text fill="#000000" font-family="sans-serif" font-size="13" lengthAdjust="spacing" textLength="177.7915" x="247" y="128.1045">update_bar / validate_universe</text></g><!--link Workflow to Position--><g class="link" data-entity-1="ent0002" data-entity-2="ent0005" data-link-type="dependency" data-source-line="17" id="lnk13"><path d="M588.66,66.5294 C545.03,70.1294 486.97,81.3494 447,113.6094 C423.72,132.3994 413.4637,160.6606 408.1837,181.6506" fill="none" id="Workflow-to-Position" style="stroke:#181818;stroke-width:1;"/><polygon fill="#181818" points="406.72,187.4694,412.7947,179.7171,407.9397,182.6204,405.0364,177.7655,406.72,187.4694" style="stroke:#181818;stroke-width:1;"/><text fill="#000000" font-family="sans-serif" font-size="13" lengthAdjust="spacing" textLength="101.8354" x="448" y="128.1045">&#26597;&#25345;&#20179; / &#20851;&#38381;&#20179;&#20301;</text></g><!--link Workflow to Gateway--><g class="link" data-entity-1="ent0002" data-entity-2="ent0006" data-link-type="dependency" data-source-line="18" id="lnk14"><path d="M596.94,83.8494 C583.91,91.0294 571.52,100.7294 564,113.6094 C552.56,133.2194 553.6906,153.5331 558.1706,172.9431" fill="none" id="Workflow-to-Gateway" style="stroke:#181818;stroke-width:1;"/><polygon fill="#181818" points="559.52,178.7894,561.3935,169.1203,558.3955,173.9175,553.5984,170.9195,559.52,178.7894" style="stroke:#181818;stroke-width:1;"/><text fill="#000000" font-family="sans-serif" font-size="13" lengthAdjust="spacing" textLength="123.5" x="565" y="128.1045">&#21512;&#32422;&#12289;tick&#12289;&#36134;&#25143;&#25968;&#25454;</text></g><!--link Workflow to SignalServices--><g class="link" data-entity-1="ent0002" data-entity-2="ent0007" data-link-type="dependency" data-source-line="19" id="lnk15"><path d="M668.65,83.9494 C676.93,92.4094 686.2,102.9294 693,113.6094 C706.08,134.1694 714.3344,154.3136 720.8644,173.3636" fill="none" id="Workflow-to-SignalServices" style="stroke:#181818;stroke-width:1;"/><polygon fill="#181818" points="722.81,179.0394,723.6755,169.2286,721.1887,174.3095,716.1078,171.8227,722.81,179.0394" style="stroke:#181818;stroke-width:1;"/><text fill="#000000" font-family="sans-serif" font-size="13" lengthAdjust="spacing" textLength="114.8354" x="704" y="128.1045">&#25351;&#26631;&#35745;&#31639; / &#20449;&#21495;&#21028;&#26029;</text></g><!--link Workflow to DecisionServices--><g class="link" data-entity-1="ent0002" data-entity-2="ent0008" data-link-type="dependency" data-source-line="20" id="lnk16"><path d="M709.16,71.2194 C745.94,77.0794 792.41,89.0794 827,113.6094 C844.21,125.8194 855.0934,139.1702 865.4634,156.3802" fill="none" id="Workflow-to-DecisionServices" style="stroke:#181818;stroke-width:1;"/><polygon fill="#181818" points="868.56,161.5194,867.3412,151.7462,865.9795,157.2367,860.489,155.8751,868.56,161.5194" style="stroke:#181818;stroke-width:1;"/><text fill="#000000" font-family="sans-serif" font-size="13" lengthAdjust="spacing" textLength="152.4072" x="847" y="128.1045">&#36873;&#32422; / &#23450;&#20215; / Greeks / &#20179;&#20301;</text></g><!--link Workflow to Observability--><g class="link" data-entity-1="ent0002" data-entity-2="ent0009" data-link-type="dependency" data-source-line="21" id="lnk17"><path d="M709.15,68.2794 C797.73,73.1094 958.15,85.5194 1008,113.6094 C1034.61,128.5994 1052.2529,152.1466 1064.9129,173.5266" fill="none" id="Workflow-to-Observability" style="stroke:#181818;stroke-width:1;"/><polygon fill="#181818" points="1067.97,178.6894,1066.8262,168.9072,1065.4224,174.3871,1059.9425,172.9833,1067.97,178.6894" style="stroke:#181818;stroke-width:1;"/><text fill="#000000" font-family="sans-serif" font-size="13" lengthAdjust="spacing" textLength="58.5127" x="1032" y="128.1045">&#21457;&#24067; trace</text></g><!--link Workflow to RuntimeHooks--><g class="link" data-entity-1="ent0002" data-entity-2="ent0010" data-link-type="dependency" data-source-line="22" id="lnk18"><path d="M709.22,68.7394 C814.69,74.7594 1028.34,89.5494 1099,113.6094 C1142.38,128.3794 1181.5994,153.8571 1210.6394,175.3771" fill="none" id="Workflow-to-RuntimeHooks" style="stroke:#181818;stroke-width:1;"/><polygon fill="#181818" points="1215.46,178.9494,1210.6106,170.3771,1211.4428,175.9724,1205.8475,176.8047,1215.46,178.9494" style="stroke:#181818;stroke-width:1;"/><text fill="#000000" font-family="sans-serif" font-size="13" lengthAdjust="spacing" textLength="152.4326" x="1139" y="128.1045">&#35746;&#38405;&#21047;&#26032; / autosave / &#24555;&#29031;</text></g><?plantuml-src RP9FQnD16CRl-obUSW-vzo14XEgXDBY25q4cc-bso6OcpCmcr5D33OsG4elOIfLgnDQ3DXJy4x74VXYpaysty9tTRhkhddRcdUVtli_CivhfW48y7fgTVZGzcS_Uc6yzA8Cv_cwEdqQlVpcgoNYRID82jKaQeiku3niaK3HtuebMMt3AjQkti9sadYRS3wZZN9z0QOt89jKFXMnk1A9R0g8WspZN19Hk4rbZRHemJXDDRf-NtUDAox25dTS89pwLYVYccjVMX6AQ2LxrVKbzejF6MJMlJ3skegHBjg3oY5SzJuGygoJSrRfefi4yeeLqgUmmZrhIPJudmLKX0GiLbUVNszQ8ImCi2MdfccIUVMbShafAcofj-GHhIQyxr6CgOVxjbfqza2IribvNA2Dr5Z2Ttg5GoRDkM5UUP8aVs1GY7LmDjN199xt6VNmFrg9txQ7ZP152kNmhdnMiW6PU4-BUKVHy01Me4mdnx7CqsYyoDv4X4hOR-BgFhRO27HAmP1jorg4I_xW2cEM7c7bxOeQz-SKBfAB-b-NX6QxdixqYaCMw0kXeyVFqztRFMiHF_FNK3ARcvRdPcnIPOcPsr73NlDkD9-F5v12dpI_7qMWQ3JwOWxCY-NT2o2wtd-5Owt5oDB-OuYBB5lxdjn2ITJtQZtxiWBQn5fNvI50OJzulN_KZlD71EVOcc9x2zEpWoq-B_iS_?></g></svg>