<?plantuml 1.2026.2?><svg xmlns="http://www.w3.org/2000/svg" xmlns:xlink="http://www.w3.org/1999/xlink" contentStyleType="text/css" data-diagram-type="SEQUENCE" height="605px" preserveAspectRatio="none" style="width:451px;height:605px;background:#FFFFFF;" version="1.1" viewBox="0 0 451 605" width="451px" zoomAndPan="magnify"><title>&#34892;&#24773;&#24037;&#20316;&#27969; - &#26102;&#38388;&#39537;&#21160;&#22270;</title><defs/><g><text fill="#000000" font-family="sans-serif" font-size="14" font-weight="bold" lengthAdjust="spacing" textLength="156.8164" x="143.408" y="29.5332">&#34892;&#24773;&#24037;&#20316;&#27969; - &#26102;&#38388;&#39537;&#21160;&#22270;</text><g class="participant-lifeline" data-entity-uid="part1" data-qualified-name="Clock" id="part1-lifeline"><g><title>.. . ....</title><rect fill="#000000" fill-opacity="0.00000" height="492.2188" width="8" x="55.8345" y="76.2188"/><line style="stroke:#181818;stroke-width:0.5;stroke-dasharray:5,5;" x1="59" x2="59" y1="76.2188" y2="568.4375"/></g></g><g class="participant-lifeline" data-entity-uid="part2" data-qualified-name="Workflow" id="part2-lifeline"><g><title>MarketWorkflow</title><rect fill="#000000" fill-opacity="0.00000" height="492.2188" width="8" x="253.9634" y="76.2188"/><line style="stroke:#181818;stroke-width:0.5;stroke-dasharray:5,5;" x1="257.791" x2="257.791" y1="76.2188" y2="568.4375"/></g></g><g class="participant participant-head" data-entity-uid="part1" data-qualified-name="Clock" id="part1-head"><rect fill="#E2E2F0" height="31.6094" rx="2.5" ry="2.5" style="stroke:#181818;stroke-width:0.5;" width="109.6689" x="5" y="43.6094"/><text fill="#000000" font-family="sans-serif" font-size="14" lengthAdjust="spacing" textLength="95.6689" x="12" y="65.1426">&#26102;&#38047; / &#24066;&#22330;&#26102;&#38388;</text></g><g class="participant participant-tail" data-entity-uid="part1" data-qualified-name="Clock" id="part1-tail"><rect fill="#E2E2F0" height="31.6094" rx="2.5" ry="2.5" style="stroke:#181818;stroke-width:0.5;" width="109.6689" x="5" y="567.4375"/><text fill="#000000" font-family="sans-serif" font-size="14" lengthAdjust="spacing" textLength="95.6689" x="12" y="588.9707">&#26102;&#38047; / &#24066;&#22330;&#26102;&#38388;</text></g><g class="participant participant-head" data-entity-uid="part2" data-qualified-name="Workflow" id="part2-head"><rect fill="#E2E2F0" height="31.6094" rx="2.5" ry="2.5" style="stroke:#181818;stroke-width:0.5;" width="114.3447" x="200.791" y="43.6094"/><text fill="#000000" font-family="sans-serif" font-size="14" lengthAdjust="spacing" textLength="100.3447" x="207.791" y="65.1426">MarketWorkflow</text></g><g class="participant participant-tail" data-entity-uid="part2" data-qualified-name="Workflow" id="part2-tail"><rect fill="#E2E2F0" height="31.6094" rx="2.5" ry="2.5" style="stroke:#181818;stroke-width:0.5;" width="114.3447" x="200.791" y="567.4375"/><text fill="#000000" font-family="sans-serif" font-size="14" lengthAdjust="spacing" textLength="100.3447" x="207.791" y="588.9707">MarketWorkflow</text></g><rect fill="#EEEEEE" height="3" style="stroke:#EEEEEE;stroke-width:1;" width="444.6323" x="0" y="107.3945"/><line style="stroke:#000000;stroke-width:1;" x1="0" x2="444.6323" y1="107.3945" y2="107.3945"/><line style="stroke:#000000;stroke-width:1;" x1="0" x2="444.6323" y1="110.3945" y2="110.3945"/><rect fill="#EEEEEE" height="24.3516" style="stroke:#000000;stroke-width:2;" width="71.2368" x="186.6978" y="96.2188"/><text fill="#000000" font-family="sans-serif" font-size="13" font-weight="bold" lengthAdjust="spacing" textLength="53.625" x="192.6978" y="113.7139">&#30424;&#20013;&#21608;&#26399;</text><g class="message" data-entity-1="part1" data-entity-2="part2" id="msg1"><polygon fill="#181818" points="245.9634,148.9219,255.9634,152.9219,245.9634,156.9219,249.9634,152.9219" style="stroke:#181818;stroke-width:1;"/><line style="stroke:#181818;stroke-width:1;" x1="59.8345" x2="251.9634" y1="152.9219" y2="152.9219"/><text fill="#000000" font-family="sans-serif" font-size="13" lengthAdjust="spacing" textLength="48.4009" x="66.8345" y="148.0654">bar &#21040;&#36798;</text></g><g class="message" data-entity-1="part2" data-entity-2="part2" id="msg2"><line style="stroke:#181818;stroke-width:1;" x1="257.9634" x2="299.9634" y1="183.2734" y2="183.2734"/><line style="stroke:#181818;stroke-width:1;" x1="299.9634" x2="299.9634" y1="183.2734" y2="196.2734"/><line style="stroke:#181818;stroke-width:1;" x1="258.9634" x2="299.9634" y1="196.2734" y2="196.2734"/><polygon fill="#181818" points="268.9634,192.2734,258.9634,196.2734,268.9634,200.2734,264.9634,196.2734" style="stroke:#181818;stroke-width:1;"/><text fill="#000000" font-family="sans-serif" font-size="13" lengthAdjust="spacing" textLength="76.5908" x="264.9634" y="178.417">on_bars &#20027;&#38142;</text></g><rect fill="#EEEEEE" height="3" style="stroke:#EEEEEE;stroke-width:1;" width="444.6323" x="0" y="225.4492"/><line style="stroke:#000000;stroke-width:1;" x1="0" x2="444.6323" y1="225.4492" y2="225.4492"/><line style="stroke:#000000;stroke-width:1;" x1="0" x2="444.6323" y1="228.4492" y2="228.4492"/><rect fill="#EEEEEE" height="24.3516" style="stroke:#000000;stroke-width:2;" width="71.2368" x="186.6978" y="214.2734"/><text fill="#000000" font-family="sans-serif" font-size="13" font-weight="bold" lengthAdjust="spacing" textLength="53.625" x="192.6978" y="231.7686">&#25351;&#23450;&#26102;&#21051;</text><g class="message" data-entity-1="part1" data-entity-2="part2" id="msg3"><polygon fill="#181818" points="245.9634,266.9766,255.9634,270.9766,245.9634,274.9766,249.9634,270.9766" style="stroke:#181818;stroke-width:1;"/><line style="stroke:#181818;stroke-width:1;" x1="59.8345" x2="251.9634" y1="270.9766" y2="270.9766"/><text fill="#000000" font-family="sans-serif" font-size="13" lengthAdjust="spacing" textLength="32.5317" x="66.8345" y="266.1201">14:50</text></g><g class="message" data-entity-1="part2" data-entity-2="part2" id="msg4"><line style="stroke:#181818;stroke-width:1;" x1="257.9634" x2="299.9634" y1="301.3281" y2="301.3281"/><line style="stroke:#181818;stroke-width:1;" x1="299.9634" x2="299.9634" y1="301.3281" y2="314.3281"/><line style="stroke:#181818;stroke-width:1;" x1="258.9634" x2="299.9634" y1="314.3281" y2="314.3281"/><polygon fill="#181818" points="268.9634,310.3281,258.9634,314.3281,268.9634,318.3281,264.9634,314.3281" style="stroke:#181818;stroke-width:1;"/><text fill="#000000" font-family="sans-serif" font-size="13" lengthAdjust="spacing" textLength="52" x="264.9634" y="296.4717">&#25442;&#26376;&#26816;&#26597;</text></g><rect fill="#EEEEEE" height="3" style="stroke:#EEEEEE;stroke-width:1;" width="444.6323" x="0" y="343.5039"/><line style="stroke:#000000;stroke-width:1;" x1="0" x2="444.6323" y1="343.5039" y2="343.5039"/><line style="stroke:#000000;stroke-width:1;" x1="0" x2="444.6323" y1="346.5039" y2="346.5039"/><rect fill="#EEEEEE" height="24.3516" style="stroke:#000000;stroke-width:2;" width="71.2368" x="186.6978" y="332.3281"/><text fill="#000000" font-family="sans-serif" font-size="13" font-weight="bold" lengthAdjust="spacing" textLength="53.625" x="192.6978" y="349.8232">&#20445;&#23384;&#21608;&#26399;</text><g class="message" data-entity-1="part1" data-entity-2="part2" id="msg5"><polygon fill="#181818" points="245.9634,385.0313,255.9634,389.0313,245.9634,393.0313,249.9634,389.0313" style="stroke:#181818;stroke-width:1;"/><line style="stroke:#181818;stroke-width:1;" x1="59.8345" x2="251.9634" y1="389.0313" y2="389.0313"/><text fill="#000000" font-family="sans-serif" font-size="13" lengthAdjust="spacing" textLength="108.3735" x="66.8345" y="384.1748">autosave &#21608;&#26399;&#21040;&#36798;</text></g><g class="message" data-entity-1="part2" data-entity-2="part2" id="msg6"><line style="stroke:#181818;stroke-width:1;" x1="257.9634" x2="299.9634" y1="419.3828" y2="419.3828"/><line style="stroke:#181818;stroke-width:1;" x1="299.9634" x2="299.9634" y1="419.3828" y2="432.3828"/><line style="stroke:#181818;stroke-width:1;" x1="258.9634" x2="299.9634" y1="432.3828" y2="432.3828"/><polygon fill="#181818" points="268.9634,428.3828,258.9634,432.3828,268.9634,436.3828,264.9634,432.3828" style="stroke:#181818;stroke-width:1;"/><text fill="#000000" font-family="sans-serif" font-size="13" lengthAdjust="spacing" textLength="73.709" x="264.9634" y="414.5264">maybe_save</text></g><rect fill="#EEEEEE" height="3" style="stroke:#EEEEEE;stroke-width:1;" width="444.6323" x="0" y="461.5586"/><line style="stroke:#000000;stroke-width:1;" x1="0" x2="444.6323" y1="461.5586" y2="461.5586"/><line style="stroke:#000000;stroke-width:1;" x1="0" x2="444.6323" y1="464.5586" y2="464.5586"/><rect fill="#EEEEEE" height="24.3516" style="stroke:#000000;stroke-width:2;" width="98.0493" x="173.2915" y="450.3828"/><text fill="#000000" font-family="sans-serif" font-size="13" font-weight="bold" lengthAdjust="spacing" textLength="80.4375" x="179.2915" y="467.8779">&#35746;&#38405;&#21047;&#26032;&#21608;&#26399;</text><g class="message" data-entity-1="part1" data-entity-2="part2" id="msg7"><polygon fill="#181818" points="245.9634,503.0859,255.9634,507.0859,245.9634,511.0859,249.9634,507.0859" style="stroke:#181818;stroke-width:1;"/><line style="stroke:#181818;stroke-width:1;" x1="59.8345" x2="251.9634" y1="507.0859" y2="507.0859"/><text fill="#000000" font-family="sans-serif" font-size="13" lengthAdjust="spacing" textLength="174.1289" x="66.8345" y="502.2295">subscription_refresh_sec &#21040;&#36798;</text></g><g class="message" data-entity-1="part2" data-entity-2="part2" id="msg8"><line style="stroke:#181818;stroke-width:1;" x1="257.9634" x2="299.9634" y1="537.4375" y2="537.4375"/><line style="stroke:#181818;stroke-width:1;" x1="299.9634" x2="299.9634" y1="537.4375" y2="550.4375"/><line style="stroke:#181818;stroke-width:1;" x1="258.9634" x2="299.9634" y1="550.4375" y2="550.4375"/><polygon fill="#181818" points="268.9634,546.4375,258.9634,550.4375,268.9634,554.4375,264.9634,550.4375" style="stroke:#181818;stroke-width:1;"/><text fill="#000000" font-family="sans-serif" font-size="13" lengthAdjust="spacing" textLength="172.6689" x="264.9634" y="532.5811">reconcile_subscriptions(timer)</text></g><?plantuml-src XP3FIiD048VlUOgX9pqK5VHIY1VFdZs6JTZYaZG9krl5ctye1ga75MomaM2bq1vQAgWj5kFBPDVaBKnJBFRGU9oPZsz-Cvnm2qFor9GN3J7knf-1V3k3CiZMUzfwJVilugedsf7Y8ig9GLnaSoZDXhSXR82Od8lWOywM037Oinp3N8Rt4JKnFt2eMRMSuvpwBHH5LU6xxSUJWRZfoI04LLLo1PHt5nHKG4SKX3TAeaXPT9S9nzOoY44ycQPtKIwMpKinVCZ22M-wIhorNTdPNEMKrnqPUFBvL8RTt1X_FOg1NnmLrRd3q166ELQSkePETApDyDoV33kftn3UMDwFYhUmkiuCIbnEiiCfhbBC3ZM6ZN--HB7Xs0Qnifr_16oDangcwpy0?></g></svg>