<?plantuml 1.2026.2?><svg xmlns="http://www.w3.org/2000/svg" xmlns:xlink="http://www.w3.org/1999/xlink" contentStyleType="text/css" data-diagram-type="CLASS" height="278px" preserveAspectRatio="none" style="width:741px;height:278px;background:#FFFFFF;" version="1.1" viewBox="0 0 741 278" width="741px" zoomAndPan="magnify"><title>&#29366;&#24577;&#24037;&#20316;&#27969; - &#23545;&#35937;&#32467;&#26500;&#22270;</title><defs/><g><g class="title" data-source-line="1"><text fill="#000000" font-family="sans-serif" font-size="14" font-weight="bold" lengthAdjust="spacing" textLength="156.8164" x="285.5498" y="24.5332">&#29366;&#24577;&#24037;&#20316;&#27969; - &#23545;&#35937;&#32467;&#26500;&#22270;</text></g><!--class Snapshot--><g class="entity" data-qualified-name="Snapshot" data-source-line="2" id="ent0002"><rect fill="#F1F1F1" height="118.4375" rx="2.5" ry="2.5" style="stroke:#181818;stroke-width:0.5;" width="166.1162" x="277" y="45.6094"/><ellipse cx="315.2291" cy="61.6094" fill="#ADD1B2" rx="11" ry="11" style="stroke:#181818;stroke-width:1;"/><path d="M317.9947,57.4844 Q318.1509,57.2656 318.3384,57.1563 Q318.5259,57.0469 318.7447,57.0469 Q319.1197,57.0469 319.3541,57.3125 Q319.5884,57.5625 319.5884,58.1719 L319.5884,59.625 Q319.5884,60.2344 319.3541,60.5 Q319.1197,60.7656 318.7447,60.7656 Q318.4009,60.7656 318.1978,60.5625 Q317.9947,60.375 317.8853,59.8594 Q317.8384,59.5 317.6509,59.3125 Q317.3228,58.9375 316.7134,58.7188 Q316.1041,58.5 315.4791,58.5 Q314.7134,58.5 314.0728,58.8281 Q313.4478,59.1563 312.9478,59.9063 Q312.4634,60.6563 312.4634,61.6875 L312.4634,62.7813 Q312.4634,64.0156 313.3541,64.8438 Q314.2447,65.6563 315.8384,65.6563 Q316.7759,65.6563 317.4322,65.4063 Q317.8228,65.25 318.2447,64.8125 Q318.5103,64.5469 318.6509,64.4688 Q318.8072,64.3906 319.0103,64.3906 Q319.3384,64.3906 319.5884,64.6563 Q319.8541,64.9063 319.8541,65.25 Q319.8541,65.5938 319.5103,66 Q319.0103,66.5781 318.2134,66.9063 Q317.1353,67.3594 315.8384,67.3594 Q314.3228,67.3594 313.1197,66.7344 Q312.1353,66.2344 311.4478,65.1719 Q310.7603,64.0938 310.7603,62.8125 L310.7603,61.6563 Q310.7603,60.3281 311.3697,59.1875 Q311.9947,58.0313 313.0884,57.4219 Q314.1822,56.7969 315.4166,56.7969 Q316.1509,56.7969 316.7916,56.9688 Q317.4478,57.125 317.9947,57.4844 Z " fill="#000000"/><text fill="#000000" font-family="sans-serif" font-size="14" lengthAdjust="spacing" textLength="82.4961" x="334.3911" y="67.3379">snapshot dict</text><line style="stroke:#181818;stroke-width:0.5;" x1="278" x2="442.1162" y1="77.6094" y2="77.6094"/><text fill="#000000" font-family="sans-serif" font-size="14" lengthAdjust="spacing" textLength="106.6406" x="283" y="96.1426">target_aggregate</text><text fill="#000000" font-family="sans-serif" font-size="14" lengthAdjust="spacing" textLength="119.0957" x="283" y="113.752">position_aggregate</text><text fill="#000000" font-family="sans-serif" font-size="14" lengthAdjust="spacing" textLength="63.0342" x="283" y="131.3613">current_dt</text><text fill="#000000" font-family="sans-serif" font-size="14" lengthAdjust="spacing" textLength="154.1162" x="283" y="148.9707">combination_aggregate?</text><line style="stroke:#181818;stroke-width:0.5;" x1="278" x2="442.1162" y1="156.0469" y2="156.0469"/></g><!--class Target--><g class="entity" data-qualified-name="Target" data-source-line="9" id="ent0003"><rect fill="#F1F1F1" height="48" rx="2.5" ry="2.5" style="stroke:#181818;stroke-width:0.5;" width="214.1025" x="7" y="223.6094"/><ellipse cx="22" cy="239.6094" fill="#ADD1B2" rx="11" ry="11" style="stroke:#181818;stroke-width:1;"/><path d="M24.7656,235.4844 Q24.9219,235.2656 25.1094,235.1563 Q25.2969,235.0469 25.5156,235.0469 Q25.8906,235.0469 26.125,235.3125 Q26.3594,235.5625 26.3594,236.1719 L26.3594,237.625 Q26.3594,238.2344 26.125,238.5 Q25.8906,238.7656 25.5156,238.7656 Q25.1719,238.7656 24.9688,238.5625 Q24.7656,238.375 24.6563,237.8594 Q24.6094,237.5 24.4219,237.3125 Q24.0938,236.9375 23.4844,236.7188 Q22.875,236.5 22.25,236.5 Q21.4844,236.5 20.8438,236.8281 Q20.2188,237.1563 19.7188,237.9063 Q19.2344,238.6563 19.2344,239.6875 L19.2344,240.7813 Q19.2344,242.0156 20.125,242.8438 Q21.0156,243.6563 22.6094,243.6563 Q23.5469,243.6563 24.2031,243.4063 Q24.5938,243.25 25.0156,242.8125 Q25.2813,242.5469 25.4219,242.4688 Q25.5781,242.3906 25.7813,242.3906 Q26.1094,242.3906 26.3594,242.6563 Q26.625,242.9063 26.625,243.25 Q26.625,243.5938 26.2813,244 Q25.7813,244.5781 24.9844,244.9063 Q23.9063,245.3594 22.6094,245.3594 Q21.0938,245.3594 19.8906,244.7344 Q18.9063,244.2344 18.2188,243.1719 Q17.5313,242.0938 17.5313,240.8125 L17.5313,239.6563 Q17.5313,238.3281 18.1406,237.1875 Q18.7656,236.0313 19.8594,235.4219 Q20.9531,234.7969 22.1875,234.7969 Q22.9219,234.7969 23.5625,234.9688 Q24.2188,235.125 24.7656,235.4844 Z " fill="#000000"/><text fill="#000000" font-family="sans-serif" font-size="14" lengthAdjust="spacing" textLength="182.1025" x="36" y="245.3379">InstrumentManager snapshot</text><line style="stroke:#181818;stroke-width:0.5;" x1="8" x2="220.1025" y1="255.6094" y2="255.6094"/><line style="stroke:#181818;stroke-width:0.5;" x1="8" x2="220.1025" y1="263.6094" y2="263.6094"/></g><!--class Position--><g class="entity" data-qualified-name="Position" data-source-line="10" id="ent0004"><rect fill="#F1F1F1" height="48" rx="2.5" ry="2.5" style="stroke:#181818;stroke-width:0.5;" width="207.123" x="256.5" y="223.6094"/><ellipse cx="271.5" cy="239.6094" fill="#ADD1B2" rx="11" ry="11" style="stroke:#181818;stroke-width:1;"/><path d="M274.2656,235.4844 Q274.4219,235.2656 274.6094,235.1563 Q274.7969,235.0469 275.0156,235.0469 Q275.3906,235.0469 275.625,235.3125 Q275.8594,235.5625 275.8594,236.1719 L275.8594,237.625 Q275.8594,238.2344 275.625,238.5 Q275.3906,238.7656 275.0156,238.7656 Q274.6719,238.7656 274.4688,238.5625 Q274.2656,238.375 274.1563,237.8594 Q274.1094,237.5 273.9219,237.3125 Q273.5938,236.9375 272.9844,236.7188 Q272.375,236.5 271.75,236.5 Q270.9844,236.5 270.3438,236.8281 Q269.7188,237.1563 269.2188,237.9063 Q268.7344,238.6563 268.7344,239.6875 L268.7344,240.7813 Q268.7344,242.0156 269.625,242.8438 Q270.5156,243.6563 272.1094,243.6563 Q273.0469,243.6563 273.7031,243.4063 Q274.0938,243.25 274.5156,242.8125 Q274.7813,242.5469 274.9219,242.4688 Q275.0781,242.3906 275.2813,242.3906 Q275.6094,242.3906 275.8594,242.6563 Q276.125,242.9063 276.125,243.25 Q276.125,243.5938 275.7813,244 Q275.2813,244.5781 274.4844,244.9063 Q273.4063,245.3594 272.1094,245.3594 Q270.5938,245.3594 269.3906,244.7344 Q268.4063,244.2344 267.7188,243.1719 Q267.0313,242.0938 267.0313,240.8125 L267.0313,239.6563 Q267.0313,238.3281 267.6406,237.1875 Q268.2656,236.0313 269.3594,235.4219 Q270.4531,234.7969 271.6875,234.7969 Q272.4219,234.7969 273.0625,234.9688 Q273.7188,235.125 274.2656,235.4844 Z " fill="#000000"/><text fill="#000000" font-family="sans-serif" font-size="14" lengthAdjust="spacing" textLength="175.123" x="285.5" y="245.3379">PositionAggregate snapshot</text><line style="stroke:#181818;stroke-width:0.5;" x1="257.5" x2="462.623" y1="255.6094" y2="255.6094"/><line style="stroke:#181818;stroke-width:0.5;" x1="257.5" x2="462.623" y1="263.6094" y2="263.6094"/></g><!--class Combination--><g class="entity" data-qualified-name="Combination" data-source-line="11" id="ent0005"><rect fill="#F1F1F1" height="48" rx="2.5" ry="2.5" style="stroke:#181818;stroke-width:0.5;" width="235.916" x="499" y="223.6094"/><ellipse cx="514" cy="239.6094" fill="#ADD1B2" rx="11" ry="11" style="stroke:#181818;stroke-width:1;"/><path d="M516.7656,235.4844 Q516.9219,235.2656 517.1094,235.1563 Q517.2969,235.0469 517.5156,235.0469 Q517.8906,235.0469 518.125,235.3125 Q518.3594,235.5625 518.3594,236.1719 L518.3594,237.625 Q518.3594,238.2344 518.125,238.5 Q517.8906,238.7656 517.5156,238.7656 Q517.1719,238.7656 516.9688,238.5625 Q516.7656,238.375 516.6563,237.8594 Q516.6094,237.5 516.4219,237.3125 Q516.0938,236.9375 515.4844,236.7188 Q514.875,236.5 514.25,236.5 Q513.4844,236.5 512.8438,236.8281 Q512.2188,237.1563 511.7188,237.9063 Q511.2344,238.6563 511.2344,239.6875 L511.2344,240.7813 Q511.2344,242.0156 512.125,242.8438 Q513.0156,243.6563 514.6094,243.6563 Q515.5469,243.6563 516.2031,243.4063 Q516.5938,243.25 517.0156,242.8125 Q517.2813,242.5469 517.4219,242.4688 Q517.5781,242.3906 517.7813,242.3906 Q518.1094,242.3906 518.3594,242.6563 Q518.625,242.9063 518.625,243.25 Q518.625,243.5938 518.2813,244 Q517.7813,244.5781 516.9844,244.9063 Q515.9063,245.3594 514.6094,245.3594 Q513.0938,245.3594 511.8906,244.7344 Q510.9063,244.2344 510.2188,243.1719 Q509.5313,242.0938 509.5313,240.8125 L509.5313,239.6563 Q509.5313,238.3281 510.1406,237.1875 Q510.7656,236.0313 511.8594,235.4219 Q512.9531,234.7969 514.1875,234.7969 Q514.9219,234.7969 515.5625,234.9688 Q516.2188,235.125 516.7656,235.4844 Z " fill="#000000"/><text fill="#000000" font-family="sans-serif" font-size="14" lengthAdjust="spacing" textLength="203.916" x="528" y="245.3379">CombinationAggregate snapshot</text><line style="stroke:#181818;stroke-width:0.5;" x1="500" x2="733.916" y1="255.6094" y2="255.6094"/><line style="stroke:#181818;stroke-width:0.5;" x1="500" x2="733.916" y1="263.6094" y2="263.6094"/></g><!--reverse link Snapshot to Target--><g class="link" data-entity-1="ent0002" data-entity-2="ent0003" data-link-type="composition" data-source-line="13" id="lnk6"><path codeLine="13" d="M266.3079,159.315 C225.0479,182.955 187.52,204.4694 154.42,223.4494" fill="none" id="Snapshot-backto-Target" style="stroke:#181818;stroke-width:1;"/><polygon fill="#181818" points="276.72,153.3494,269.5254,152.8615,266.3079,159.315,273.5025,159.8029,276.72,153.3494" style="stroke:#181818;stroke-width:1;"/></g><!--reverse link Snapshot to Position--><g class="link" data-entity-1="ent0002" data-entity-2="ent0004" data-link-type="composition" data-source-line="14" id="lnk7"><path codeLine="14" d="M360,175.7694 C360,196.7094 360,207.1494 360,223.3794" fill="none" id="Snapshot-backto-Position" style="stroke:#181818;stroke-width:1;"/><polygon fill="#181818" points="360,163.7694,356,169.7694,360,175.7694,364,169.7694,360,163.7694" style="stroke:#181818;stroke-width:1;"/></g><!--reverse link Snapshot to Combination--><g class="link" data-entity-1="ent0002" data-entity-2="ent0005" data-link-type="composition" data-source-line="15" id="lnk8"><path codeLine="15" d="M453.6101,156.9624 C497.6001,181.1024 539.23,203.9394 574.87,223.4994" fill="none" id="Snapshot-backto-Combination" style="stroke:#181818;stroke-width:1;"/><polygon fill="#181818" points="443.09,151.1894,446.4257,157.5826,453.6101,156.9624,450.2744,150.5692,443.09,151.1894" style="stroke:#181818;stroke-width:1;"/></g><?plantuml-src AyaioKbLUDwrxLb3uzFjIv_idVDiQwE2hiBJzJjVR5puVFVaP_DQdixUnvMSarXShA1Kd9TOK9oHNwAGafbSegIGMAmG31Efvb9GA4aiIayjYKzCJozAJKyiIGKA5UGNPvPavkUX22QN5XMbvfN4fvI0EFcvIPbvYQYAxBbgkM2MUkOLbnILvW8r-2Rc9QQd5Yd0d05sGGZOKfZY0AXzZZ2JK1N3f67AdH6Muz21f8AB2-vRBLrTcCKeOd3pKKIHp000?></g></svg>