<?plantuml 1.2026.2?><svg xmlns="http://www.w3.org/2000/svg" xmlns:xlink="http://www.w3.org/1999/xlink" contentStyleType="text/css" data-diagram-type="ACTIVITY" height="609px" preserveAspectRatio="none" style="width:269px;height:609px;background:#FFFFFF;" version="1.1" viewBox="0 0 269 609" width="269px" zoomAndPan="magnify"><title>&#29366;&#24577;&#24037;&#20316;&#27969; - &#27963;&#21160;&#22270;</title><defs/><g><g class="title" data-source-line="1"><text fill="#000000" font-family="sans-serif" font-size="14" font-weight="bold" lengthAdjust="spacing" textLength="127.9414" x="69.1648" y="34.5332">&#29366;&#24577;&#24037;&#20316;&#27969; - &#27963;&#21160;&#22270;</text></g><ellipse cx="140.5435" cy="58.6094" fill="#222222" rx="10" ry="10" style="stroke:#222222;stroke-width:1;"/><rect fill="#F1F1F1" height="35.0938" rx="12.5" ry="12.5" style="stroke:#181818;stroke-width:0.5;" width="235.4551" x="22.8159" y="88.6094"/><text fill="#000000" font-family="sans-serif" font-size="12" lengthAdjust="spacing" textLength="215.4551" x="32.8159" y="111.0664">&#36827;&#20837; create_snapshot / record_snapshot</text><rect fill="#F1F1F1" height="35.0938" rx="12.5" ry="12.5" style="stroke:#181818;stroke-width:0.5;" width="166.0742" x="57.5063" y="143.7031"/><text fill="#000000" font-family="sans-serif" font-size="12" lengthAdjust="spacing" textLength="146.0742" x="67.5063" y="166.1602">&#35835;&#21462; target_aggregate &#24555;&#29031;</text><rect fill="#F1F1F1" height="35.0938" rx="12.5" ry="12.5" style="stroke:#181818;stroke-width:0.5;" width="176.75" x="52.1685" y="198.7969"/><text fill="#000000" font-family="sans-serif" font-size="12" lengthAdjust="spacing" textLength="156.75" x="62.1685" y="221.2539">&#35835;&#21462; position_aggregate &#24555;&#29031;</text><rect fill="#F1F1F1" height="35.0938" rx="12.5" ry="12.5" style="stroke:#181818;stroke-width:0.5;" width="139.373" x="70.8569" y="302.8086"/><text fill="#000000" font-family="sans-serif" font-size="12" lengthAdjust="spacing" textLength="119.373" x="80.8569" y="325.2656">&#21152;&#20837; combination &#24555;&#29031;</text><polygon fill="#F1F1F1" points="67.4697,253.8906,213.6172,253.8906,225.6172,265.8906,213.6172,277.8906,67.4697,277.8906,55.4697,265.8906,67.4697,253.8906" style="stroke:#181818;stroke-width:0.5;"/><text fill="#000000" font-family="sans-serif" font-size="11" lengthAdjust="spacing" textLength="11" x="144.5435" y="289.3096">&#26159;</text><text fill="#000000" font-family="sans-serif" font-size="11" lengthAdjust="spacing" textLength="146.1475" x="67.4697" y="270.3916">combination_aggregate &#23384;&#22312;?</text><polygon fill="#F1F1F1" points="140.5435,357.9023,152.5435,369.9023,140.5435,381.9023,128.5435,369.9023,140.5435,357.9023" style="stroke:#181818;stroke-width:0.5;"/><rect fill="#F1F1F1" height="35.0938" rx="12.5" ry="12.5" style="stroke:#181818;stroke-width:0.5;" width="118.0449" x="81.521" y="401.9023"/><text fill="#000000" font-family="sans-serif" font-size="12" lengthAdjust="spacing" textLength="98.0449" x="91.521" y="424.3594">&#36820;&#22238; snapshot dict</text><polygon fill="#F1F1F1" points="106.6169,456.9961,174.47,456.9961,186.47,468.9961,174.47,480.9961,106.6169,480.9961,94.6169,468.9961,106.6169,456.9961" style="stroke:#181818;stroke-width:0.5;"/><text fill="#000000" font-family="sans-serif" font-size="11" lengthAdjust="spacing" textLength="67.853" x="106.6169" y="473.4971">monitor &#21487;&#29992;?</text><text fill="#000000" font-family="sans-serif" font-size="11" lengthAdjust="spacing" textLength="11" x="83.6169" y="466.5791">&#26159;</text><text fill="#000000" font-family="sans-serif" font-size="11" lengthAdjust="spacing" textLength="11" x="186.47" y="466.5791">&#21542;</text><rect fill="#F1F1F1" height="35.0938" rx="12.5" ry="12.5" style="stroke:#181818;stroke-width:0.5;" width="136.7246" x="11" y="490.9961"/><text fill="#000000" font-family="sans-serif" font-size="12" lengthAdjust="spacing" textLength="116.7246" x="21" y="513.4531">&#35843;&#29992; record_snapshot</text><rect fill="#F1F1F1" height="35.0938" rx="12.5" ry="12.5" style="stroke:#181818;stroke-width:0.5;" width="68" x="167.7246" y="490.9961"/><text fill="#000000" font-family="sans-serif" font-size="12" lengthAdjust="spacing" textLength="48" x="177.7246" y="513.4531">&#30452;&#25509;&#32467;&#26463;</text><polygon fill="#F1F1F1" points="140.5435,532.0898,152.5435,544.0898,140.5435,556.0898,128.5435,544.0898,140.5435,532.0898" style="stroke:#181818;stroke-width:0.5;"/><ellipse cx="140.5435" cy="587.0898" fill="none" rx="11" ry="11" style="stroke:#222222;stroke-width:1;"/><ellipse cx="140.5435" cy="587.0898" fill="#222222" rx="6" ry="6" style="stroke:#222222;stroke-width:1;"/><line style="stroke:#181818;stroke-width:1;" x1="140.5435" x2="140.5435" y1="68.6094" y2="88.6094"/><polygon fill="#181818" points="136.5435,78.6094,140.5435,88.6094,144.5435,78.6094,140.5435,82.6094" style="stroke:#181818;stroke-width:1;"/><line style="stroke:#181818;stroke-width:1;" x1="140.5435" x2="140.5435" y1="123.7031" y2="143.7031"/><polygon fill="#181818" points="136.5435,133.7031,140.5435,143.7031,144.5435,133.7031,140.5435,137.7031" style="stroke:#181818;stroke-width:1;"/><line style="stroke:#181818;stroke-width:1;" x1="140.5435" x2="140.5435" y1="178.7969" y2="198.7969"/><polygon fill="#181818" points="136.5435,188.7969,140.5435,198.7969,144.5435,188.7969,140.5435,192.7969" style="stroke:#181818;stroke-width:1;"/><line style="stroke:#181818;stroke-width:1;" x1="140.5435" x2="140.5435" y1="277.8906" y2="302.8086"/><polygon fill="#181818" points="136.5435,292.8086,140.5435,302.8086,144.5435,292.8086,140.5435,296.8086" style="stroke:#181818;stroke-width:1;"/><line style="stroke:#181818;stroke-width:1;" x1="225.6172" x2="237.6172" y1="265.8906" y2="265.8906"/><polygon fill="#181818" points="233.6172,310.3555,237.6172,320.3555,241.6172,310.3555,237.6172,314.3555" style="stroke:#181818;stroke-width:1;"/><line style="stroke:#181818;stroke-width:1;" x1="237.6172" x2="237.6172" y1="265.8906" y2="369.9023"/><line style="stroke:#181818;stroke-width:1;" x1="237.6172" x2="152.5435" y1="369.9023" y2="369.9023"/><polygon fill="#181818" points="162.5435,365.9023,152.5435,369.9023,162.5435,373.9023,158.5435,369.9023" style="stroke:#181818;stroke-width:1;"/><line style="stroke:#181818;stroke-width:1;" x1="140.5435" x2="140.5435" y1="337.9023" y2="357.9023"/><polygon fill="#181818" points="136.5435,347.9023,140.5435,357.9023,144.5435,347.9023,140.5435,351.9023" style="stroke:#181818;stroke-width:1;"/><line style="stroke:#181818;stroke-width:1;" x1="140.5435" x2="140.5435" y1="233.8906" y2="253.8906"/><polygon fill="#181818" points="136.5435,243.8906,140.5435,253.8906,144.5435,243.8906,140.5435,247.8906" style="stroke:#181818;stroke-width:1;"/><line style="stroke:#181818;stroke-width:1;" x1="140.5435" x2="140.5435" y1="381.9023" y2="401.9023"/><polygon fill="#181818" points="136.5435,391.9023,140.5435,401.9023,144.5435,391.9023,140.5435,395.9023" style="stroke:#181818;stroke-width:1;"/><line style="stroke:#181818;stroke-width:1;" x1="94.6169" x2="79.3623" y1="468.9961" y2="468.9961"/><line style="stroke:#181818;stroke-width:1;" x1="79.3623" x2="79.3623" y1="468.9961" y2="490.9961"/><polygon fill="#181818" points="75.3623,480.9961,79.3623,490.9961,83.3623,480.9961,79.3623,484.9961" style="stroke:#181818;stroke-width:1;"/><line style="stroke:#181818;stroke-width:1;" x1="186.47" x2="201.7246" y1="468.9961" y2="468.9961"/><line style="stroke:#181818;stroke-width:1;" x1="201.7246" x2="201.7246" y1="468.9961" y2="490.9961"/><polygon fill="#181818" points="197.7246,480.9961,201.7246,490.9961,205.7246,480.9961,201.7246,484.9961" style="stroke:#181818;stroke-width:1;"/><line style="stroke:#181818;stroke-width:1;" x1="79.3623" x2="79.3623" y1="526.0898" y2="544.0898"/><line style="stroke:#181818;stroke-width:1;" x1="79.3623" x2="128.5435" y1="544.0898" y2="544.0898"/><polygon fill="#181818" points="118.5435,540.0898,128.5435,544.0898,118.5435,548.0898,122.5435,544.0898" style="stroke:#181818;stroke-width:1;"/><line style="stroke:#181818;stroke-width:1;" x1="201.7246" x2="201.7246" y1="526.0898" y2="544.0898"/><line style="stroke:#181818;stroke-width:1;" x1="201.7246" x2="152.5435" y1="544.0898" y2="544.0898"/><polygon fill="#181818" points="162.5435,540.0898,152.5435,544.0898,162.5435,548.0898,158.5435,544.0898" style="stroke:#181818;stroke-width:1;"/><line style="stroke:#181818;stroke-width:1;" x1="140.5435" x2="140.5435" y1="436.9961" y2="456.9961"/><polygon fill="#181818" points="136.5435,446.9961,140.5435,456.9961,144.5435,446.9961,140.5435,450.9961" style="stroke:#181818;stroke-width:1;"/><line style="stroke:#181818;stroke-width:1;" x1="140.5435" x2="140.5435" y1="556.0898" y2="576.0898"/><polygon fill="#181818" points="136.5435,566.0898,140.5435,576.0898,144.5435,566.0898,140.5435,570.0898" style="stroke:#181818;stroke-width:1;"/><?plantuml-src RO_BIiD058RtUOgpJ1VYlbtuA6LCJjE1TYRCd0UmI3TPMA552gcNJRGW4XTL5q7xCfwPFaPZm1Iisv_llv6a4OBFtjt5X3-Axy-LUvl02RXDnTcQyw_0aZ0KT7VRdAS5H0O5OTygaTgX9ZW5Wv4sSQlqQhIiU7O3jIz1weiaCPZK9k3jivy-7O1KMqbIgtyGEO0mqkDpgSHVucN9g_LP1sY82aAtB3i1G9UpXsRUmTDceOhbuEV0WlCxQ9V7Cgh7DarZhIHf0pmh_U8uU_TwMSl7Ht5a4KA-Vcmeds_SLU6hkRkz_osrfDCz?></g></svg>