<?plantuml 1.2026.2?><svg xmlns="http://www.w3.org/2000/svg" xmlns:xlink="http://www.w3.org/1999/xlink" contentStyleType="text/css" data-diagram-type="ACTIVITY" height="359px" preserveAspectRatio="none" style="width:370px;height:359px;background:#FFFFFF;" version="1.1" viewBox="0 0 370 359" width="370px" zoomAndPan="magnify"><title>&#29366;&#24577;&#24037;&#20316;&#27969; - &#20998;&#25903;&#21028;&#23450;&#22270;</title><defs/><g><g class="title" data-source-line="1"><text fill="#000000" font-family="sans-serif" font-size="14" font-weight="bold" lengthAdjust="spacing" textLength="156.8164" x="105.3647" y="34.5332">&#29366;&#24577;&#24037;&#20316;&#27969; - &#20998;&#25903;&#21028;&#23450;&#22270;</text></g><ellipse cx="218.4722" cy="58.6094" fill="#222222" rx="10" ry="10" style="stroke:#222222;stroke-width:1;"/><polygon fill="#F1F1F1" points="145.3984,88.6094,291.5459,88.6094,303.5459,100.6094,291.5459,112.6094,145.3984,112.6094,133.3984,100.6094,145.3984,88.6094" style="stroke:#181818;stroke-width:0.5;"/><text fill="#000000" font-family="sans-serif" font-size="11" lengthAdjust="spacing" textLength="146.1475" x="145.3984" y="105.1104">combination_aggregate &#23384;&#22312;?</text><text fill="#000000" font-family="sans-serif" font-size="11" lengthAdjust="spacing" textLength="11" x="122.3984" y="98.1924">&#26159;</text><text fill="#000000" font-family="sans-serif" font-size="11" lengthAdjust="spacing" textLength="11" x="303.5459" y="98.1924">&#21542;</text><rect fill="#F1F1F1" height="35.0938" rx="12.5" ry="12.5" style="stroke:#181818;stroke-width:0.5;" width="224.7969" x="11" y="122.6094"/><text fill="#000000" font-family="sans-serif" font-size="12" lengthAdjust="spacing" textLength="204.7969" x="21" y="145.0664">&#36755;&#20986; combination_aggregate snapshot</text><rect fill="#F1F1F1" height="35.0938" rx="12.5" ry="12.5" style="stroke:#181818;stroke-width:0.5;" width="92" x="267.5459" y="122.6094"/><text fill="#000000" font-family="sans-serif" font-size="12" lengthAdjust="spacing" textLength="72" x="277.5459" y="145.0664">&#36339;&#36807;&#32452;&#21512;&#24555;&#29031;</text><polygon fill="#F1F1F1" points="218.4722,163.7031,230.4722,175.7031,218.4722,187.7031,206.4722,175.7031,218.4722,163.7031" style="stroke:#181818;stroke-width:0.5;"/><polygon fill="#F1F1F1" points="184.5457,207.7031,252.3987,207.7031,264.3987,219.7031,252.3987,231.7031,184.5457,231.7031,172.5457,219.7031,184.5457,207.7031" style="stroke:#181818;stroke-width:0.5;"/><text fill="#000000" font-family="sans-serif" font-size="11" lengthAdjust="spacing" textLength="67.853" x="184.5457" y="224.2041">monitor &#21487;&#29992;?</text><text fill="#000000" font-family="sans-serif" font-size="11" lengthAdjust="spacing" textLength="11" x="161.5457" y="217.2861">&#26159;</text><text fill="#000000" font-family="sans-serif" font-size="11" lengthAdjust="spacing" textLength="11" x="264.3987" y="217.2861">&#21542;</text><rect fill="#F1F1F1" height="35.0938" rx="12.5" ry="12.5" style="stroke:#181818;stroke-width:0.5;" width="116" x="99.6353" y="241.7031"/><text fill="#000000" font-family="sans-serif" font-size="12" lengthAdjust="spacing" textLength="96" x="109.6353" y="264.1602">&#23581;&#35797;&#35760;&#24405;&#30417;&#25511;&#24555;&#29031;</text><rect fill="#F1F1F1" height="35.0938" rx="12.5" ry="12.5" style="stroke:#181818;stroke-width:0.5;" width="87.3477" x="235.6353" y="241.7031"/><text fill="#000000" font-family="sans-serif" font-size="12" lengthAdjust="spacing" textLength="67.3477" x="245.6353" y="264.1602">&#36339;&#36807; monitor</text><polygon fill="#F1F1F1" points="218.4722,282.7969,230.4722,294.7969,218.4722,306.7969,206.4722,294.7969,218.4722,282.7969" style="stroke:#181818;stroke-width:0.5;"/><ellipse cx="218.4722" cy="337.7969" fill="none" rx="11" ry="11" style="stroke:#222222;stroke-width:1;"/><ellipse cx="218.4722" cy="337.7969" fill="#222222" rx="6" ry="6" style="stroke:#222222;stroke-width:1;"/><line style="stroke:#181818;stroke-width:1;" x1="133.3984" x2="123.3984" y1="100.6094" y2="100.6094"/><line style="stroke:#181818;stroke-width:1;" x1="123.3984" x2="123.3984" y1="100.6094" y2="122.6094"/><polygon fill="#181818" points="119.3984,112.6094,123.3984,122.6094,127.3984,112.6094,123.3984,116.6094" style="stroke:#181818;stroke-width:1;"/><line style="stroke:#181818;stroke-width:1;" x1="303.5459" x2="313.5459" y1="100.6094" y2="100.6094"/><line style="stroke:#181818;stroke-width:1;" x1="313.5459" x2="313.5459" y1="100.6094" y2="122.6094"/><polygon fill="#181818" points="309.5459,112.6094,313.5459,122.6094,317.5459,112.6094,313.5459,116.6094" style="stroke:#181818;stroke-width:1;"/><line style="stroke:#181818;stroke-width:1;" x1="123.3984" x2="123.3984" y1="157.7031" y2="175.7031"/><line style="stroke:#181818;stroke-width:1;" x1="123.3984" x2="206.4722" y1="175.7031" y2="175.7031"/><polygon fill="#181818" points="196.4722,171.7031,206.4722,175.7031,196.4722,179.7031,200.4722,175.7031" style="stroke:#181818;stroke-width:1;"/><line style="stroke:#181818;stroke-width:1;" x1="313.5459" x2="313.5459" y1="157.7031" y2="175.7031"/><line style="stroke:#181818;stroke-width:1;" x1="313.5459" x2="230.4722" y1="175.7031" y2="175.7031"/><polygon fill="#181818" points="240.4722,171.7031,230.4722,175.7031,240.4722,179.7031,236.4722,175.7031" style="stroke:#181818;stroke-width:1;"/><line style="stroke:#181818;stroke-width:1;" x1="218.4722" x2="218.4722" y1="68.6094" y2="88.6094"/><polygon fill="#181818" points="214.4722,78.6094,218.4722,88.6094,222.4722,78.6094,218.4722,82.6094" style="stroke:#181818;stroke-width:1;"/><line style="stroke:#181818;stroke-width:1;" x1="172.5457" x2="157.6353" y1="219.7031" y2="219.7031"/><line style="stroke:#181818;stroke-width:1;" x1="157.6353" x2="157.6353" y1="219.7031" y2="241.7031"/><polygon fill="#181818" points="153.6353,231.7031,157.6353,241.7031,161.6353,231.7031,157.6353,235.7031" style="stroke:#181818;stroke-width:1;"/><line style="stroke:#181818;stroke-width:1;" x1="264.3987" x2="279.3091" y1="219.7031" y2="219.7031"/><line style="stroke:#181818;stroke-width:1;" x1="279.3091" x2="279.3091" y1="219.7031" y2="241.7031"/><polygon fill="#181818" points="275.3091,231.7031,279.3091,241.7031,283.3091,231.7031,279.3091,235.7031" style="stroke:#181818;stroke-width:1;"/><line style="stroke:#181818;stroke-width:1;" x1="157.6353" x2="157.6353" y1="276.7969" y2="294.7969"/><line style="stroke:#181818;stroke-width:1;" x1="157.6353" x2="206.4722" y1="294.7969" y2="294.7969"/><polygon fill="#181818" points="196.4722,290.7969,206.4722,294.7969,196.4722,298.7969,200.4722,294.7969" style="stroke:#181818;stroke-width:1;"/><line style="stroke:#181818;stroke-width:1;" x1="279.3091" x2="279.3091" y1="276.7969" y2="294.7969"/><line style="stroke:#181818;stroke-width:1;" x1="279.3091" x2="230.4722" y1="294.7969" y2="294.7969"/><polygon fill="#181818" points="240.4722,290.7969,230.4722,294.7969,240.4722,298.7969,236.4722,294.7969" style="stroke:#181818;stroke-width:1;"/><line style="stroke:#181818;stroke-width:1;" x1="218.4722" x2="218.4722" y1="187.7031" y2="207.7031"/><polygon fill="#181818" points="214.4722,197.7031,218.4722,207.7031,222.4722,197.7031,218.4722,201.7031" style="stroke:#181818;stroke-width:1;"/><line style="stroke:#181818;stroke-width:1;" x1="218.4722" x2="218.4722" y1="306.7969" y2="326.7969"/><polygon fill="#181818" points="214.4722,316.7969,218.4722,326.7969,222.4722,316.7969,218.4722,320.7969" style="stroke:#181818;stroke-width:1;"/><?plantuml-src ROvBQW9154NdjOetR0Tk80vSYfIcR0kqgkbw2uZWft7W1nL4svc9GeWjX4I8g9lnLVKo354pqVazvroKM1NWEj_sfKxRrzC-jbzro095BJjAA5hGUagp0pF8GsIo35v9rufISPHQ5RZlXyBdA80-9XIlyXd0Yb3WsKcIOG1FwM58xHzup1Z50rFHc6EYQWHur7-xGDlFzDXskmRr8pg-k-RoTw6UPPdz7QXf9L67GBt4ZUwJj9cdoJXTRsW_ThE1xIx_7GygSBNT2WPrS0O0?></g></svg>