<?plantuml 1.2026.2?><svg xmlns="http://www.w3.org/2000/svg" xmlns:xlink="http://www.w3.org/1999/xlink" contentStyleType="text/css" data-diagram-type="DESCRIPTION" height="205px" preserveAspectRatio="none" style="width:822px;height:205px;background:#FFFFFF;" version="1.1" viewBox="0 0 822 205" width="822px" zoomAndPan="magnify"><title>&#29366;&#24577;&#24037;&#20316;&#27969; - &#26550;&#26500;&#22270;</title><defs/><g><g class="title" data-source-line="1"><text fill="#000000" font-family="sans-serif" font-size="14" font-weight="bold" lengthAdjust="spacing" textLength="127.9414" x="340.2793" y="24.5332">&#29366;&#24577;&#24037;&#20316;&#27969; - &#26550;&#26500;&#22270;</text></g><!--entity Workflow--><g class="entity" data-qualified-name="Workflow" data-source-line="5" id="ent0002"><rect fill="#F1F1F1" height="37.6094" rx="2.5" ry="2.5" style="stroke:#181818;stroke-width:0.5;" width="110.248" x="379.5" y="45.6094"/><text fill="#000000" font-family="sans-serif" font-size="14" lengthAdjust="spacing" textLength="90.248" x="389.5" y="70.1426">StateWorkflow</text></g><!--entity Instrument--><g class="entity" data-qualified-name="Instrument" data-source-line="6" id="ent0003"><rect fill="#F1F1F1" height="37.6094" rx="2.5" ry="2.5" style="stroke:#181818;stroke-width:0.5;" width="141.3926" x="7" y="161.6094"/><text fill="#000000" font-family="sans-serif" font-size="14" lengthAdjust="spacing" textLength="121.3926" x="17" y="186.1426">InstrumentManager</text></g><!--entity Position--><g class="entity" data-qualified-name="Position" data-source-line="7" id="ent0004"><rect fill="#F1F1F1" height="37.6094" rx="2.5" ry="2.5" style="stroke:#181818;stroke-width:0.5;" width="134.4131" x="183.5" y="161.6094"/><text fill="#000000" font-family="sans-serif" font-size="14" lengthAdjust="spacing" textLength="114.4131" x="193.5" y="186.1426">PositionAggregate</text></g><!--entity Combination--><g class="entity" data-qualified-name="Combination" data-source-line="8" id="ent0005"><rect fill="#F1F1F1" height="37.6094" rx="2.5" ry="2.5" style="stroke:#181818;stroke-width:0.5;" width="163.2061" x="353" y="161.6094"/><text fill="#000000" font-family="sans-serif" font-size="14" lengthAdjust="spacing" textLength="143.2061" x="363" y="186.1426">CombinationAggregate</text></g><!--entity Monitor--><g class="entity" data-qualified-name="Monitor" data-source-line="9" id="ent0006"><rect fill="#F1F1F1" height="37.6094" rx="2.5" ry="2.5" style="stroke:#181818;stroke-width:0.5;" width="118.8203" x="551" y="161.6094"/><text fill="#000000" font-family="sans-serif" font-size="14" lengthAdjust="spacing" textLength="98.8203" x="561" y="186.1426">StrategyMonitor</text></g><!--entity Snapshot--><g class="entity" data-qualified-name="Snapshot" data-source-line="10" id="ent0007"><rect fill="#F1F1F1" height="37.6094" rx="2.5" ry="2.5" style="stroke:#181818;stroke-width:0.5;" width="104.834" x="710" y="161.6094"/><text fill="#000000" font-family="sans-serif" font-size="14" lengthAdjust="spacing" textLength="84.834" x="720" y="186.1426">Snapshot dict</text></g><!--link Workflow to Instrument--><g class="link" data-entity-1="ent0002" data-entity-2="ent0003" data-link-type="dependency" data-source-line="12" id="lnk8"><path d="M379.22,75.8694 C337.77,84.2194 279.9,97.2794 230.5,113.6094 C189.71,127.0894 150.1835,144.5731 119.6235,159.0331" fill="none" id="Workflow-to-Instrument" style="stroke:#181818;stroke-width:1;"/><polygon fill="#181818" points="114.2,161.5994,124.0461,161.3657,118.7196,159.4609,120.6244,154.1344,114.2,161.5994" style="stroke:#181818;stroke-width:1;"/><text fill="#000000" font-family="sans-serif" font-size="13" lengthAdjust="spacing" textLength="79.4917" x="231.5" y="128.1045">to_snapshot()</text></g><!--link Workflow to Position--><g class="link" data-entity-1="ent0002" data-entity-2="ent0004" data-link-type="dependency" data-source-line="13" id="lnk9"><path d="M398.9,83.6394 C382.41,92.2794 362.7,103.0394 345.5,113.6094 C320.86,128.7494 298.7346,144.2134 279.8446,157.9334" fill="none" id="Workflow-to-Position" style="stroke:#181818;stroke-width:1;"/><polygon fill="#181818" points="274.99,161.4594,284.6226,159.4068,279.0355,158.5211,279.9213,152.934,274.99,161.4594" style="stroke:#181818;stroke-width:1;"/><text fill="#000000" font-family="sans-serif" font-size="13" lengthAdjust="spacing" textLength="79.4917" x="346.5" y="128.1045">to_snapshot()</text></g><!--link Workflow to Combination--><g class="link" data-entity-1="ent0002" data-entity-2="ent0005" data-link-type="dependency" data-source-line="14" id="lnk10"><path d="M434.5,83.6694 C434.5,104.8894 434.5,133.9094 434.5,155.2494" fill="none" id="Workflow-to-Combination" style="stroke:#181818;stroke-width:1;"/><polygon fill="#181818" points="434.5,161.2494,438.5,152.2494,434.5,156.2494,430.5,152.2494,434.5,161.2494" style="stroke:#181818;stroke-width:1;"/><text fill="#000000" font-family="sans-serif" font-size="13" lengthAdjust="spacing" textLength="109.1035" x="435.5" y="128.1045">&#21487;&#36873; to_snapshot()</text></g><!--link Workflow to Snapshot--><g class="link" data-entity-1="ent0002" data-entity-2="ent0007" data-link-type="dependency" data-source-line="15" id="lnk11"><path d="M489.51,65.7894 C545.49,68.1394 633.22,77.9194 699.5,113.6094 C720.7,125.0194 735.3583,141.3283 746.6783,156.6083" fill="none" id="Workflow-to-Snapshot" style="stroke:#181818;stroke-width:1;"/><polygon fill="#181818" points="750.25,161.4294,748.1066,151.8166,747.2736,157.4118,741.6784,156.5788,750.25,161.4294" style="stroke:#181818;stroke-width:1;"/><text fill="#000000" font-family="sans-serif" font-size="13" lengthAdjust="spacing" textLength="91" x="723.5" y="128.1045">&#32452;&#35013;&#25345;&#20037;&#21270;&#32467;&#26500;</text></g><!--link Workflow to Monitor--><g class="link" data-entity-1="ent0002" data-entity-2="ent0006" data-link-type="dependency" data-source-line="16" id="lnk12"><path d="M489.71,81.6994 C510.81,89.3794 534.38,99.9394 553.5,113.6094 C571.85,126.7294 584.6645,142.0556 595.0845,156.6556" fill="none" id="Workflow-to-Monitor" style="stroke:#181818;stroke-width:1;"/><polygon fill="#181818" points="598.57,161.5394,596.5975,151.8901,595.6654,157.4696,590.0859,156.5374,598.57,161.5394" style="stroke:#181818;stroke-width:1;"/><text fill="#000000" font-family="sans-serif" font-size="13" lengthAdjust="spacing" textLength="116.3335" x="574.5" y="128.1045">record_snapshot(...)</text></g><?plantuml-src VT4nIyD050VmFP_YqSaEoGVe88YJGq78u2XdShqUJUwLkoUbMmFje1GS11UbYpWxMP6YdwP9z5jun2Qz87IxU-ztZ__ZI5B2eRnT5xCiVt_PVZuLRnduKApMnMgUFtvvPYJLc6cMWXco62TI2HYmn72d4s4wHiKLXJIrupIFY2cHSCzhEj09YH6_G3qQ93Zf03DGNxpc0NJEb25zdTeNVQQOuBgI-wfhpz58agXEXD1SsEcLhQkkFCNqIYhs7piDruUahH3JFYf9-9TXTsunnSPcY0InZAX2TSNpwkN0zu-T_D03makpOqVTjgkp7rPEQ0lpkzUVsSqXtyJiGRcPVpylYcMs_LZaouToSs-_kQrtUrfiDqKTxyS6GT3z1G00?></g></svg>