<?plantuml 1.2026.2?><svg xmlns="http://www.w3.org/2000/svg" xmlns:xlink="http://www.w3.org/1999/xlink" contentStyleType="text/css" data-diagram-type="DESCRIPTION" height="238px" preserveAspectRatio="none" style="width:1023px;height:238px;background:#FFFFFF;" version="1.1" viewBox="0 0 1023 238" width="1023px" zoomAndPan="magnify"><title>&#35746;&#38405;&#24037;&#20316;&#27969; - &#26550;&#26500;&#22270;</title><defs/><g><g class="title" data-source-line="1"><text fill="#000000" font-family="sans-serif" font-size="14" font-weight="bold" lengthAdjust="spacing" textLength="127.9414" x="440.5859" y="24.5332">&#35746;&#38405;&#24037;&#20316;&#27969; - &#26550;&#26500;&#22270;</text></g><!--entity Workflow--><g class="entity" data-qualified-name="Workflow" data-source-line="5" id="ent0002"><rect fill="#F1F1F1" height="37.6094" rx="2.5" ry="2.5" style="stroke:#181818;stroke-width:0.5;" width="154.5996" x="447.5" y="45.6094"/><text fill="#000000" font-family="sans-serif" font-size="14" lengthAdjust="spacing" textLength="134.5996" x="457.5" y="70.1426">SubscriptionWorkflow</text></g><!--entity Engine--><g class="entity" data-qualified-name="Engine" data-source-line="6" id="ent0003"><rect fill="#F1F1F1" height="37.6094" rx="2.5" ry="2.5" style="stroke:#181818;stroke-width:0.5;" width="175.6543" x="7" y="186.1094"/><text fill="#000000" font-family="sans-serif" font-size="14" lengthAdjust="spacing" textLength="155.6543" x="17" y="210.6426">SubscriptionModeEngine</text></g><!--entity Market--><g class="entity" data-qualified-name="Market" data-source-line="7" id="ent0004"><rect fill="#F1F1F1" height="37.6094" rx="2.5" ry="2.5" style="stroke:#181818;stroke-width:0.5;" width="118.0342" x="218" y="186.1094"/><text fill="#000000" font-family="sans-serif" font-size="14" lengthAdjust="spacing" textLength="98.0342" x="228" y="210.6426">MarketGateway</text></g><!--entity Account--><g class="entity" data-qualified-name="Account" data-source-line="8" id="ent0005"><rect fill="#F1F1F1" height="37.6094" rx="2.5" ry="2.5" style="stroke:#181818;stroke-width:0.5;" width="125.834" x="371" y="186.1094"/><text fill="#000000" font-family="sans-serif" font-size="14" lengthAdjust="spacing" textLength="105.834" x="381" y="210.6426">AccountGateway</text></g><!--entity Target--><g class="entity" data-qualified-name="Target" data-source-line="9" id="ent0006"><rect fill="#F1F1F1" height="37.6094" rx="2.5" ry="2.5" style="stroke:#181818;stroke-width:0.5;" width="125.0684" x="532.5" y="186.1094"/><text fill="#000000" font-family="sans-serif" font-size="14" lengthAdjust="spacing" textLength="105.0684" x="542.5" y="210.6426">TargetAggregate</text></g><!--entity Position--><g class="entity" data-qualified-name="Position" data-source-line="10" id="ent0007"><rect fill="#F1F1F1" height="37.6094" rx="2.5" ry="2.5" style="stroke:#181818;stroke-width:0.5;" width="134.4131" x="693" y="186.1094"/><text fill="#000000" font-family="sans-serif" font-size="14" lengthAdjust="spacing" textLength="114.4131" x="703" y="210.6426">PositionAggregate</text></g><!--entity RuntimeState--><g class="entity" data-qualified-name="RuntimeState" data-source-line="11" id="ent0008"><rect fill="#F1F1F1" height="55.2188" rx="2.5" ry="2.5" style="stroke:#181818;stroke-width:0.5;" width="154.6133" x="862.5" y="177.6094"/><text fill="#000000" font-family="sans-serif" font-size="14" lengthAdjust="spacing" textLength="134.6133" x="872.5" y="202.1426">subscribed_symbols /</text><text fill="#000000" font-family="sans-serif" font-size="14" lengthAdjust="spacing" textLength="131.4961" x="872.5" y="219.752">stale / temp_symbols</text></g><!--link Workflow to Engine--><g class="link" data-entity-1="ent0002" data-entity-2="ent0003" data-link-type="dependency" data-source-line="13" id="lnk9"><path d="M447.44,71.6494 C364.32,79.0394 238.48,93.1394 195,113.6094 C158.99,130.5694 130.5507,160.2997 112.9207,181.4597" fill="none" id="Workflow-to-Engine" style="stroke:#181818;stroke-width:1;"/><polygon fill="#181818" points="109.08,186.0694,117.9141,181.7153,112.2806,182.228,111.7679,176.5944,109.08,186.0694" style="stroke:#181818;stroke-width:1;"/><text fill="#000000" font-family="sans-serif" font-size="13" lengthAdjust="spacing" textLength="92.479" x="196" y="136.1045">resolve(context)</text></g><!--link Workflow to Market--><g class="link" data-entity-1="ent0002" data-entity-2="ent0004" data-link-type="dependency" data-source-line="14" id="lnk10"><path d="M447.3,68.4094 C406.3,73.4594 357.32,85.5794 322,113.6094 C298.91,131.9294 288.3147,159.3897 282.6847,180.0897" fill="none" id="Workflow-to-Market" style="stroke:#181818;stroke-width:1;"/><polygon fill="#181818" points="281.11,185.8794,287.3318,178.2446,282.4222,181.0546,279.6122,176.1451,281.11,185.8794" style="stroke:#181818;stroke-width:1;"/><text fill="#000000" font-family="sans-serif" font-size="13" lengthAdjust="spacing" textLength="96.8018" x="342.884" y="128.1045">contracts / ticks /</text><text fill="#000000" font-family="sans-serif" font-size="13" lengthAdjust="spacing" textLength="136.5698" x="323" y="144.4561">subscribe / unsubscribe</text></g><!--link Workflow to Account--><g class="link" data-entity-1="ent0002" data-entity-2="ent0005" data-link-type="dependency" data-source-line="15" id="lnk11"><path d="M510.07,83.9194 C503.11,92.7194 494.86,103.5194 488,113.6094 C471.43,137.9694 457.2842,162.2458 446.8842,180.7958" fill="none" id="Workflow-to-Account" style="stroke:#181818;stroke-width:1;"/><polygon fill="#181818" points="443.95,186.0294,451.8404,180.1351,446.3952,181.668,444.8622,176.2229,443.95,186.0294" style="stroke:#181818;stroke-width:1;"/><text fill="#000000" font-family="sans-serif" font-size="13" lengthAdjust="spacing" textLength="52" x="489" y="136.1045">&#25345;&#20179;&#26469;&#28304;</text></g><!--link Workflow to Target--><g class="link" data-entity-1="ent0002" data-entity-2="ent0006" data-link-type="dependency" data-source-line="16" id="lnk12"><path d="M534.15,83.7194 C547.57,110.2594 569.7233,154.0946 583.1433,180.6446" fill="none" id="Workflow-to-Target" style="stroke:#181818;stroke-width:1;"/><polygon fill="#181818" points="585.85,185.9994,585.3599,176.1627,583.5945,181.537,578.2201,179.7716,585.85,185.9994" style="stroke:#181818;stroke-width:1;"/><text fill="#000000" font-family="sans-serif" font-size="13" lengthAdjust="spacing" textLength="78" x="568" y="136.1045">&#20027;&#21147;&#21512;&#32422;&#26469;&#28304;</text></g><!--link Workflow to Position--><g class="link" data-entity-1="ent0002" data-entity-2="ent0007" data-link-type="dependency" data-source-line="17" id="lnk13"><path d="M587.57,83.6394 C609.66,91.2994 634.17,101.3294 655,113.6094 C689.42,133.8894 719.1526,161.632 738.7526,181.652" fill="none" id="Workflow-to-Position" style="stroke:#181818;stroke-width:1;"/><polygon fill="#181818" points="742.95,185.9394,739.5121,176.71,739.4521,182.3666,733.7956,182.3066,742.95,185.9394" style="stroke:#181818;stroke-width:1;"/><text fill="#000000" font-family="sans-serif" font-size="13" lengthAdjust="spacing" textLength="114.8354" x="703" y="136.1045">&#25346;&#21333; / &#27963;&#36291;&#25345;&#20179;&#26469;&#28304;</text></g><!--link Workflow to RuntimeState--><g class="link" data-entity-1="ent0002" data-entity-2="ent0008" data-link-type="dependency" data-source-line="18" id="lnk14"><path d="M602.56,67.2094 C665.22,70.9894 754.44,82.1194 826,113.6094 C860.23,128.6694 888.6679,152.3973 910.2179,173.2473" fill="none" id="Workflow-to-RuntimeState" style="stroke:#181818;stroke-width:1;"/><polygon fill="#181818" points="914.53,177.4194,910.8432,168.2866,910.9366,173.9427,905.2805,174.0361,914.53,177.4194" style="stroke:#181818;stroke-width:1;"/><text fill="#000000" font-family="sans-serif" font-size="13" lengthAdjust="spacing" textLength="91" x="880" y="136.1045">&#32500;&#25252;&#35746;&#38405;&#36816;&#34892;&#24577;</text></g><?plantuml-src TP9FIyCm6CRl_HJ1anx6xXw47SJJG9pWHP0iUrT3swGqcNCtvn-GCM4WWZ0TACwZf-baHVqoQrQ_XLcppXRqbZplBy_xlW-HLBg0ufV7xzkBQ3oSVjofrpOg83LuKuFpgFzf2OSo7mVOG-8GrtYJCXlLiIiWKo7Sypa39YkofUq2818psmNBMbRGIgLH5IIWlgISxV70gRkykOAmGEd5MhxBmsLUWqrcKmO9RevPk8m31-GMbj34hOGnIfOf4S8RB0Sjf2orYmCRPCcs0x0rcM16orBRND3vO7akLREaC6jKeNOWMbwLkm8LzvcGM1UBI8BdftfYiQF7eHvKfFQqh3GNL2XiBBP6wpfSmTqZM2MSIJYMQtdCBAwnUJd0H8fv7qeSqpWTHukDtrlUOX6Bzb3TzZIyLlT3DUdb6PE9HgRlOTJfHxtBsUJvBp0D9N4xZQvkT6Sr2kFnsV_csHJqkrauKfqdyqNZhrxyq5KdxHy0?></g></svg>