<?plantuml 1.2026.2?><svg xmlns="http://www.w3.org/2000/svg" xmlns:xlink="http://www.w3.org/1999/xlink" contentStyleType="text/css" data-diagram-type="ACTIVITY" height="808px" preserveAspectRatio="none" style="width:325px;height:808px;background:#FFFFFF;" version="1.1" viewBox="0 0 325 808" width="325px" zoomAndPan="magnify"><title>&#35746;&#38405;&#24037;&#20316;&#27969; - &#27963;&#21160;&#22270;</title><defs/><g><g class="title" data-source-line="1"><text fill="#000000" font-family="sans-serif" font-size="14" font-weight="bold" lengthAdjust="spacing" textLength="127.9414" x="97.448" y="34.5332">&#35746;&#38405;&#24037;&#20316;&#27969; - &#27963;&#21160;&#22270;</text></g><ellipse cx="145.4187" cy="58.6094" fill="#222222" rx="10" ry="10" style="stroke:#222222;stroke-width:1;"/><rect fill="#F1F1F1" height="35.0938" rx="12.5" ry="12.5" style="stroke:#181818;stroke-width:0.5;" width="81.3477" x="104.7449" y="88.6094"/><text fill="#000000" font-family="sans-serif" font-size="12" lengthAdjust="spacing" textLength="61.3477" x="114.7449" y="111.0664">&#25509;&#25910; trigger</text><polygon fill="#F1F1F1" points="32,143.7031,258.8374,143.7031,270.8374,155.7031,258.8374,167.7031,32,167.7031,20,155.7031,32,143.7031" style="stroke:#181818;stroke-width:0.5;"/><text fill="#000000" font-family="sans-serif" font-size="11" lengthAdjust="spacing" textLength="226.8374" x="32" y="160.2041">subscription_engine &#25110; market_gateway &#32570;&#22833;?</text><text fill="#000000" font-family="sans-serif" font-size="11" lengthAdjust="spacing" textLength="11" x="270.8374" y="153.2861">&#26159;</text><ellipse cx="303.8374" cy="155.7031" fill="none" rx="11" ry="11" style="stroke:#222222;stroke-width:1;"/><ellipse cx="303.8374" cy="155.7031" fill="#222222" rx="6" ry="6" style="stroke:#222222;stroke-width:1;"/><polygon fill="#F1F1F1" points="92.2422,187.7031,198.5952,187.7031,210.5952,199.7031,198.5952,211.7031,92.2422,211.7031,80.2422,199.7031,92.2422,187.7031" style="stroke:#181818;stroke-width:0.5;"/><text fill="#000000" font-family="sans-serif" font-size="11" lengthAdjust="spacing" textLength="106.353" x="92.2422" y="204.2041">trigger &#19981;&#24212;&#35302;&#21457;&#37325;&#31639;?</text><text fill="#000000" font-family="sans-serif" font-size="11" lengthAdjust="spacing" textLength="11" x="210.5952" y="197.2861">&#26159;</text><ellipse cx="243.5952" cy="199.7031" fill="none" rx="11" ry="11" style="stroke:#222222;stroke-width:1;"/><ellipse cx="243.5952" cy="199.7031" fill="#222222" rx="6" ry="6" style="stroke:#222222;stroke-width:1;"/><rect fill="#F1F1F1" height="35.0938" rx="12.5" ry="12.5" style="stroke:#181818;stroke-width:0.5;" width="114.6992" x="88.0691" y="231.7031"/><text fill="#000000" font-family="sans-serif" font-size="12" lengthAdjust="spacing" textLength="94.6992" x="98.0691" y="254.1602">&#33719;&#21462; all_contracts</text><polygon fill="#F1F1F1" points="125.8599,286.7969,164.9775,286.7969,176.9775,298.7969,164.9775,310.7969,125.8599,310.7969,113.8599,298.7969,125.8599,286.7969" style="stroke:#181818;stroke-width:0.5;"/><text fill="#000000" font-family="sans-serif" font-size="11" lengthAdjust="spacing" textLength="39.1177" x="125.8599" y="303.2979">&#26080;&#21512;&#32422;?</text><text fill="#000000" font-family="sans-serif" font-size="11" lengthAdjust="spacing" textLength="11" x="176.9775" y="296.3799">&#26159;</text><ellipse cx="209.9775" cy="298.7969" fill="none" rx="11" ry="11" style="stroke:#222222;stroke-width:1;"/><ellipse cx="209.9775" cy="298.7969" fill="#222222" rx="6" ry="6" style="stroke:#222222;stroke-width:1;"/><rect fill="#F1F1F1" height="50.1875" rx="12.5" ry="12.5" style="stroke:#181818;stroke-width:0.5;" width="228.7695" x="31.0339" y="330.7969"/><text fill="#000000" font-family="sans-serif" font-size="12" lengthAdjust="spacing" textLength="151.4004" x="41.0339" y="353.2539">&#25910;&#38598; active signal / position /</text><text fill="#000000" font-family="sans-serif" font-size="12" lengthAdjust="spacing" textLength="208.7695" x="41.0339" y="368.3477">pending order / active contract symbols</text><rect fill="#F1F1F1" height="35.0938" rx="12.5" ry="12.5" style="stroke:#181818;stroke-width:0.5;" width="199.4082" x="45.7146" y="400.9844"/><text fill="#000000" font-family="sans-serif" font-size="12" lengthAdjust="spacing" textLength="179.4082" x="55.7146" y="423.4414">&#26500;&#24314; SubscriptionRuntimeContext</text><rect fill="#F1F1F1" height="35.0938" rx="12.5" ry="12.5" style="stroke:#181818;stroke-width:0.5;" width="242.7734" x="24.032" y="456.0781"/><text fill="#000000" font-family="sans-serif" font-size="12" lengthAdjust="spacing" textLength="222.7734" x="34.032" y="478.5352">&#35843;&#29992; subscription_engine.resolve(context)</text><polygon fill="#F1F1F1" points="80.9038,511.1719,209.9336,511.1719,221.9336,523.1719,209.9336,535.1719,80.9038,535.1719,68.9038,523.1719,80.9038,511.1719" style="stroke:#181818;stroke-width:0.5;"/><text fill="#000000" font-family="sans-serif" font-size="11" lengthAdjust="spacing" textLength="129.0298" x="80.9038" y="527.6729">decision.enabled &#20026; false?</text><text fill="#000000" font-family="sans-serif" font-size="11" lengthAdjust="spacing" textLength="11" x="221.9336" y="520.7549">&#26159;</text><ellipse cx="254.9336" cy="523.1719" fill="none" rx="11" ry="11" style="stroke:#222222;stroke-width:1;"/><ellipse cx="254.9336" cy="523.1719" fill="#222222" rx="6" ry="6" style="stroke:#222222;stroke-width:1;"/><rect fill="#F1F1F1" height="35.0938" rx="12.5" ry="12.5" style="stroke:#181818;stroke-width:0.5;" width="215.4395" x="37.699" y="555.1719"/><text fill="#000000" font-family="sans-serif" font-size="12" lengthAdjust="spacing" textLength="195.4395" x="47.699" y="577.6289">&#35745;&#31639; to_subscribe / stale_candidates</text><rect fill="#F1F1F1" height="35.0938" rx="12.5" ry="12.5" style="stroke:#181818;stroke-width:0.5;" width="98.6914" x="96.073" y="610.2656"/><text fill="#000000" font-family="sans-serif" font-size="12" lengthAdjust="spacing" textLength="78.6914" x="106.073" y="632.7227">&#25191;&#34892; subscribe</text><rect fill="#F1F1F1" height="35.0938" rx="12.5" ry="12.5" style="stroke:#181818;stroke-width:0.5;" width="204.7227" x="43.0574" y="665.3594"/><text fill="#000000" font-family="sans-serif" font-size="12" lengthAdjust="spacing" textLength="184.7227" x="53.0574" y="687.8164">&#25191;&#34892; stale TTL &#26816;&#26597;&#19982; unsubscribe</text><rect fill="#F1F1F1" height="35.0938" rx="12.5" ry="12.5" style="stroke:#181818;stroke-width:0.5;" width="100.0156" x="95.4109" y="720.4531"/><text fill="#000000" font-family="sans-serif" font-size="12" lengthAdjust="spacing" textLength="80.0156" x="105.4109" y="742.9102">&#28165;&#29702; stale &#29366;&#24577;</text><ellipse cx="145.4187" cy="786.5469" fill="none" rx="11" ry="11" style="stroke:#222222;stroke-width:1;"/><ellipse cx="145.4187" cy="786.5469" fill="#222222" rx="6" ry="6" style="stroke:#222222;stroke-width:1;"/><line style="stroke:#181818;stroke-width:1;" x1="145.4187" x2="145.4187" y1="68.6094" y2="88.6094"/><polygon fill="#181818" points="141.4187,78.6094,145.4187,88.6094,149.4187,78.6094,145.4187,82.6094" style="stroke:#181818;stroke-width:1;"/><line style="stroke:#181818;stroke-width:1;" x1="145.4187" x2="145.4187" y1="167.7031" y2="187.7031"/><polygon fill="#181818" points="141.4187,177.7031,145.4187,187.7031,149.4187,177.7031,145.4187,181.7031" style="stroke:#181818;stroke-width:1;"/><line style="stroke:#181818;stroke-width:1;" x1="270.8374" x2="292.8374" y1="155.7031" y2="155.7031"/><polygon fill="#181818" points="282.8374,151.7031,292.8374,155.7031,282.8374,159.7031,286.8374,155.7031" style="stroke:#181818;stroke-width:1;"/><line style="stroke:#181818;stroke-width:1;" x1="145.4187" x2="145.4187" y1="123.7031" y2="143.7031"/><polygon fill="#181818" points="141.4187,133.7031,145.4187,143.7031,149.4187,133.7031,145.4187,137.7031" style="stroke:#181818;stroke-width:1;"/><line style="stroke:#181818;stroke-width:1;" x1="145.4187" x2="145.4187" y1="211.7031" y2="231.7031"/><polygon fill="#181818" points="141.4187,221.7031,145.4187,231.7031,149.4187,221.7031,145.4187,225.7031" style="stroke:#181818;stroke-width:1;"/><line style="stroke:#181818;stroke-width:1;" x1="210.5952" x2="232.5952" y1="199.7031" y2="199.7031"/><polygon fill="#181818" points="222.5952,195.7031,232.5952,199.7031,222.5952,203.7031,226.5952,199.7031" style="stroke:#181818;stroke-width:1;"/><line style="stroke:#181818;stroke-width:1;" x1="145.4187" x2="145.4187" y1="310.7969" y2="330.7969"/><polygon fill="#181818" points="141.4187,320.7969,145.4187,330.7969,149.4187,320.7969,145.4187,324.7969" style="stroke:#181818;stroke-width:1;"/><line style="stroke:#181818;stroke-width:1;" x1="176.9775" x2="198.9775" y1="298.7969" y2="298.7969"/><polygon fill="#181818" points="188.9775,294.7969,198.9775,298.7969,188.9775,302.7969,192.9775,298.7969" style="stroke:#181818;stroke-width:1;"/><line style="stroke:#181818;stroke-width:1;" x1="145.4187" x2="145.4187" y1="266.7969" y2="286.7969"/><polygon fill="#181818" points="141.4187,276.7969,145.4187,286.7969,149.4187,276.7969,145.4187,280.7969" style="stroke:#181818;stroke-width:1;"/><line style="stroke:#181818;stroke-width:1;" x1="145.4187" x2="145.4187" y1="380.9844" y2="400.9844"/><polygon fill="#181818" points="141.4187,390.9844,145.4187,400.9844,149.4187,390.9844,145.4187,394.9844" style="stroke:#181818;stroke-width:1;"/><line style="stroke:#181818;stroke-width:1;" x1="145.4187" x2="145.4187" y1="436.0781" y2="456.0781"/><polygon fill="#181818" points="141.4187,446.0781,145.4187,456.0781,149.4187,446.0781,145.4187,450.0781" style="stroke:#181818;stroke-width:1;"/><line style="stroke:#181818;stroke-width:1;" x1="145.4187" x2="145.4187" y1="535.1719" y2="555.1719"/><polygon fill="#181818" points="141.4187,545.1719,145.4187,555.1719,149.4187,545.1719,145.4187,549.1719" style="stroke:#181818;stroke-width:1;"/><line style="stroke:#181818;stroke-width:1;" x1="221.9336" x2="243.9336" y1="523.1719" y2="523.1719"/><polygon fill="#181818" points="233.9336,519.1719,243.9336,523.1719,233.9336,527.1719,237.9336,523.1719" style="stroke:#181818;stroke-width:1;"/><line style="stroke:#181818;stroke-width:1;" x1="145.4187" x2="145.4187" y1="491.1719" y2="511.1719"/><polygon fill="#181818" points="141.4187,501.1719,145.4187,511.1719,149.4187,501.1719,145.4187,505.1719" style="stroke:#181818;stroke-width:1;"/><line style="stroke:#181818;stroke-width:1;" x1="145.4187" x2="145.4187" y1="590.2656" y2="610.2656"/><polygon fill="#181818" points="141.4187,600.2656,145.4187,610.2656,149.4187,600.2656,145.4187,604.2656" style="stroke:#181818;stroke-width:1;"/><line style="stroke:#181818;stroke-width:1;" x1="145.4187" x2="145.4187" y1="645.3594" y2="665.3594"/><polygon fill="#181818" points="141.4187,655.3594,145.4187,665.3594,149.4187,655.3594,145.4187,659.3594" style="stroke:#181818;stroke-width:1;"/><line style="stroke:#181818;stroke-width:1;" x1="145.4187" x2="145.4187" y1="700.4531" y2="720.4531"/><polygon fill="#181818" points="141.4187,710.4531,145.4187,720.4531,149.4187,710.4531,145.4187,714.4531" style="stroke:#181818;stroke-width:1;"/><line style="stroke:#181818;stroke-width:1;" x1="145.4187" x2="145.4187" y1="755.5469" y2="775.5469"/><polygon fill="#181818" points="141.4187,765.5469,145.4187,775.5469,149.4187,765.5469,145.4187,769.5469" style="stroke:#181818;stroke-width:1;"/><?plantuml-src VP4xJm9158Nx_HMtX4BfeR2mjL9BaysmUrad3hDaPq3jDBwDeYP4JJGgAeyADL4aw-FNCBFBlt1uQ3Gnj3VVkUVSSoML325ktVREjzHhhVjngL_MOGBqyvlQRwgBJqj84aWhhSirNMc33AZdOP2nQ0uIefWLJa0BalhSHkvHZg1tJo5FWYMKjaSaBfDLYDv3TVyqbGIvY1mI-lmXQG48wHSiv2xDMODbeytGxHogi18twkhefBTp6BNEnYdJSVbL7Pq2OSnsV2u3uaWnJAVFRjJnRXJMn-hDKRsBRJ0oMa8GrEE4GGeAlg3zio2rm0jzbdlW1wx9b_fcl-r0hEQpFZEkQNsrgTv2cFlLosoHIvh7QGFZYZHC_BWHLPhmJtUJ0GgVbJ3X3E5aPjYCYmuL1fj4Jh8CNLDH23d218vlfbKrvO7qxP5N5aruyqw6jaCCv9h_35BlDUBg0VnGlqPz6ERdPq3VhUdhMhTJXYB_0tQsekFj4HZjj_NQUiRgn_W2?></g></svg>