<?plantuml 1.2026.2?><svg xmlns="http://www.w3.org/2000/svg" xmlns:xlink="http://www.w3.org/1999/xlink" contentStyleType="text/css" data-diagram-type="STATE" height="1077px" preserveAspectRatio="none" style="width:491px;height:1077px;background:#FFFFFF;" version="1.1" viewBox="0 0 491 1077" width="491px" zoomAndPan="magnify"><title>&#35746;&#38405;&#24037;&#20316;&#27969; - &#29366;&#24577;&#22270;</title><defs/><g><g class="title" data-source-line="1"><text fill="#000000" font-family="sans-serif" font-size="14" font-weight="bold" lengthAdjust="spacing" textLength="127.9414" x="174.9724" y="24.5332">&#35746;&#38405;&#24037;&#20316;&#27969; - &#29366;&#24577;&#22270;</text></g><g class="start_entity" data-qualified-name=".start." data-source-line="2" id="ent0002"><ellipse cx="267" cy="54.6094" fill="#222222" rx="10" ry="10" style="stroke:#222222;stroke-width:1;"/></g><g class="entity" data-qualified-name=".." id="ent0003"><rect fill="#F1F1F1" height="50" rx="12.5" ry="12.5" style="stroke:#181818;stroke-width:0.5;" width="50" x="242" y="125.6094"/><line style="stroke:#181818;stroke-width:0.5;" x1="242" x2="292" y1="153.2188" y2="153.2188"/><text fill="#000000" font-family="sans-serif" font-size="14" lengthAdjust="spacing" textLength="28" x="253" y="145.1426">&#31105;&#29992;</text></g><g class="entity" data-qualified-name=".." id="ent0005"><rect fill="#F1F1F1" height="50" rx="12.5" ry="12.5" style="stroke:#181818;stroke-width:0.5;" width="50" x="242" y="253.6094"/><line style="stroke:#181818;stroke-width:0.5;" x1="242" x2="292" y1="281.2188" y2="281.2188"/><text fill="#000000" font-family="sans-serif" font-size="14" lengthAdjust="spacing" textLength="28" x="253" y="273.1426">&#21551;&#29992;</text></g><g class="entity" data-qualified-name=".." id="ent0007"><rect fill="#F1F1F1" height="50" rx="12.5" ry="12.5" style="stroke:#181818;stroke-width:0.5;" width="50" x="189" y="509.6094"/><line style="stroke:#181818;stroke-width:0.5;" x1="189" x2="239" y1="537.2188" y2="537.2188"/><text fill="#000000" font-family="sans-serif" font-size="14" lengthAdjust="spacing" textLength="28" x="200" y="529.1426">&#20505;&#36873;</text></g><g class="entity" data-qualified-name="..." id="ent0009"><rect fill="#F1F1F1" height="50" rx="12.5" ry="12.5" style="stroke:#181818;stroke-width:0.5;" width="62" x="110" y="637.6094"/><line style="stroke:#181818;stroke-width:0.5;" x1="110" x2="172" y1="665.2188" y2="665.2188"/><text fill="#000000" font-family="sans-serif" font-size="14" lengthAdjust="spacing" textLength="42" x="120" y="657.1426">&#24050;&#35746;&#38405;</text></g><g class="entity" data-qualified-name="..." id="ent0011"><rect fill="#F1F1F1" height="50" rx="12.5" ry="12.5" style="stroke:#181818;stroke-width:0.5;" width="62" x="7" y="765.6094"/><line style="stroke:#181818;stroke-width:0.5;" x1="7" x2="69" y1="793.2188" y2="793.2188"/><text fill="#000000" font-family="sans-serif" font-size="14" lengthAdjust="spacing" textLength="42" x="17" y="785.1426">&#21463;&#20445;&#25252;</text></g><g class="entity" data-qualified-name=".." id="ent0013"><rect fill="#F1F1F1" height="50" rx="12.5" ry="12.5" style="stroke:#181818;stroke-width:0.5;" width="50" x="116" y="893.6094"/><line style="stroke:#181818;stroke-width:0.5;" x1="116" x2="166" y1="921.2188" y2="921.2188"/><text fill="#000000" font-family="sans-serif" font-size="14" lengthAdjust="spacing" textLength="28" x="127" y="913.1426">&#38472;&#26087;</text></g><g class="entity" data-qualified-name="..." id="ent0016"><rect fill="#F1F1F1" height="50" rx="12.5" ry="12.5" style="stroke:#181818;stroke-width:0.5;" width="62" x="198" y="1021.6094"/><line style="stroke:#181818;stroke-width:0.5;" x1="198" x2="260" y1="1049.2188" y2="1049.2188"/><text fill="#000000" font-family="sans-serif" font-size="14" lengthAdjust="spacing" textLength="42" x="208" y="1041.1426">&#24050;&#36864;&#35746;</text></g><g class="entity" data-qualified-name="...." id="ent0019"><rect fill="#F1F1F1" height="50" rx="12.5" ry="12.5" style="stroke:#181818;stroke-width:0.5;" width="76" x="363" y="381.6094"/><line style="stroke:#181818;stroke-width:0.5;" x1="363" x2="439" y1="409.2188" y2="409.2188"/><text fill="#000000" font-family="sans-serif" font-size="14" lengthAdjust="spacing" textLength="56" x="373" y="401.1426">&#20020;&#26102;&#36319;&#36394;</text></g><g class="entity" data-qualified-name=".." id="ent0022"><rect fill="#F1F1F1" height="50" rx="12.5" ry="12.5" style="stroke:#181818;stroke-width:0.5;" width="50" x="376" y="509.6094"/><line style="stroke:#181818;stroke-width:0.5;" x1="376" x2="426" y1="537.2188" y2="537.2188"/><text fill="#000000" font-family="sans-serif" font-size="14" lengthAdjust="spacing" textLength="28" x="387" y="529.1426">&#36807;&#26399;</text></g><g class="end_entity" data-qualified-name=".end." data-source-line="14" id="ent0024"><ellipse cx="401" cy="662.6094" fill="none" rx="11" ry="11" style="stroke:#222222;stroke-width:1;"/><ellipse cx="401" cy="662.6094" fill="#222222" rx="6" ry="6" style="stroke:#222222;stroke-width:1;"/></g><!--link *start* to ??--><g class="link" data-entity-1="ent0002" data-entity-2="ent0003" data-link-type="dependency" data-source-line="2" id="lnk4"><path d="M267,64.6194 C267,78.4994 267,99.5794 267,119.4494" fill="none" id="*start*-to-&#31105;&#29992;" style="stroke:#181818;stroke-width:1;"/><polygon fill="#181818" points="267,125.4494,271,116.4494,267,120.4494,263,116.4494,267,125.4494" style="stroke:#181818;stroke-width:1;"/></g><!--link ?? to ??--><g class="link" data-entity-1="ent0003" data-entity-2="ent0005" data-link-type="dependency" data-source-line="3" id="lnk6"><path d="M267,175.8994 C267,198.2194 267,225.0994 267,247.3894" fill="none" id="&#31105;&#29992;-to-&#21551;&#29992;" style="stroke:#181818;stroke-width:1;"/><polygon fill="#181818" points="267,253.3894,271,244.3894,267,248.3894,263,244.3894,267,253.3894" style="stroke:#181818;stroke-width:1;"/><text fill="#000000" font-family="sans-serif" font-size="13" lengthAdjust="spacing" textLength="76.2607" x="268" y="220.1045">enabled=true</text></g><!--link ?? to ??--><g class="link" data-entity-1="ent0005" data-entity-2="ent0007" data-link-type="dependency" data-source-line="4" id="lnk8"><path d="M253.28,303.8794 C242.65,324.0094 228.64,353.7494 222,381.6094 C211.46,425.8194 211.2443,473.2436 212.3843,503.5336" fill="none" id="&#21551;&#29992;-to-&#20505;&#36873;" style="stroke:#181818;stroke-width:1;"/><polygon fill="#181818" points="212.61,509.5294,216.2687,500.3853,212.422,504.5329,208.2743,500.6862,212.61,509.5294" style="stroke:#181818;stroke-width:1;"/><text fill="#000000" font-family="sans-serif" font-size="13" lengthAdjust="spacing" textLength="122.7891" x="223" y="412.1045">symbol &#36827;&#20837;&#30446;&#26631;&#38598;&#21512;</text></g><!--link ?? to ???--><g class="link" data-entity-1="ent0007" data-entity-2="ent0009" data-link-type="dependency" data-source-line="5" id="lnk10"><path d="M199.92,559.8994 C187,582.2194 170.9471,609.9073 158.0371,632.1973" fill="none" id="&#20505;&#36873;-to-&#24050;&#35746;&#38405;" style="stroke:#181818;stroke-width:1;"/><polygon fill="#181818" points="155.03,637.3894,163.0021,631.6061,157.5359,633.0627,156.0794,627.5966,155.03,637.3894" style="stroke:#181818;stroke-width:1;"/><text fill="#000000" font-family="sans-serif" font-size="13" lengthAdjust="spacing" textLength="105.4727" x="183" y="604.1045">subscribe(symbol)</text></g><!--link ??? to ???--><g class="link" data-entity-1="ent0009" data-entity-2="ent0011" data-link-type="dependency" data-source-line="6" id="lnk12"><path d="M109.86,670.1294 C84.8,677.1994 51.19,691.1994 35,717.6094 C26.31,731.7994 26.2171,744.8074 29.3371,759.6674" fill="none" id="&#24050;&#35746;&#38405;-to-&#21463;&#20445;&#25252;" style="stroke:#181818;stroke-width:1;"/><polygon fill="#181818" points="30.57,765.5394,32.6353,755.9095,29.5426,760.6461,24.806,757.5533,30.57,765.5394" style="stroke:#181818;stroke-width:1;"/><text fill="#000000" font-family="sans-serif" font-size="13" lengthAdjust="spacing" textLength="78" x="36" y="732.1045">&#20173;&#22312;&#30446;&#26631;&#38598;&#21512;</text></g><!--link ??? to ??--><g class="link" data-entity-1="ent0011" data-entity-2="ent0013" data-link-type="dependency" data-source-line="7" id="lnk14"><path d="M30.57,815.6794 C27.45,830.5394 26.31,849.4194 35,863.6094 C52.48,892.1394 84.4757,904.6983 109.8757,911.1683" fill="none" id="&#21463;&#20445;&#25252;-to-&#38472;&#26087;" style="stroke:#181818;stroke-width:1;"/><polygon fill="#181818" points="115.69,912.6494,107.9559,906.5516,110.8447,911.4152,105.9811,914.304,115.69,912.6494" style="stroke:#181818;stroke-width:1;"/><text fill="#000000" font-family="sans-serif" font-size="13" lengthAdjust="spacing" textLength="78" x="36" y="860.1045">&#33073;&#31163;&#30446;&#26631;&#38598;&#21512;</text></g><!--link ?? to ???--><g class="link" data-entity-1="ent0013" data-entity-2="ent0009" data-link-type="dependency" data-source-line="8" id="lnk15"><path d="M141,893.3294 C141,844.8394 141,742.5094 141,693.9594" fill="none" id="&#38472;&#26087;-to-&#24050;&#35746;&#38405;" style="stroke:#181818;stroke-width:1;"/><polygon fill="#181818" points="141,687.9594,137,696.9594,141,692.9594,145,696.9594,141,687.9594" style="stroke:#181818;stroke-width:1;"/><text fill="#000000" font-family="sans-serif" font-size="13" lengthAdjust="spacing" textLength="104" x="142" y="796.1045">&#20877;&#27425;&#36827;&#20837;&#30446;&#26631;&#38598;&#21512;</text></g><!--link ?? to ???--><g class="link" data-entity-1="ent0013" data-entity-2="ent0016" data-link-type="dependency" data-source-line="9" id="lnk17"><path d="M148.66,943.8894 C153.92,958.4794 161.79,976.9894 172,991.6094 C179.57,1002.4494 185.1632,1008.7792 194.6832,1017.4892" fill="none" id="&#38472;&#26087;-to-&#24050;&#36864;&#35746;" style="stroke:#181818;stroke-width:1;"/><polygon fill="#181818" points="199.11,1021.5394,195.1699,1012.513,195.421,1018.1643,189.7697,1018.4154,199.11,1021.5394" style="stroke:#181818;stroke-width:1;"/><text fill="#000000" font-family="sans-serif" font-size="13" lengthAdjust="spacing" textLength="117.7236" x="173" y="988.1045">TTL &#21040;&#26399;&#19988;&#20801;&#35768;&#36864;&#35746;</text></g><!--link ??? to ??--><g class="link" data-entity-1="ent0016" data-entity-2="ent0007" data-link-type="dependency" data-source-line="10" id="lnk18"><path d="M260.06,1026.1494 C272.47,1017.0094 285.93,1005.1294 295,991.6094 C313.64,963.8194 317,953.0694 317,919.6094 C317,661.6094 317,661.6094 317,661.6094 C317,628.1494 314.97,616.4594 295,589.6094 C280.67,570.3594 262.671,558.5636 244.711,549.4536" fill="none" id="&#24050;&#36864;&#35746;-to-&#20505;&#36873;" style="stroke:#181818;stroke-width:1;"/><polygon fill="#181818" points="239.36,546.7394,245.577,554.378,243.8192,549.0012,249.196,547.2434,239.36,546.7394" style="stroke:#181818;stroke-width:1;"/><text fill="#000000" font-family="sans-serif" font-size="13" lengthAdjust="spacing" textLength="96.7891" x="318" y="796.1045">symbol &#20877;&#27425;&#20986;&#29616;</text></g><!--link ?? to ????--><g class="link" data-entity-1="ent0005" data-entity-2="ent0019" data-link-type="dependency" data-source-line="11" id="lnk20"><path d="M292.2,303.3094 C316.01,325.6894 347.1696,354.9885 371.0796,377.4785" fill="none" id="&#21551;&#29992;-to-&#20020;&#26102;&#36319;&#36394;" style="stroke:#181818;stroke-width:1;"/><polygon fill="#181818" points="375.45,381.5894,371.6349,372.5094,371.808,378.1636,366.1538,378.3367,375.45,381.5894" style="stroke:#181818;stroke-width:1;"/><text fill="#000000" font-family="sans-serif" font-size="13" lengthAdjust="spacing" textLength="140.8862" x="343" y="348.1045">signal temporary symbol</text></g><!--link ???? to ??--><g class="link" data-entity-1="ent0019" data-entity-2="ent0007" data-link-type="dependency" data-source-line="12" id="lnk21"><path d="M362.91,430.0894 C347.27,439.5494 329.09,450.8494 313,461.6094 C287.39,478.7394 263.8306,495.9702 244.0506,510.8002" fill="none" id="&#20020;&#26102;&#36319;&#36394;-to-&#20505;&#36873;" style="stroke:#181818;stroke-width:1;"/><polygon fill="#181818" points="239.25,514.3994,248.8504,512.2009,243.2505,511.4,244.0514,505.8002,239.25,514.3994" style="stroke:#181818;stroke-width:1;"/><text fill="#000000" font-family="sans-serif" font-size="13" lengthAdjust="spacing" textLength="78" x="314" y="476.1045">&#27719;&#20837;&#30446;&#26631;&#38598;&#21512;</text></g><!--link ???? to ??--><g class="link" data-entity-1="ent0019" data-entity-2="ent0022" data-link-type="dependency" data-source-line="13" id="lnk23"><path d="M401,431.8994 C401,454.2194 401,481.0994 401,503.3894" fill="none" id="&#20020;&#26102;&#36319;&#36394;-to-&#36807;&#26399;" style="stroke:#181818;stroke-width:1;"/><polygon fill="#181818" points="401,509.3894,405,500.3894,401,504.3894,397,500.3894,401,509.3894" style="stroke:#181818;stroke-width:1;"/><text fill="#000000" font-family="sans-serif" font-size="13" lengthAdjust="spacing" textLength="52.7236" x="402" y="476.1045">TTL &#21040;&#26399;</text></g><!--link ?? to *end*--><g class="link" data-entity-1="ent0022" data-entity-2="ent0024" data-link-type="dependency" data-source-line="14" id="lnk25"><path d="M401,559.8994 C401,587.6494 401,625.7494 401,645.4894" fill="none" id="&#36807;&#26399;-to-*end*" style="stroke:#181818;stroke-width:1;"/><polygon fill="#181818" points="401,651.4894,405,642.4894,401,646.4894,397,642.4894,401,651.4894" style="stroke:#181818;stroke-width:1;"/></g><?plantuml-src RP7DIiD058NtynIpL24l8EWJkEnEN2GwI21j9KqNtILWcbYeTb689P6gs5f4Qbkq2HRDosH-yXPEVh1ExMg6Uxvpx-5UGpKq1DdqCRsrSJXAlWBoOK49qiwIc1Rsly7ntWcKf4D8nnRjJq3nv1NSUyk--n3LP4L3PmU6taIWhEQ0EKZDAmuqMbMbha4M-zWUKNzAxftKR-EU2qeafyD5aICpD9N6gQugQAUmxeArchCtNXBVaSuJPvDL5mSJiUkldC7fm2NUCoVPvPoELm9PQflpSRjBNX-sv1Nvr3IvXVELoX74xem4moJgOzjYqwZGm9hQjf5Y3dO-wVNix-QIw9ruInOEMVIIqUfvJTQWWQeNTLtMMwKT29ZGdyoTpUZ_O1OxFB2G7fIrJEQ7_m40?></g></svg>