<?plantuml 1.2026.2?><svg xmlns="http://www.w3.org/2000/svg" xmlns:xlink="http://www.w3.org/1999/xlink" contentStyleType="text/css" data-diagram-type="ACTIVITY" height="916px" preserveAspectRatio="none" style="width:337px;height:916px;background:#FFFFFF;" version="1.1" viewBox="0 0 337 916" width="337px" zoomAndPan="magnify"><title>&#35746;&#38405;&#24037;&#20316;&#27969; - &#20998;&#25903;&#21028;&#23450;&#22270;</title><defs/><g><g class="title" data-source-line="1"><text fill="#000000" font-family="sans-serif" font-size="14" font-weight="bold" lengthAdjust="spacing" textLength="156.8164" x="89.0911" y="34.5332">&#35746;&#38405;&#24037;&#20316;&#27969; - &#20998;&#25903;&#21028;&#23450;&#22270;</text></g><ellipse cx="149.6604" cy="58.6094" fill="#222222" rx="10" ry="10" style="stroke:#222222;stroke-width:1;"/><rect fill="#F1F1F1" height="35.0938" rx="12.5" ry="12.5" style="stroke:#181818;stroke-width:0.5;" width="68" x="115.6604" y="137.5273"/><text fill="#000000" font-family="sans-serif" font-size="12" lengthAdjust="spacing" textLength="48" x="125.6604" y="159.9844">&#30452;&#25509;&#36820;&#22238;</text><ellipse cx="149.6604" cy="211.5742" fill="none" rx="11" ry="11" style="stroke:#222222;stroke-width:1;"/><ellipse cx="149.6604" cy="211.5742" fill="#222222" rx="6" ry="6" style="stroke:#222222;stroke-width:1;"/><polygon fill="#F1F1F1" points="74.4463,88.6094,224.8745,88.6094,236.8745,100.6094,224.8745,112.6094,74.4463,112.6094,62.4463,100.6094,74.4463,88.6094" style="stroke:#181818;stroke-width:0.5;"/><text fill="#000000" font-family="sans-serif" font-size="11" lengthAdjust="spacing" textLength="11" x="153.6604" y="124.0283">&#26159;</text><text fill="#000000" font-family="sans-serif" font-size="11" lengthAdjust="spacing" textLength="150.4282" x="74.4463" y="105.1104">subscription_enabled &#20026; false?</text><rect fill="#F1F1F1" height="35.0938" rx="12.5" ry="12.5" style="stroke:#181818;stroke-width:0.5;" width="92" x="103.6604" y="313.4922"/><text fill="#000000" font-family="sans-serif" font-size="12" lengthAdjust="spacing" textLength="72" x="113.6604" y="335.9492">&#36339;&#36807;&#26412;&#27425;&#37325;&#31639;</text><ellipse cx="149.6604" cy="387.5391" fill="none" rx="11" ry="11" style="stroke:#222222;stroke-width:1;"/><ellipse cx="149.6604" cy="387.5391" fill="#222222" rx="6" ry="6" style="stroke:#222222;stroke-width:1;"/><polygon fill="#F1F1F1" points="96.4839,264.5742,202.8369,264.5742,214.8369,276.5742,202.8369,288.5742,96.4839,288.5742,84.4839,276.5742,96.4839,264.5742" style="stroke:#181818;stroke-width:0.5;"/><text fill="#000000" font-family="sans-serif" font-size="11" lengthAdjust="spacing" textLength="11" x="153.6604" y="299.9932">&#26159;</text><text fill="#000000" font-family="sans-serif" font-size="11" lengthAdjust="spacing" textLength="106.353" x="96.4839" y="281.0752">trigger &#19981;&#22312;&#20801;&#35768;&#38598;&#21512;?</text><rect fill="#F1F1F1" height="35.0938" rx="12.5" ry="12.5" style="stroke:#181818;stroke-width:0.5;" width="104" x="97.6604" y="489.457"/><text fill="#000000" font-family="sans-serif" font-size="12" lengthAdjust="spacing" textLength="84" x="107.6604" y="511.9141">&#19981;&#25191;&#34892;&#35746;&#38405;&#21464;&#26356;</text><ellipse cx="149.6604" cy="563.5039" fill="none" rx="11" ry="11" style="stroke:#222222;stroke-width:1;"/><ellipse cx="149.6604" cy="563.5039" fill="#222222" rx="6" ry="6" style="stroke:#222222;stroke-width:1;"/><polygon fill="#F1F1F1" points="85.1455,440.5391,214.1753,440.5391,226.1753,452.5391,214.1753,464.5391,85.1455,464.5391,73.1455,452.5391,85.1455,440.5391" style="stroke:#181818;stroke-width:0.5;"/><text fill="#000000" font-family="sans-serif" font-size="11" lengthAdjust="spacing" textLength="11" x="153.6604" y="475.958">&#26159;</text><text fill="#000000" font-family="sans-serif" font-size="11" lengthAdjust="spacing" textLength="129.0298" x="85.1455" y="457.04">decision.enabled &#20026; false?</text><rect fill="#F1F1F1" height="35.0938" rx="12.5" ry="12.5" style="stroke:#181818;stroke-width:0.5;" width="92" x="103.6604" y="665.4219"/><text fill="#000000" font-family="sans-serif" font-size="12" lengthAdjust="spacing" textLength="72" x="113.6604" y="687.8789">&#21482;&#35745;&#31639;&#19981;&#33853;&#22320;</text><polygon fill="#F1F1F1" points="109.9197,616.5039,189.4011,616.5039,201.4011,628.5039,189.4011,640.5039,109.9197,640.5039,97.9197,628.5039,109.9197,616.5039" style="stroke:#181818;stroke-width:0.5;"/><text fill="#000000" font-family="sans-serif" font-size="11" lengthAdjust="spacing" textLength="11" x="153.6604" y="651.9229">&#26159;</text><text fill="#000000" font-family="sans-serif" font-size="11" lengthAdjust="spacing" textLength="79.4814" x="109.9197" y="633.0049">dry_run &#20026; true?</text><polygon fill="#F1F1F1" points="149.6604,720.5156,161.6604,732.5156,149.6604,744.5156,137.6604,732.5156,149.6604,720.5156" style="stroke:#181818;stroke-width:0.5;"/><polygon fill="#F1F1F1" points="83.0078,764.5156,216.313,764.5156,228.313,776.5156,216.313,788.5156,83.0078,788.5156,71.0078,776.5156,83.0078,764.5156" style="stroke:#181818;stroke-width:0.5;"/><text fill="#000000" font-family="sans-serif" font-size="11" lengthAdjust="spacing" textLength="133.3052" x="83.0078" y="781.0166">auto_unsubscribe &#20026; false?</text><text fill="#000000" font-family="sans-serif" font-size="11" lengthAdjust="spacing" textLength="11" x="60.0078" y="774.0986">&#26159;</text><text fill="#000000" font-family="sans-serif" font-size="11" lengthAdjust="spacing" textLength="11" x="228.313" y="774.0986">&#21542;</text><rect fill="#F1F1F1" height="35.0938" rx="12.5" ry="12.5" style="stroke:#181818;stroke-width:0.5;" width="100.0156" x="11" y="798.5156"/><text fill="#000000" font-family="sans-serif" font-size="12" lengthAdjust="spacing" textLength="80.0156" x="21" y="820.9727">&#20445;&#30041; stale &#20505;&#36873;</text><rect fill="#F1F1F1" height="35.0938" rx="12.5" ry="12.5" style="stroke:#181818;stroke-width:0.5;" width="177.3711" x="149.6274" y="798.5156"/><text fill="#000000" font-family="sans-serif" font-size="12" lengthAdjust="spacing" textLength="157.3711" x="159.6274" y="820.9727">&#25353; stale_ttl_sec &#20915;&#23450;&#26159;&#21542;&#36864;&#35746;</text><polygon fill="#F1F1F1" points="149.6604,839.6094,161.6604,851.6094,149.6604,863.6094,137.6604,851.6094,149.6604,839.6094" style="stroke:#181818;stroke-width:0.5;"/><ellipse cx="149.6604" cy="894.6094" fill="none" rx="11" ry="11" style="stroke:#222222;stroke-width:1;"/><ellipse cx="149.6604" cy="894.6094" fill="#222222" rx="6" ry="6" style="stroke:#222222;stroke-width:1;"/><line style="stroke:#181818;stroke-width:1;" x1="149.6604" x2="149.6604" y1="172.6211" y2="200.5742"/><polygon fill="#181818" points="145.6604,190.5742,149.6604,200.5742,153.6604,190.5742,149.6604,194.5742" style="stroke:#181818;stroke-width:1;"/><line style="stroke:#181818;stroke-width:1;" x1="149.6604" x2="149.6604" y1="112.6094" y2="137.5273"/><polygon fill="#181818" points="145.6604,127.5273,149.6604,137.5273,153.6604,127.5273,149.6604,131.5273" style="stroke:#181818;stroke-width:1;"/><line style="stroke:#181818;stroke-width:1;" x1="236.8745" x2="248.8745" y1="100.6094" y2="100.6094"/><polygon fill="#181818" points="244.8745,170.5742,248.8745,180.5742,252.8745,170.5742,248.8745,174.5742" style="stroke:#181818;stroke-width:1;"/><line style="stroke:#181818;stroke-width:1;" x1="248.8745" x2="248.8745" y1="100.6094" y2="244.5742"/><line style="stroke:#181818;stroke-width:1;" x1="248.8745" x2="149.6604" y1="244.5742" y2="244.5742"/><line style="stroke:#181818;stroke-width:1;" x1="149.6604" x2="149.6604" y1="244.5742" y2="264.5742"/><polygon fill="#181818" points="145.6604,254.5742,149.6604,264.5742,153.6604,254.5742,149.6604,258.5742" style="stroke:#181818;stroke-width:1;"/><line style="stroke:#181818;stroke-width:1;" x1="149.6604" x2="149.6604" y1="68.6094" y2="88.6094"/><polygon fill="#181818" points="145.6604,78.6094,149.6604,88.6094,153.6604,78.6094,149.6604,82.6094" style="stroke:#181818;stroke-width:1;"/><line style="stroke:#181818;stroke-width:1;" x1="149.6604" x2="149.6604" y1="348.5859" y2="376.5391"/><polygon fill="#181818" points="145.6604,366.5391,149.6604,376.5391,153.6604,366.5391,149.6604,370.5391" style="stroke:#181818;stroke-width:1;"/><line style="stroke:#181818;stroke-width:1;" x1="149.6604" x2="149.6604" y1="288.5742" y2="313.4922"/><polygon fill="#181818" points="145.6604,303.4922,149.6604,313.4922,153.6604,303.4922,149.6604,307.4922" style="stroke:#181818;stroke-width:1;"/><line style="stroke:#181818;stroke-width:1;" x1="214.8369" x2="226.8369" y1="276.5742" y2="276.5742"/><polygon fill="#181818" points="222.8369,346.5391,226.8369,356.5391,230.8369,346.5391,226.8369,350.5391" style="stroke:#181818;stroke-width:1;"/><line style="stroke:#181818;stroke-width:1;" x1="226.8369" x2="226.8369" y1="276.5742" y2="420.5391"/><line style="stroke:#181818;stroke-width:1;" x1="226.8369" x2="149.6604" y1="420.5391" y2="420.5391"/><line style="stroke:#181818;stroke-width:1;" x1="149.6604" x2="149.6604" y1="420.5391" y2="440.5391"/><polygon fill="#181818" points="145.6604,430.5391,149.6604,440.5391,153.6604,430.5391,149.6604,434.5391" style="stroke:#181818;stroke-width:1;"/><line style="stroke:#181818;stroke-width:1;" x1="149.6604" x2="149.6604" y1="524.5508" y2="552.5039"/><polygon fill="#181818" points="145.6604,542.5039,149.6604,552.5039,153.6604,542.5039,149.6604,546.5039" style="stroke:#181818;stroke-width:1;"/><line style="stroke:#181818;stroke-width:1;" x1="149.6604" x2="149.6604" y1="464.5391" y2="489.457"/><polygon fill="#181818" points="145.6604,479.457,149.6604,489.457,153.6604,479.457,149.6604,483.457" style="stroke:#181818;stroke-width:1;"/><line style="stroke:#181818;stroke-width:1;" x1="226.1753" x2="238.1753" y1="452.5391" y2="452.5391"/><polygon fill="#181818" points="234.1753,522.5039,238.1753,532.5039,242.1753,522.5039,238.1753,526.5039" style="stroke:#181818;stroke-width:1;"/><line style="stroke:#181818;stroke-width:1;" x1="238.1753" x2="238.1753" y1="452.5391" y2="596.5039"/><line style="stroke:#181818;stroke-width:1;" x1="238.1753" x2="149.6604" y1="596.5039" y2="596.5039"/><line style="stroke:#181818;stroke-width:1;" x1="149.6604" x2="149.6604" y1="596.5039" y2="616.5039"/><polygon fill="#181818" points="145.6604,606.5039,149.6604,616.5039,153.6604,606.5039,149.6604,610.5039" style="stroke:#181818;stroke-width:1;"/><line style="stroke:#181818;stroke-width:1;" x1="149.6604" x2="149.6604" y1="640.5039" y2="665.4219"/><polygon fill="#181818" points="145.6604,655.4219,149.6604,665.4219,153.6604,655.4219,149.6604,659.4219" style="stroke:#181818;stroke-width:1;"/><line style="stroke:#181818;stroke-width:1;" x1="201.4011" x2="213.4011" y1="628.5039" y2="628.5039"/><polygon fill="#181818" points="209.4011,672.9688,213.4011,682.9688,217.4011,672.9688,213.4011,676.9688" style="stroke:#181818;stroke-width:1;"/><line style="stroke:#181818;stroke-width:1;" x1="213.4011" x2="213.4011" y1="628.5039" y2="732.5156"/><line style="stroke:#181818;stroke-width:1;" x1="213.4011" x2="161.6604" y1="732.5156" y2="732.5156"/><polygon fill="#181818" points="171.6604,728.5156,161.6604,732.5156,171.6604,736.5156,167.6604,732.5156" style="stroke:#181818;stroke-width:1;"/><line style="stroke:#181818;stroke-width:1;" x1="149.6604" x2="149.6604" y1="700.5156" y2="720.5156"/><polygon fill="#181818" points="145.6604,710.5156,149.6604,720.5156,153.6604,710.5156,149.6604,714.5156" style="stroke:#181818;stroke-width:1;"/><line style="stroke:#181818;stroke-width:1;" x1="71.0078" x2="61.0078" y1="776.5156" y2="776.5156"/><line style="stroke:#181818;stroke-width:1;" x1="61.0078" x2="61.0078" y1="776.5156" y2="798.5156"/><polygon fill="#181818" points="57.0078,788.5156,61.0078,798.5156,65.0078,788.5156,61.0078,792.5156" style="stroke:#181818;stroke-width:1;"/><line style="stroke:#181818;stroke-width:1;" x1="228.313" x2="238.313" y1="776.5156" y2="776.5156"/><line style="stroke:#181818;stroke-width:1;" x1="238.313" x2="238.313" y1="776.5156" y2="798.5156"/><polygon fill="#181818" points="234.313,788.5156,238.313,798.5156,242.313,788.5156,238.313,792.5156" style="stroke:#181818;stroke-width:1;"/><line style="stroke:#181818;stroke-width:1;" x1="61.0078" x2="61.0078" y1="833.6094" y2="851.6094"/><line style="stroke:#181818;stroke-width:1;" x1="61.0078" x2="137.6604" y1="851.6094" y2="851.6094"/><polygon fill="#181818" points="127.6604,847.6094,137.6604,851.6094,127.6604,855.6094,131.6604,851.6094" style="stroke:#181818;stroke-width:1;"/><line style="stroke:#181818;stroke-width:1;" x1="238.313" x2="238.313" y1="833.6094" y2="851.6094"/><line style="stroke:#181818;stroke-width:1;" x1="238.313" x2="161.6604" y1="851.6094" y2="851.6094"/><polygon fill="#181818" points="171.6604,847.6094,161.6604,851.6094,171.6604,855.6094,167.6604,851.6094" style="stroke:#181818;stroke-width:1;"/><line style="stroke:#181818;stroke-width:1;" x1="149.6604" x2="149.6604" y1="744.5156" y2="764.5156"/><polygon fill="#181818" points="145.6604,754.5156,149.6604,764.5156,153.6604,754.5156,149.6604,758.5156" style="stroke:#181818;stroke-width:1;"/><line style="stroke:#181818;stroke-width:1;" x1="149.6604" x2="149.6604" y1="863.6094" y2="883.6094"/><polygon fill="#181818" points="145.6604,873.6094,149.6604,883.6094,153.6604,873.6094,149.6604,877.6094" style="stroke:#181818;stroke-width:1;"/><?plantuml-src XP51Ji9058RtFSKiOQ47a8L7QKexnKcQGcQc2tTbGO44X0L6iDK48seCAIP082R8PNZ3z1O-4HCJY6vd_ldUzy-JJ7gKwFGXwzTWCTgi4ZMlaXC2ZKZr9j1uXFGMuWz3I8jBWxaa9uAYi3chI5RsJUfRHOywPBDy9wxb2NgU9_A2-YId-fEyGSZPDfwfgv5Uzo2-B-21aEMAGNs7kSOE9pahbIX7GXkI5wXLTRhCuWYwZGEKNaprkgwIiHeFitfxczuS0phKPWBTJlztmvcg-Qo7hNt_Jb_5iwDCVcdomD-X90yEIT1vrUaGZH2fkoj8tWg_trk1B9k1l_-w8ltBQNstlHwWWOLxWN2GXKr4OPBaeFkqYwXMy_lUbD8p1RK9H5FS4o8maeKXrlaP_zNa4m00?></g></svg>