<?plantuml 1.2026.2?><svg xmlns="http://www.w3.org/2000/svg" xmlns:xlink="http://www.w3.org/1999/xlink" contentStyleType="text/css" data-diagram-type="DESCRIPTION" height="353px" preserveAspectRatio="none" style="width:1284px;height:353px;background:#FFFFFF;" version="1.1" viewBox="0 0 1284 353" width="1284px" zoomAndPan="magnify"><title>Workflow &#20840;&#23616;&#21327;&#20316;&#22270;</title><defs/><g><g class="title" data-source-line="1"><text fill="#000000" font-family="sans-serif" font-size="14" font-weight="bold" lengthAdjust="spacing" textLength="139.0703" x="565.9203" y="24.5332">Workflow &#20840;&#23616;&#21327;&#20316;&#22270;</text></g><!--entity Entry--><g class="entity" data-qualified-name="Entry" data-source-line="5" id="ent0002"><rect fill="#F1F1F1" height="37.6094" rx="2.5" ry="2.5" style="stroke:#181818;stroke-width:0.5;" width="104.8135" x="509.74" y="45.6094"/><text fill="#000000" font-family="sans-serif" font-size="14" lengthAdjust="spacing" textLength="84.8135" x="519.74" y="70.1426">StrategyEntry</text></g><!--entity Lifecycle--><g class="entity" data-qualified-name="Lifecycle" data-source-line="6" id="ent0003"><rect fill="#F1F1F1" height="37.6094" rx="2.5" ry="2.5" style="stroke:#181818;stroke-width:0.5;" width="132.0273" x="301.24" y="177.6094"/><text fill="#000000" font-family="sans-serif" font-size="14" lengthAdjust="spacing" textLength="112.0273" x="311.24" y="202.1426">LifecycleWorkflow</text></g><!--entity Market--><g class="entity" data-qualified-name="Market" data-source-line="7" id="ent0004"><rect fill="#F1F1F1" height="37.6094" rx="2.5" ry="2.5" style="stroke:#181818;stroke-width:0.5;" width="120.3447" x="699.24" y="177.6094"/><text fill="#000000" font-family="sans-serif" font-size="14" lengthAdjust="spacing" textLength="100.3447" x="709.24" y="202.1426">MarketWorkflow</text></g><!--entity State--><g class="entity" data-qualified-name="State" data-source-line="8" id="ent0005"><rect fill="#F1F1F1" height="37.6094" rx="2.5" ry="2.5" style="stroke:#181818;stroke-width:0.5;" width="110.248" x="247.24" y="309.6094"/><text fill="#000000" font-family="sans-serif" font-size="14" lengthAdjust="spacing" textLength="90.248" x="257.24" y="334.1426">StateWorkflow</text></g><!--entity Subscription--><g class="entity" data-qualified-name="Subscription" data-source-line="9" id="ent0006"><rect fill="#F1F1F1" height="37.6094" rx="2.5" ry="2.5" style="stroke:#181818;stroke-width:0.5;" width="154.5996" x="809.74" y="309.6094"/><text fill="#000000" font-family="sans-serif" font-size="14" lengthAdjust="spacing" textLength="134.5996" x="819.74" y="334.1426">SubscriptionWorkflow</text></g><!--entity Bridge--><g class="entity" data-qualified-name="Bridge" data-source-line="10" id="ent0007"><rect fill="#F1F1F1" height="37.6094" rx="2.5" ry="2.5" style="stroke:#181818;stroke-width:0.5;" width="96.2686" x="514.24" y="177.6094"/><text fill="#000000" font-family="sans-serif" font-size="14" lengthAdjust="spacing" textLength="76.2686" x="524.24" y="202.1426">EventBridge</text></g><!--link Entry to Lifecycle--><g class="link" data-entity-1="ent0002" data-entity-2="ent0003" data-link-type="dependency" data-source-line="12" id="lnk8"><path d="M509.7,68.4894 C473.58,73.1394 426.8,84.7894 396.24,113.6094 C378.45,130.3894 372.4103,152.8299 369.7503,171.4099" fill="none" id="Entry-to-Lifecycle" style="stroke:#181818;stroke-width:1;"/><polygon fill="#181818" points="368.9,177.3494,374.1351,169.0071,369.6086,172.3998,366.2159,167.8733,368.9,177.3494" style="stroke:#181818;stroke-width:1;"/><text fill="#000000" font-family="sans-serif" font-size="13" lengthAdjust="spacing" textLength="153.2134" x="397.24" y="136.1045">on_init / on_start / on_stop</text></g><!--link Entry to Market--><g class="link" data-entity-1="ent0002" data-entity-2="ent0004" data-link-type="dependency" data-source-line="13" id="lnk9"><path d="M615.11,70.7194 C648.58,76.3894 690.91,88.3594 720.24,113.6094 C739.59,130.2694 748.4879,152.8917 753.5779,171.5117" fill="none" id="Entry-to-Market" style="stroke:#181818;stroke-width:1;"/><polygon fill="#181818" points="755.16,177.2994,756.6452,167.5632,753.8416,172.4763,748.9284,169.6726,755.16,177.2994" style="stroke:#181818;stroke-width:1;"/><text fill="#000000" font-family="sans-serif" font-size="13" lengthAdjust="spacing" textLength="195.1079" x="745.24" y="136.1045">on_tick / on_bars / _process_bars</text></g><!--link Entry to State--><g class="link" data-entity-1="ent0002" data-entity-2="ent0005" data-link-type="dependency" data-source-line="14" id="lnk10"><path d="M509.46,69.3594 C392.76,78.8494 118.79,108.2094 63.24,177.6094 C6,249.1294 154.0647,294.8456 241.1947,315.0256" fill="none" id="Entry-to-State" style="stroke:#181818;stroke-width:1;"/><polygon fill="#181818" points="247.04,316.3794,239.1746,310.4518,242.1689,315.2512,237.3696,318.2455,247.04,316.3794" style="stroke:#181818;stroke-width:1;"/><text fill="#000000" font-family="sans-serif" font-size="13" lengthAdjust="spacing" textLength="218.2578" x="64.24" y="202.1045">_create_snapshot / _record_snapshot</text></g><!--link Entry to Subscription--><g class="link" data-entity-1="ent0002" data-entity-2="ent0006" data-link-type="dependency" data-source-line="15" id="lnk11"><path d="M614.79,68.3394 C706.26,73.7094 890.57,87.4594 949.24,113.6094 C1030.97,150.0294 1064.12,164.1994 1101.24,245.6094 C1127.82,303.8894 1042.316,320.8904 970.746,325.7804" fill="none" id="Entry-to-Subscription" style="stroke:#181818;stroke-width:1;"/><polygon fill="#181818" points="964.76,326.1894,974.0117,329.5666,969.7484,325.8485,973.4664,321.5852,964.76,326.1894" style="stroke:#181818;stroke-width:1;"/><text fill="#000000" font-family="sans-serif" font-size="13" lengthAdjust="spacing" textLength="190.6709" x="1086.24" y="202.1045">&#35746;&#38405;&#21021;&#22987;&#21270; / &#37325;&#31639; / &#35746;&#38405;&#25805;&#20316;&#22996;&#25176;</text></g><!--link Entry to Bridge--><g class="link" data-entity-1="ent0002" data-entity-2="ent0007" data-link-type="dependency" data-source-line="16" id="lnk12"><path d="M560.83,83.8294 C560.21,92.7894 559.55,103.7594 559.24,113.6094 C558.77,128.7094 558.77,132.5094 559.24,147.6094 C559.55,157.4594 559.7958,162.4437 560.4158,171.4037" fill="none" id="Entry-to-Bridge" style="stroke:#181818;stroke-width:1;"/><polygon fill="#181818" points="560.83,177.3894,564.1992,168.1347,560.4848,172.4013,556.2183,168.687,560.83,177.3894" style="stroke:#181818;stroke-width:1;"/><text fill="#000000" font-family="sans-serif" font-size="13" lengthAdjust="spacing" textLength="121.418" x="577.1978" y="128.1045">on_order / on_trade /</text><text fill="#000000" font-family="sans-serif" font-size="13" lengthAdjust="spacing" textLength="155.3335" x="560.24" y="144.4561">on_position / &#39046;&#22495;&#20107;&#20214;&#21457;&#24067;</text></g><!--link Lifecycle to Subscription--><g class="link" data-entity-1="ent0003" data-entity-2="ent0006" data-link-type="dependency" data-source-line="18" id="lnk13"><path d="M341.54,215.7494 C319.85,233.1994 295.01,259.7894 313.24,279.6094 C346.16,315.3994 654.4007,324.416 803.4807,326.736" fill="none" id="Lifecycle-to-Subscription" style="stroke:#181818;stroke-width:1;"/><polygon fill="#181818" points="809.48,326.8294,800.5433,322.6898,804.4806,326.7516,800.4188,330.6888,809.48,326.8294" style="stroke:#181818;stroke-width:1;"/><text fill="#000000" font-family="sans-serif" font-size="13" lengthAdjust="spacing" textLength="91" x="314.24" y="260.1045">&#21021;&#22987;&#21270;&#35746;&#38405;&#27169;&#24335;</text><text fill="#000000" font-family="sans-serif" font-size="13" lengthAdjust="spacing" textLength="65" x="327.24" y="276.4561">&#21551;&#21160;&#21518;&#37325;&#31639;</text></g><!--link Lifecycle to State--><g class="link" data-entity-1="ent0003" data-entity-2="ent0005" data-link-type="dependency" data-source-line="19" id="lnk14"><path d="M301.05,211.0894 C237.49,224.1894 150.71,242.5394 148.24,245.6094 C116.68,284.8394 185.1766,306.5223 241.2066,317.7323" fill="none" id="Lifecycle-to-State" style="stroke:#181818;stroke-width:1;"/><polygon fill="#181818" points="247.09,318.9094,239.0496,313.2215,242.1872,317.9285,237.4802,321.066,247.09,318.9094" style="stroke:#181818;stroke-width:1;"/><text fill="#000000" font-family="sans-serif" font-size="13" lengthAdjust="spacing" textLength="127.8354" x="149.24" y="268.1045">&#21021;&#22987;&#24555;&#29031; / &#20572;&#27490;&#21069;&#20445;&#23384;</text></g><!--link Market to Subscription--><g class="link" data-entity-1="ent0004" data-entity-2="ent0006" data-link-type="dependency" data-source-line="20" id="lnk15"><path d="M819.29,206.6394 C862.94,214.5794 916.65,227.6694 930.24,245.6094 C945.49,265.7194 930.1197,287.7838 912.6597,305.1038" fill="none" id="Market-to-Subscription" style="stroke:#181818;stroke-width:1;"/><polygon fill="#181818" points="908.4,309.3294,917.6065,305.8309,911.9497,305.8081,911.9725,300.1513,908.4,309.3294" style="stroke:#181818;stroke-width:1;"/><text fill="#000000" font-family="sans-serif" font-size="13" lengthAdjust="spacing" textLength="156.7617" x="936.24" y="268.1045">rollover / timer / signal &#35302;&#21457;</text></g><!--link Market to State--><g class="link" data-entity-1="ent0004" data-entity-2="ent0005" data-link-type="dependency" data-source-line="21" id="lnk16"><path d="M702.99,215.6394 C683.47,223.2794 662.03,233.2994 644.24,245.6094 C627.18,257.4194 630.6,269.9394 612.24,279.6094 C569.05,302.3494 440.3379,316.2654 363.4579,322.8754" fill="none" id="Market-to-State" style="stroke:#181818;stroke-width:1;"/><polygon fill="#181818" points="357.48,323.3894,366.7896,326.6037,362.4616,322.9611,366.1043,318.6331,357.48,323.3894" style="stroke:#181818;stroke-width:1;"/><text fill="#000000" font-family="sans-serif" font-size="13" lengthAdjust="spacing" textLength="113.4009" x="645.24" y="268.1045">bar &#22788;&#29702;&#21518;&#35760;&#24405;&#24555;&#29031;</text></g><!--link Bridge to Subscription--><g class="link" data-entity-1="ent0007" data-entity-2="ent0006" data-link-type="dependency" data-source-line="22" id="lnk17"><path d="M610.69,205.6194 C662.56,214.7794 740.96,230.4594 767.24,245.6094 C785.22,255.9694 782.82,266.9294 799.24,279.6094 C814.12,291.0994 826.7614,298.6909 842.5914,306.8109" fill="none" id="Bridge-to-Subscription" style="stroke:#181818;stroke-width:1;"/><polygon fill="#181818" points="847.93,309.5494,841.7477,301.8826,843.4811,307.2673,838.0964,309.0008,847.93,309.5494" style="stroke:#181818;stroke-width:1;"/><text fill="#000000" font-family="sans-serif" font-size="13" lengthAdjust="spacing" textLength="121.418" x="800.24" y="260.1045">on_order / on_trade /</text><text fill="#000000" font-family="sans-serif" font-size="13" lengthAdjust="spacing" textLength="109.1099" x="806.3941" y="276.4561">on_position &#21518;&#37325;&#31639;</text></g><!--link Bridge to State--><g class="link" data-entity-1="ent0007" data-entity-2="ent0005" data-link-type="dependency" data-source-line="23" id="lnk18"><path d="M514.04,213.9594 C493.54,221.9894 469.87,232.7194 450.24,245.6094 C431.84,257.6894 432.64,267.5294 414.24,279.6094 C395.94,291.6194 379.6985,299.5351 360.2085,307.3551" fill="none" id="Bridge-to-State" style="stroke:#181818;stroke-width:1;"/><polygon fill="#181818" points="354.64,309.5894,364.4822,309.9503,359.2804,307.7275,361.5032,302.5257,354.64,309.5894" style="stroke:#181818;stroke-width:1;"/><text fill="#000000" font-family="sans-serif" font-size="13" lengthAdjust="spacing" textLength="156" x="451.24" y="268.1045">&#36890;&#36807;&#23487;&#20027;&#35302;&#21457;&#29366;&#24577;&#26356;&#26032;&#32467;&#26524;</text></g><?plantuml-src ZL91RzCm6BtdLrYxJxjpu82q6vnsu38fyb8tivhQaMqszTO9kh6DqgB1g5Z7H8Le9RGo93HDbD4_aozf_mMk7L87zS39Bv_V-zxxFaTH5H7qb8jQDUBx25eZ-Dw4TYUvxyF5Rq_MA8knm7KaTt65xrCMeYgE975k0bwFEIDCRQc6xYL8e30B8-9vnGrQsr82An8sDfaIZJM49JB8fJocLH8qWeZyJMDeHTMbFi6YHbI9PqjbI-rOufXAYV9iHmQ2nefoLcOw5wvWSqyVZmIjXCJmBFGyCmnQNt-up8iU8CvyogX26mia5HO5vB4ZiT4jNz6WPaaxM4YD_5ZmW4XflXsHcKLh_40GZNp9S2nt-SB1rq_0HQKekIfdBYsUZGVpNWjUNiBm55wTQ-tyg9sDtsjWhzApzk9F6BvDZtjE6pksJQoTYB2HzHjN2DhOPXh7N5BZediE3k7gAlbvcankeVC6xfvxtd9DAs8LWV8Geq_mgxFDeFiDJaRGVMr3_jiZNqWkddxDMaDj3WVzz7e0n-raUWdNFIzVzWfNmQE8xvbP5AsRKzAGuGZDXbzqxf8qDzEFWk3pYwnxg6FDnZTm_yuwU_cALlZynywMCxfjSizvyyDiUWJZQN8tiScoazkqUP1U_4ZFRxB9MVgn_mS0?></g></svg>