<?plantuml 1.2026.2?><svg xmlns="http://www.w3.org/2000/svg" xmlns:xlink="http://www.w3.org/1999/xlink" contentStyleType="text/css" data-diagram-type="DESCRIPTION" height="290px" preserveAspectRatio="none" style="width:1813px;height:290px;background:#FFFFFF;" version="1.1" viewBox="0 0 1813 290" width="1813px" zoomAndPan="magnify"><title>&#26680;&#24515;&#23545;&#35937;&#19982;&#22522;&#30784;&#35774;&#26045;&#26144;&#23556;&#22270;</title><defs/><g><g class="title" data-source-line="1"><text fill="#000000" font-family="sans-serif" font-size="14" font-weight="bold" lengthAdjust="spacing" textLength="173.25" x="812.875" y="24.5332">&#26680;&#24515;&#23545;&#35937;&#19982;&#22522;&#30784;&#35774;&#26045;&#26144;&#23556;&#22270;</text></g><!--cluster ???--><g class="cluster" data-qualified-name="..." data-source-line="5" id="ent0002"><path d="M254.5,44.6094 L298.8125,44.6094 A3.75,3.75 0 0 1 301.3125,47.1094 L308.3125,68.2188 L1035.5,68.2188 A2.5,2.5 0 0 1 1038,70.7188 L1038,132.1094 A2.5,2.5 0 0 1 1035.5,134.6094 L254.5,134.6094 A2.5,2.5 0 0 1 252,132.1094 L252,47.1094 A2.5,2.5 0 0 1 254.5,44.6094" fill="none" style="stroke:#000000;stroke-width:1.5;"/><line style="stroke:#000000;stroke-width:1.5;" x1="252" x2="308.3125" y1="68.2188" y2="68.2188"/><text fill="#000000" font-family="sans-serif" font-size="14" font-weight="bold" lengthAdjust="spacing" textLength="43.3125" x="256" y="61.1426">&#32534;&#25490;&#23618;</text></g><!--cluster ????--><g class="cluster" data-qualified-name="...." data-source-line="13" id="ent0008"><path d="M8.5,176.1094 L67.25,176.1094 A3.75,3.75 0 0 1 69.75,178.6094 L76.75,199.7188 L545.5,199.7188 A2.5,2.5 0 0 1 548,202.2188 L548,263.6094 A2.5,2.5 0 0 1 545.5,266.1094 L8.5,266.1094 A2.5,2.5 0 0 1 6,263.6094 L6,178.6094 A2.5,2.5 0 0 1 8.5,176.1094" fill="none" style="stroke:#000000;stroke-width:1.5;"/><line style="stroke:#000000;stroke-width:1.5;" x1="6" x2="76.75" y1="199.7188" y2="199.7188"/><text fill="#000000" font-family="sans-serif" font-size="14" font-weight="bold" lengthAdjust="spacing" textLength="57.75" x="10" y="192.6426">&#26680;&#24515;&#23545;&#35937;</text></g><!--cluster ????--><g class="cluster" data-qualified-name="...." data-source-line="19" id="ent0012"><path d="M574.5,158.6094 L633.25,158.6094 A3.75,3.75 0 0 1 635.75,161.1094 L642.75,182.2188 L1448.5,182.2188 A2.5,2.5 0 0 1 1451,184.7188 L1451,281.1094 A2.5,2.5 0 0 1 1448.5,283.6094 L574.5,283.6094 A2.5,2.5 0 0 1 572,281.1094 L572,161.1094 A2.5,2.5 0 0 1 574.5,158.6094" fill="none" style="stroke:#000000;stroke-width:1.5;"/><line style="stroke:#000000;stroke-width:1.5;" x1="572" x2="642.75" y1="182.2188" y2="182.2188"/><text fill="#000000" font-family="sans-serif" font-size="14" font-weight="bold" lengthAdjust="spacing" textLength="57.75" x="576" y="175.1426">&#22522;&#30784;&#35774;&#26045;</text></g><!--cluster ????--><g class="cluster" data-qualified-name="...." data-source-line="27" id="ent0018"><path d="M1477.5,167.6094 L1536.25,167.6094 A3.75,3.75 0 0 1 1538.75,170.1094 L1545.75,191.2188 L1803.5,191.2188 A2.5,2.5 0 0 1 1806,193.7188 L1806,272.1094 A2.5,2.5 0 0 1 1803.5,274.6094 L1477.5,274.6094 A2.5,2.5 0 0 1 1475,272.1094 L1475,170.1094 A2.5,2.5 0 0 1 1477.5,167.6094" fill="none" style="stroke:#000000;stroke-width:1.5;"/><line style="stroke:#000000;stroke-width:1.5;" x1="1475" x2="1545.75" y1="191.2188" y2="191.2188"/><text fill="#000000" font-family="sans-serif" font-size="14" font-weight="bold" lengthAdjust="spacing" textLength="57.75" x="1479" y="184.1426">&#39046;&#22495;&#26381;&#21153;</text></g><!--entity Lifecycle--><g class="entity" data-qualified-name="....Lifecycle" data-source-line="6" id="ent0003"><rect fill="#F1F1F1" height="37.6094" rx="2.5" ry="2.5" style="stroke:#181818;stroke-width:0.5;" width="132.0273" x="735" y="80.6094"/><text fill="#000000" font-family="sans-serif" font-size="14" lengthAdjust="spacing" textLength="112.0273" x="745" y="105.1426">LifecycleWorkflow</text></g><!--entity Market--><g class="entity" data-qualified-name="....Market" data-source-line="7" id="ent0004"><rect fill="#F1F1F1" height="37.6094" rx="2.5" ry="2.5" style="stroke:#181818;stroke-width:0.5;" width="120.3447" x="902" y="80.6094"/><text fill="#000000" font-family="sans-serif" font-size="14" lengthAdjust="spacing" textLength="100.3447" x="912" y="105.1426">MarketWorkflow</text></g><!--entity State--><g class="entity" data-qualified-name="....State" data-source-line="8" id="ent0005"><rect fill="#F1F1F1" height="37.6094" rx="2.5" ry="2.5" style="stroke:#181818;stroke-width:0.5;" width="110.248" x="399" y="80.6094"/><text fill="#000000" font-family="sans-serif" font-size="14" lengthAdjust="spacing" textLength="90.248" x="409" y="105.1426">StateWorkflow</text></g><!--entity Subscription--><g class="entity" data-qualified-name="....Subscription" data-source-line="9" id="ent0006"><rect fill="#F1F1F1" height="37.6094" rx="2.5" ry="2.5" style="stroke:#181818;stroke-width:0.5;" width="154.5996" x="544.5" y="80.6094"/><text fill="#000000" font-family="sans-serif" font-size="14" lengthAdjust="spacing" textLength="134.5996" x="554.5" y="105.1426">SubscriptionWorkflow</text></g><!--entity Bridge--><g class="entity" data-qualified-name="....Bridge" data-source-line="10" id="ent0007"><rect fill="#F1F1F1" height="37.6094" rx="2.5" ry="2.5" style="stroke:#181818;stroke-width:0.5;" width="96.2686" x="268" y="80.6094"/><text fill="#000000" font-family="sans-serif" font-size="14" lengthAdjust="spacing" textLength="76.2686" x="278" y="105.1426">EventBridge</text></g><!--entity Instrument--><g class="entity" data-qualified-name=".....Instrument" data-source-line="14" id="ent0009"><rect fill="#F1F1F1" height="37.6094" rx="2.5" ry="2.5" style="stroke:#181818;stroke-width:0.5;" width="141.3926" x="390.5" y="212.1094"/><text fill="#000000" font-family="sans-serif" font-size="14" lengthAdjust="spacing" textLength="121.3926" x="400.5" y="236.6426">InstrumentManager</text></g><!--entity Position--><g class="entity" data-qualified-name=".....Position" data-source-line="15" id="ent0010"><rect fill="#F1F1F1" height="37.6094" rx="2.5" ry="2.5" style="stroke:#181818;stroke-width:0.5;" width="134.4131" x="221" y="212.1094"/><text fill="#000000" font-family="sans-serif" font-size="14" lengthAdjust="spacing" textLength="114.4131" x="231" y="236.6426">PositionAggregate</text></g><!--entity Combination--><g class="entity" data-qualified-name=".....Combination" data-source-line="16" id="ent0011"><rect fill="#F1F1F1" height="37.6094" rx="2.5" ry="2.5" style="stroke:#181818;stroke-width:0.5;" width="163.2061" x="22.5" y="212.1094"/><text fill="#000000" font-family="sans-serif" font-size="14" lengthAdjust="spacing" textLength="143.2061" x="32.5" y="236.6426">CombinationAggregate</text></g><!--entity Gateway--><g class="entity" data-qualified-name=".....Gateway" data-source-line="20" id="ent0013"><rect fill="#F1F1F1" height="55.2188" rx="2.5" ry="2.5" style="stroke:#181818;stroke-width:0.5;" width="180.2754" x="1084" y="203.6094"/><text fill="#000000" font-family="sans-serif" font-size="14" lengthAdjust="spacing" textLength="160.2754" x="1094" y="228.1426">Market / Account / Order /</text><text fill="#000000" font-family="sans-serif" font-size="14" lengthAdjust="spacing" textLength="120.6201" x="1094" y="245.752">Execution Gateway</text></g><!--entity HistoryRepo--><g class="entity" data-qualified-name=".....HistoryRepo" data-source-line="21" id="ent0014"><rect fill="#F1F1F1" height="37.6094" rx="2.5" ry="2.5" style="stroke:#181818;stroke-width:0.5;" width="160.0479" x="889" y="212.1094"/><text fill="#000000" font-family="sans-serif" font-size="14" lengthAdjust="spacing" textLength="140.0479" x="899" y="236.6426">HistoryDataRepository</text></g><!--entity Persistence--><g class="entity" data-qualified-name=".....Persistence" data-source-line="22" id="ent0015"><rect fill="#F1F1F1" height="72.8281" rx="2.5" ry="2.5" style="stroke:#181818;stroke-width:0.5;" width="135.1719" x="1299.5" y="194.6094"/><text fill="#000000" font-family="sans-serif" font-size="14" lengthAdjust="spacing" textLength="107.3857" x="1309.5" y="219.1426">StateRepository /</text><text fill="#000000" font-family="sans-serif" font-size="14" lengthAdjust="spacing" textLength="115.1719" x="1309.5" y="236.752">AutoSaveService /</text><text fill="#000000" font-family="sans-serif" font-size="14" lengthAdjust="spacing" textLength="87.9238" x="1309.5" y="254.3613">JsonSerializer</text></g><!--entity Monitor--><g class="entity" data-qualified-name=".....Monitor" data-source-line="23" id="ent0016"><rect fill="#F1F1F1" height="37.6094" rx="2.5" ry="2.5" style="stroke:#181818;stroke-width:0.5;" width="118.8203" x="734.5" y="212.1094"/><text fill="#000000" font-family="sans-serif" font-size="14" lengthAdjust="spacing" textLength="98.8203" x="744.5" y="236.6426">StrategyMonitor</text></g><!--entity EventInfra--><g class="entity" data-qualified-name=".....EventInfra" data-source-line="24" id="ent0017"><rect fill="#F1F1F1" height="55.2188" rx="2.5" ry="2.5" style="stroke:#181818;stroke-width:0.5;" width="111.0479" x="588.5" y="203.6094"/><text fill="#000000" font-family="sans-serif" font-size="14" lengthAdjust="spacing" textLength="87.1719" x="598.5" y="228.1426">EventEngine /</text><text fill="#000000" font-family="sans-serif" font-size="14" lengthAdjust="spacing" textLength="91.0479" x="598.5" y="245.752">FeishuHandler</text></g><!--entity SignalServices--><g class="entity" data-qualified-name=".....SignalServices" data-source-line="28" id="ent0019"><rect fill="#F1F1F1" height="37.6094" rx="2.5" ry="2.5" style="stroke:#181818;stroke-width:0.5;" width="124.2822" x="1666" y="212.1094"/><text fill="#000000" font-family="sans-serif" font-size="14" lengthAdjust="spacing" textLength="104.2822" x="1676" y="236.6426">Indicator / Signal</text></g><!--entity DecisionServices--><g class="entity" data-qualified-name=".....DecisionServices" data-source-line="29" id="ent0020"><rect fill="#F1F1F1" height="55.2188" rx="2.5" ry="2.5" style="stroke:#181818;stroke-width:0.5;" width="139.834" x="1491" y="203.6094"/><text fill="#000000" font-family="sans-serif" font-size="14" lengthAdjust="spacing" textLength="119.834" x="1501" y="228.1426">Selection / Pricing /</text><text fill="#000000" font-family="sans-serif" font-size="14" lengthAdjust="spacing" textLength="77.0205" x="1501" y="245.752">Risk / Sizing</text></g><!--link Lifecycle to Instrument--><g class="link" data-entity-1="ent0003" data-entity-2="ent0009" data-link-type="dependency" data-source-line="32" id="lnk21"><path d="M772.24,118.6694 C756.53,127.5694 736.38,137.4694 717,142.6094 C685.81,150.8894 602.44,139.8994 572,150.6094 C535.11,163.5894 504.0453,188.7644 483.5053,207.9444" fill="none" id="Lifecycle-to-Instrument" style="stroke:#181818;stroke-width:1;"/><polygon fill="#181818" points="479.12,212.0394,488.428,208.8205,482.7744,208.6269,482.968,202.9734,479.12,212.0394" style="stroke:#181818;stroke-width:1;"/></g><!--link Lifecycle to Position--><g class="link" data-entity-1="ent0003" data-entity-2="ent0010" data-link-type="dependency" data-source-line="33" id="lnk22"><path d="M772.68,118.7094 C756.94,127.7294 736.62,137.7394 717,142.6094 C679.89,151.8294 408.4,136.1594 373,150.6094 C342.13,163.2094 319.4104,187.8353 304.5504,207.1353" fill="none" id="Lifecycle-to-Position" style="stroke:#181818;stroke-width:1;"/><polygon fill="#181818" points="300.89,211.8894,309.55,207.1985,303.9403,207.9276,303.2112,202.318,300.89,211.8894" style="stroke:#181818;stroke-width:1;"/></g><!--link Lifecycle to Combination--><g class="link" data-entity-1="ent0003" data-entity-2="ent0011" data-link-type="dependency" data-source-line="34" id="lnk23"><path d="M772.7,118.7694 C756.96,127.8094 736.64,137.8094 717,142.6094 C661.62,156.1394 257.67,131.3994 204,150.6094 C169.54,162.9394 142.0542,188.0133 123.9542,207.4033" fill="none" id="Lifecycle-to-Combination" style="stroke:#181818;stroke-width:1;"/><polygon fill="#181818" points="119.86,211.7894,128.9254,207.9398,123.2719,208.1343,123.0773,202.4808,119.86,211.7894" style="stroke:#181818;stroke-width:1;"/></g><!--link Lifecycle to Gateway--><g class="link" data-entity-1="ent0003" data-entity-2="ent0013" data-link-type="dependency" data-source-line="35" id="lnk24"><path d="M829.74,118.7594 C845.44,127.6794 865.59,137.5694 885,142.6094 C924.19,152.7694 1028.85,137.0494 1067,150.6094 C1097.97,161.6094 1123.0825,180.8091 1143.2425,199.3391" fill="none" id="Lifecycle-to-Gateway" style="stroke:#181818;stroke-width:1;"/><polygon fill="#181818" points="1147.66,203.3994,1143.7407,194.364,1143.9788,200.0158,1138.3269,200.2539,1147.66,203.3994" style="stroke:#181818;stroke-width:1;"/></g><!--link Lifecycle to Persistence--><g class="link" data-entity-1="ent0003" data-entity-2="ent0015" data-link-type="dependency" data-source-line="36" id="lnk25"><path d="M829.31,118.7294 C845.05,127.7594 865.37,137.7694 885,142.6094 C927.84,153.1794 1241.13,133.9994 1282,150.6094 C1304.46,159.7394 1320.516,173.3288 1335.516,189.9188" fill="none" id="Lifecycle-to-Persistence" style="stroke:#181818;stroke-width:1;"/><polygon fill="#181818" points="1339.54,194.3694,1336.471,185.0109,1336.1867,190.6606,1330.537,190.3762,1339.54,194.3694" style="stroke:#181818;stroke-width:1;"/></g><!--link Lifecycle to Monitor--><g class="link" data-entity-1="ent0003" data-entity-2="ent0016" data-link-type="dependency" data-source-line="37" id="lnk26"><path d="M800.03,118.6194 C798.7,143.2194 796.6421,181.108 795.3121,205.848" fill="none" id="Lifecycle-to-Monitor" style="stroke:#181818;stroke-width:1;"/><polygon fill="#181818" points="794.99,211.8394,799.4674,203.0671,795.2584,206.8466,791.4789,202.6376,794.99,211.8394" style="stroke:#181818;stroke-width:1;"/></g><!--link Lifecycle to SignalServices--><g class="link" data-entity-1="ent0003" data-entity-2="ent0019" data-link-type="dependency" data-source-line="38" id="lnk27"><path d="M829.29,118.8094 C845.03,127.8594 865.35,137.8594 885,142.6094 C926.26,152.5794 1609.9,134.0994 1649,150.6094 C1678.58,163.0994 1699.414,187.5906 1712.924,206.9306" fill="none" id="Lifecycle-to-SignalServices" style="stroke:#181818;stroke-width:1;"/><polygon fill="#181818" points="1716.36,211.8494,1714.4852,202.1806,1713.4967,207.7504,1707.9269,206.7619,1716.36,211.8494" style="stroke:#181818;stroke-width:1;"/></g><!--link Lifecycle to DecisionServices--><g class="link" data-entity-1="ent0003" data-entity-2="ent0020" data-link-type="dependency" data-source-line="39" id="lnk28"><path d="M829.3,118.7794 C845.03,127.8194 865.36,137.8294 885,142.6094 C946.11,157.4894 1391.3,130.8294 1451,150.6094 C1482.98,161.2094 1509.1062,180.749 1529.8662,199.489" fill="none" id="Lifecycle-to-DecisionServices" style="stroke:#181818;stroke-width:1;"/><polygon fill="#181818" points="1534.32,203.5094,1530.3196,194.5096,1530.6085,200.159,1524.959,200.4479,1534.32,203.5094" style="stroke:#181818;stroke-width:1;"/></g><!--link Lifecycle to EventInfra--><g class="link" data-entity-1="ent0003" data-entity-2="ent0017" data-link-type="dependency" data-source-line="40" id="lnk29"><path d="M765.58,118.6594 C749.99,127.3594 731.88,138.5094 717,150.6094 C697.66,166.3294 682.5632,182.5702 668.8232,198.9702" fill="none" id="Lifecycle-to-EventInfra" style="stroke:#181818;stroke-width:1;"/><polygon fill="#181818" points="664.97,203.5694,673.816,199.2394,668.181,199.7367,667.6837,194.1018,664.97,203.5694" style="stroke:#181818;stroke-width:1;"/></g><!--link Lifecycle to HistoryRepo--><g class="link" data-entity-1="ent0003" data-entity-2="ent0014" data-link-type="dependency" data-source-line="41" id="lnk30"><path d="M827.21,118.7594 C840.47,128.0894 856.74,139.7494 871,150.6094 C897.84,171.0494 923.2391,191.8301 942.8991,208.2001" fill="none" id="Lifecycle-to-HistoryRepo" style="stroke:#181818;stroke-width:1;"/><polygon fill="#181818" points="947.51,212.0394,943.1532,203.2066,943.6676,208.84,938.0342,209.3544,947.51,212.0394" style="stroke:#181818;stroke-width:1;"/></g><!--link Market to Instrument--><g class="link" data-entity-1="ent0004" data-entity-2="ent0009" data-link-type="dependency" data-source-line="43" id="lnk31"><path d="M936.24,118.6894 C921.87,127.6994 903.24,137.7094 885,142.6094 C851.4,151.6394 604.98,139.5494 572,150.6094 C534.92,163.0394 503.8913,188.3588 483.4113,207.7088" fill="none" id="Market-to-Instrument" style="stroke:#181818;stroke-width:1;"/><polygon fill="#181818" points="479.05,211.8294,488.339,208.556,482.6844,208.3955,482.8448,202.7409,479.05,211.8294" style="stroke:#181818;stroke-width:1;"/></g><!--link Market to Position--><g class="link" data-entity-1="ent0004" data-entity-2="ent0010" data-link-type="dependency" data-source-line="44" id="lnk32"><path d="M936.26,118.7594 C921.9,127.7994 903.26,137.7994 885,142.6094 C857.49,149.8494 399.38,139.9594 373,150.6094 C342.09,163.0894 319.3626,187.7492 304.5226,207.0892" fill="none" id="Market-to-Position" style="stroke:#181818;stroke-width:1;"/><polygon fill="#181818" points="300.87,211.8494,309.5223,207.1442,303.9138,207.8826,303.1754,202.2741,300.87,211.8494" style="stroke:#181818;stroke-width:1;"/></g><!--link Market to Gateway--><g class="link" data-entity-1="ent0004" data-entity-2="ent0013" data-link-type="dependency" data-source-line="45" id="lnk33"><path d="M1004.62,118.6294 C1024.1,127.4294 1047.19,138.6894 1067,150.6094 C1093.17,166.3594 1116.0922,183.2897 1136.7222,199.5897" fill="none" id="Market-to-Gateway" style="stroke:#181818;stroke-width:1;"/><polygon fill="#181818" points="1141.43,203.3094,1136.8481,194.5912,1137.5068,200.2096,1131.8884,200.8684,1141.43,203.3094" style="stroke:#181818;stroke-width:1;"/></g><!--link Market to SignalServices--><g class="link" data-entity-1="ent0004" data-entity-2="ent0019" data-link-type="dependency" data-source-line="46" id="lnk34"><path d="M1022.26,102.5794 C1179.3,108.0694 1592.83,124.8094 1649,150.6094 C1678,163.9294 1698.7557,187.9391 1712.4557,206.9791" fill="none" id="Market-to-SignalServices" style="stroke:#181818;stroke-width:1;"/><polygon fill="#181818" points="1715.96,211.8494,1713.9503,202.2077,1713.0397,207.7908,1707.4566,206.8802,1715.96,211.8494" style="stroke:#181818;stroke-width:1;"/></g><!--link Market to DecisionServices--><g class="link" data-entity-1="ent0004" data-entity-2="ent0020" data-link-type="dependency" data-source-line="47" id="lnk35"><path d="M1022.29,102.8794 C1135.19,107.7694 1374.04,121.2994 1451,150.6094 C1482.05,162.4294 1507.7361,181.408 1528.6261,199.608" fill="none" id="Market-to-DecisionServices" style="stroke:#181818;stroke-width:1;"/><polygon fill="#181818" points="1533.15,203.5494,1528.9917,194.6214,1529.3801,200.2649,1523.7366,200.6533,1533.15,203.5494" style="stroke:#181818;stroke-width:1;"/></g><!--link Market to Persistence--><g class="link" data-entity-1="ent0004" data-entity-2="ent0015" data-link-type="dependency" data-source-line="48" id="lnk36"><path d="M1022.17,105.7594 C1101.8,113.2994 1237.33,128.8394 1282,150.6094 C1303.25,160.9694 1318.7195,174.0886 1333.7195,190.0386" fill="none" id="Market-to-Persistence" style="stroke:#181818;stroke-width:1;"/><polygon fill="#181818" points="1337.83,194.4094,1334.5782,185.1128,1334.4046,190.767,1328.7504,190.5935,1337.83,194.4094" style="stroke:#181818;stroke-width:1;"/></g><!--link State to Instrument--><g class="link" data-entity-1="ent0005" data-entity-2="ent0009" data-link-type="dependency" data-source-line="50" id="lnk37"><path d="M454.97,118.6194 C456.3,143.2194 458.3579,181.108 459.6879,205.848" fill="none" id="State-to-Instrument" style="stroke:#181818;stroke-width:1;"/><polygon fill="#181818" points="460.01,211.8394,463.5211,202.6376,459.7416,206.8466,455.5326,203.0671,460.01,211.8394" style="stroke:#181818;stroke-width:1;"/></g><!--link State to Position--><g class="link" data-entity-1="ent0005" data-entity-2="ent0010" data-link-type="dependency" data-source-line="51" id="lnk38"><path d="M421.49,118.6694 C406.29,127.6094 388.23,138.9694 373,150.6094 C347.95,169.7494 326.0718,190.7963 309.5118,207.6763" fill="none" id="State-to-Position" style="stroke:#181818;stroke-width:1;"/><polygon fill="#181818" points="305.31,211.9594,314.4681,208.336,308.8115,208.3902,308.7574,202.7336,305.31,211.9594" style="stroke:#181818;stroke-width:1;"/></g><!--link State to Combination--><g class="link" data-entity-1="ent0005" data-entity-2="ent0011" data-link-type="dependency" data-source-line="52" id="lnk39"><path d="M429.72,118.7694 C416.36,127.6894 399.07,137.5794 382,142.6094 C344.02,153.7994 241.08,136.7194 204,150.6094 C169.73,163.4394 142.2107,188.3982 124.0507,207.6182" fill="none" id="State-to-Combination" style="stroke:#181818;stroke-width:1;"/><polygon fill="#181818" points="119.93,211.9794,129.0185,208.1847,123.3639,208.345,123.2035,202.6905,119.93,211.9794" style="stroke:#181818;stroke-width:1;"/></g><!--link State to Monitor--><g class="link" data-entity-1="ent0005" data-entity-2="ent0016" data-link-type="dependency" data-source-line="53" id="lnk40"><path d="M478.65,118.7894 C492.2,127.7094 509.73,137.5994 527,142.6094 C567.59,154.3694 678.44,133.3094 717,150.6094 C745.93,163.5894 766.1577,187.9104 779.2977,207.0804" fill="none" id="State-to-Monitor" style="stroke:#181818;stroke-width:1;"/><polygon fill="#181818" points="782.69,212.0294,780.9009,202.3444,779.8631,207.9052,774.3023,206.8674,782.69,212.0294" style="stroke:#181818;stroke-width:1;"/></g><!--link Subscription to Instrument--><g class="link" data-entity-1="ent0006" data-entity-2="ent0009" data-link-type="dependency" data-source-line="55" id="lnk41"><path d="M599.61,118.6194 C568.94,143.2894 518.8348,183.5882 488.1348,208.2882" fill="none" id="Subscription-to-Instrument" style="stroke:#181818;stroke-width:1;"/><polygon fill="#181818" points="483.46,212.0494,492.9796,209.5242,487.3557,208.9151,487.9648,203.2911,483.46,212.0494" style="stroke:#181818;stroke-width:1;"/></g><!--link Subscription to Position--><g class="link" data-entity-1="ent0006" data-entity-2="ent0010" data-link-type="dependency" data-source-line="56" id="lnk42"><path d="M589.19,118.6694 C571.35,127.5694 548.58,137.4694 527,142.6094 C493.67,150.5594 404.54,137.1994 373,150.6094 C342.32,163.6494 319.5691,188.1775 304.6391,207.3275" fill="none" id="Subscription-to-Position" style="stroke:#181818;stroke-width:1;"/><polygon fill="#181818" points="300.95,212.0594,309.6382,207.421,304.0243,208.1162,303.3291,202.5022,300.95,212.0594" style="stroke:#181818;stroke-width:1;"/></g><!--link Subscription to Gateway--><g class="link" data-entity-1="ent0006" data-entity-2="ent0013" data-link-type="dependency" data-source-line="57" id="lnk43"><path d="M654.68,118.7094 C672.76,127.7294 695.97,137.7394 718,142.6094 C755.87,150.9894 1030.32,138.0094 1067,150.6094 C1098.3,161.3594 1123.622,180.828 1143.762,199.518" fill="none" id="Subscription-to-Gateway" style="stroke:#181818;stroke-width:1;"/><polygon fill="#181818" points="1148.16,203.5994,1144.2839,194.5453,1144.495,200.1982,1138.8421,200.4093,1148.16,203.5994" style="stroke:#181818;stroke-width:1;"/></g><!--link Bridge to Position--><g class="link" data-entity-1="ent0007" data-entity-2="ent0010" data-link-type="dependency" data-source-line="59" id="lnk44"><path d="M312.11,118.6194 C306.79,143.2194 298.5682,181.2349 293.2182,205.9749" fill="none" id="Bridge-to-Position" style="stroke:#181818;stroke-width:1;"/><polygon fill="#181818" points="291.95,211.8394,297.7619,203.8882,293.0068,206.9523,289.9426,202.1973,291.95,211.8394" style="stroke:#181818;stroke-width:1;"/></g><!--link Bridge to Combination--><g class="link" data-entity-1="ent0007" data-entity-2="ent0011" data-link-type="dependency" data-source-line="60" id="lnk45"><path d="M268.63,118.6394 C248.16,127.2094 224.29,138.2894 204,150.6094 C174.05,168.7994 147.4627,190.8312 128.0627,208.0912" fill="none" id="Bridge-to-Combination" style="stroke:#181818;stroke-width:1;"/><polygon fill="#181818" points="123.58,212.0794,132.9628,209.0855,127.3156,208.7559,127.6452,203.1086,123.58,212.0794" style="stroke:#181818;stroke-width:1;"/></g><!--link Bridge to EventInfra--><g class="link" data-entity-1="ent0007" data-entity-2="ent0017" data-link-type="dependency" data-source-line="61" id="lnk46"><path d="M338.04,118.7494 C350.22,127.6594 366.08,137.5494 382,142.6094 C417.2,153.7894 513.57,137.2594 548,150.6094 C576.65,161.7194 598.8851,180.6404 616.7251,199.1404" fill="none" id="Bridge-to-EventInfra" style="stroke:#181818;stroke-width:1;"/><polygon fill="#181818" points="620.89,203.4594,617.522,194.2043,617.4193,199.8602,611.7633,199.7575,620.89,203.4594" style="stroke:#181818;stroke-width:1;"/></g><?plantuml-src RLJBRXCn5DtFLrZPL_a3f403BI8YQXPisBZEpTJAn8viJqAAa10W5aXqmQ920YbjFm3ehY0eFyEavI_mU5xtJbYDvzpZutEFxuoJBW6sERlAVh_Eldw_lJp_StMIhN_SdB-y_NAzEVsr-NYMVNkJVRgEx5IgEJTynkmH7-kbL36RyCG2gWWzcsi5oetSokiQ48whE84ecdCnvJ6mpitFqyt9X-poLOSzZrYpWtKUoGc8bKZWYJRJIQAN7SOjgr5A7d0p1KUO1KHf8ySTrGj8YvGUMc7at4cjA1SLw9R-mZ_k6ZcE8J2BPVG2DOf3BNgjus2TVMMTIMTUPC2LfvkWqg2KFTHMvXvwSMmWzlu3kq8fzvwU7Kh5j-ceG7pYszxoMMJAkgmdX4vLldfinc1OzwdgFmEHvdBiWJzZoLVXc79DPVQaTTgiThdZ1p3FVVktG2yhEKgtX7jgoFc1lTJf4L_02Cn22iYXXrOh_ofv8e_B48TWh1S59Q2jQBnal1febKiMCrEiAJ5SRb_5KeKpxeEqH-aUL-EaF28GzjN4S9BatuktsNgz-Vm-U_U_6nzBmVrPFiAHZ1LFYX4Box8Zsp8CYN_90-woeP4Y_-AydmDffq7as0D1P1U4j38aKSXuL_LtmtPsxk39eeLwY2YCXuLMgljjoQ3GQQLAcAAjjcbngnrQHkdJ0fwbg9pSLlC8hJj7MDKSWbfEKMNB9XP7UKHXbDjE6h0sqa0u_WQjeepmVsbBjrrhvDkLgjke-7jHDiAm6mGtz_0F?></g></svg>