<?plantuml 1.2026.2?><svg xmlns="http://www.w3.org/2000/svg" xmlns:xlink="http://www.w3.org/1999/xlink" contentStyleType="text/css" data-diagram-type="DESCRIPTION" height="215px" preserveAspectRatio="none" style="width:1838px;height:215px;background:#FFFFFF;" version="1.1" viewBox="0 0 1838 215" width="1838px" zoomAndPan="magnify"><title>&#20107;&#20214;&#20837;&#21475;&#20998;&#21457;&#22270;</title><defs/><g><g class="title" data-source-line="1"><text fill="#000000" font-family="sans-serif" font-size="14" font-weight="bold" lengthAdjust="spacing" textLength="101.0625" x="861.8682" y="24.5332">&#20107;&#20214;&#20837;&#21475;&#20998;&#21457;&#22270;</text></g><!--entity on_init--><g class="entity" data-qualified-name="on_init" data-source-line="4" id="ent0002"><rect fill="#F1F1F1" height="37.6094" rx="2.5" ry="2.5" style="stroke:#181818;stroke-width:0.5;" width="149.958" x="7" y="45.6094"/><text fill="#000000" font-family="sans-serif" font-size="14" lengthAdjust="spacing" textLength="129.958" x="17" y="70.1426">StrategyEntry.on_init</text></g><!--entity on_start--><g class="entity" data-qualified-name="on_start" data-source-line="5" id="ent0003"><rect fill="#F1F1F1" height="37.6094" rx="2.5" ry="2.5" style="stroke:#181818;stroke-width:0.5;" width="159.2891" x="192.5" y="45.6094"/><text fill="#000000" font-family="sans-serif" font-size="14" lengthAdjust="spacing" textLength="139.2891" x="202.5" y="70.1426">StrategyEntry.on_start</text></g><!--entity on_stop--><g class="entity" data-qualified-name="on_stop" data-source-line="6" id="ent0004"><rect fill="#F1F1F1" height="37.6094" rx="2.5" ry="2.5" style="stroke:#181818;stroke-width:0.5;" width="158.5234" x="386.5" y="45.6094"/><text fill="#000000" font-family="sans-serif" font-size="14" lengthAdjust="spacing" textLength="138.5234" x="396.5" y="70.1426">StrategyEntry.on_stop</text></g><!--entity on_tick--><g class="entity" data-qualified-name="on_tick" data-source-line="7" id="ent0005"><rect fill="#F1F1F1" height="37.6094" rx="2.5" ry="2.5" style="stroke:#181818;stroke-width:0.5;" width="153.0615" x="580.5" y="45.6094"/><text fill="#000000" font-family="sans-serif" font-size="14" lengthAdjust="spacing" textLength="133.0615" x="590.5" y="70.1426">StrategyEntry.on_tick</text></g><!--entity on_bars--><g class="entity" data-qualified-name="on_bars" data-source-line="8" id="ent0006"><rect fill="#F1F1F1" height="37.6094" rx="2.5" ry="2.5" style="stroke:#181818;stroke-width:0.5;" width="159.2959" x="768.5" y="45.6094"/><text fill="#000000" font-family="sans-serif" font-size="14" lengthAdjust="spacing" textLength="139.2959" x="778.5" y="70.1426">StrategyEntry.on_bars</text></g><!--entity on_order--><g class="entity" data-qualified-name="on_order" data-source-line="9" id="ent0007"><rect fill="#F1F1F1" height="37.6094" rx="2.5" ry="2.5" style="stroke:#181818;stroke-width:0.5;" width="164.7441" x="962.5" y="45.6094"/><text fill="#000000" font-family="sans-serif" font-size="14" lengthAdjust="spacing" textLength="144.7441" x="972.5" y="70.1426">StrategyEntry.on_order</text></g><!--entity on_trade--><g class="entity" data-qualified-name="on_trade" data-source-line="10" id="ent0008"><rect fill="#F1F1F1" height="37.6094" rx="2.5" ry="2.5" style="stroke:#181818;stroke-width:0.5;" width="163.9717" x="1163" y="45.6094"/><text fill="#000000" font-family="sans-serif" font-size="14" lengthAdjust="spacing" textLength="143.9717" x="1173" y="70.1426">StrategyEntry.on_trade</text></g><!--entity on_position--><g class="entity" data-qualified-name="on_position" data-source-line="11" id="ent0009"><rect fill="#F1F1F1" height="37.6094" rx="2.5" ry="2.5" style="stroke:#181818;stroke-width:0.5;" width="180.3164" x="1362" y="45.6094"/><text fill="#000000" font-family="sans-serif" font-size="14" lengthAdjust="spacing" textLength="160.3164" x="1372" y="70.1426">StrategyEntry.on_position</text></g><!--entity process_position_event--><g class="entity" data-qualified-name="process_position_event" data-source-line="12" id="ent0010"><rect fill="#F1F1F1" height="37.6094" rx="2.5" ry="2.5" style="stroke:#181818;stroke-width:0.5;" width="255.7988" x="1577" y="45.6094"/><text fill="#000000" font-family="sans-serif" font-size="14" lengthAdjust="spacing" textLength="235.7988" x="1587" y="70.1426">StrategyEntry.process_position_event</text></g><!--entity Lifecycle--><g class="entity" data-qualified-name="Lifecycle" data-source-line="14" id="ent0011"><rect fill="#F1F1F1" height="47.6094" rx="2.5" ry="2.5" style="stroke:#181818;stroke-width:0.5;" width="152.0273" x="196" y="161.6094"/><rect fill="#F1F1F1" height="10" style="stroke:#181818;stroke-width:0.5;" width="15" x="328.0273" y="166.6094"/><rect fill="#F1F1F1" height="2" style="stroke:#181818;stroke-width:0.5;" width="4" x="326.0273" y="168.6094"/><rect fill="#F1F1F1" height="2" style="stroke:#181818;stroke-width:0.5;" width="4" x="326.0273" y="172.6094"/><text fill="#000000" font-family="sans-serif" font-size="14" lengthAdjust="spacing" textLength="112.0273" x="211" y="196.1426">LifecycleWorkflow</text></g><!--entity Market--><g class="entity" data-qualified-name="Market" data-source-line="15" id="ent0012"><rect fill="#F1F1F1" height="47.6094" rx="2.5" ry="2.5" style="stroke:#181818;stroke-width:0.5;" width="140.3447" x="682" y="161.6094"/><rect fill="#F1F1F1" height="10" style="stroke:#181818;stroke-width:0.5;" width="15" x="802.3447" y="166.6094"/><rect fill="#F1F1F1" height="2" style="stroke:#181818;stroke-width:0.5;" width="4" x="800.3447" y="168.6094"/><rect fill="#F1F1F1" height="2" style="stroke:#181818;stroke-width:0.5;" width="4" x="800.3447" y="172.6094"/><text fill="#000000" font-family="sans-serif" font-size="14" lengthAdjust="spacing" textLength="100.3447" x="697" y="196.1426">MarketWorkflow</text></g><!--entity Bridge--><g class="entity" data-qualified-name="Bridge" data-source-line="16" id="ent0013"><rect fill="#F1F1F1" height="47.6094" rx="2.5" ry="2.5" style="stroke:#181818;stroke-width:0.5;" width="116.2686" x="1290" y="161.6094"/><rect fill="#F1F1F1" height="10" style="stroke:#181818;stroke-width:0.5;" width="15" x="1386.2686" y="166.6094"/><rect fill="#F1F1F1" height="2" style="stroke:#181818;stroke-width:0.5;" width="4" x="1384.2686" y="168.6094"/><rect fill="#F1F1F1" height="2" style="stroke:#181818;stroke-width:0.5;" width="4" x="1384.2686" y="172.6094"/><text fill="#000000" font-family="sans-serif" font-size="14" lengthAdjust="spacing" textLength="76.2686" x="1305" y="196.1426">EventBridge</text></g><!--link on_init to Lifecycle--><g class="link" data-entity-1="ent0002" data-entity-2="ent0011" data-link-type="dependency" data-source-line="18" id="lnk14"><path d="M110.86,83.6794 C144.08,104.4894 193.6349,135.5247 229.9449,158.2647" fill="none" id="on_init-to-Lifecycle" style="stroke:#181818;stroke-width:1;"/><polygon fill="#181818" points="235.03,161.4494,229.5255,153.2823,230.7924,158.7955,225.2793,160.0625,235.03,161.4494" style="stroke:#181818;stroke-width:1;"/><text fill="#000000" font-family="sans-serif" font-size="13" lengthAdjust="spacing" textLength="46.9663" x="184" y="128.1045">on_init()</text></g><!--link on_start to Lifecycle--><g class="link" data-entity-1="ent0003" data-entity-2="ent0011" data-link-type="dependency" data-source-line="19" id="lnk15"><path d="M272,83.6794 C272,104.4894 272,132.7094 272,155.4494" fill="none" id="on_start-to-Lifecycle" style="stroke:#181818;stroke-width:1;"/><polygon fill="#181818" points="272,161.4494,276,152.4494,272,156.4494,268,152.4494,272,161.4494" style="stroke:#181818;stroke-width:1;"/><text fill="#000000" font-family="sans-serif" font-size="13" lengthAdjust="spacing" textLength="55.6309" x="273" y="128.1045">on_start()</text></g><!--link on_stop to Lifecycle--><g class="link" data-entity-1="ent0004" data-entity-2="ent0011" data-link-type="dependency" data-source-line="20" id="lnk16"><path d="M436.54,83.6794 C402.62,104.4894 351.9344,135.572 314.8644,158.312" fill="none" id="on_stop-to-Lifecycle" style="stroke:#181818;stroke-width:1;"/><polygon fill="#181818" points="309.75,161.4494,319.5132,160.153,314.012,158.8349,315.33,153.3338,309.75,161.4494" style="stroke:#181818;stroke-width:1;"/><text fill="#000000" font-family="sans-serif" font-size="13" lengthAdjust="spacing" textLength="54.9199" x="388" y="128.1045">on_stop()</text></g><!--link on_tick to Market--><g class="link" data-entity-1="ent0005" data-entity-2="ent0012" data-link-type="dependency" data-source-line="21" id="lnk17"><path d="M671.43,83.6794 C688.04,104.4894 711.6171,134.0199 729.7671,156.7599" fill="none" id="on_tick-to-Market" style="stroke:#181818;stroke-width:1;"/><polygon fill="#181818" points="733.51,161.4494,731.022,151.92,730.3909,157.5415,724.7694,156.9105,733.51,161.4494" style="stroke:#181818;stroke-width:1;"/><text fill="#000000" font-family="sans-serif" font-size="13" lengthAdjust="spacing" textLength="49.8481" x="709" y="128.1045">on_tick()</text></g><!--link on_bars to Market--><g class="link" data-entity-1="ent0006" data-entity-2="ent0012" data-link-type="dependency" data-source-line="22" id="lnk18"><path d="M833.42,83.6794 C816.63,104.4894 792.7979,134.04 774.4479,156.78" fill="none" id="on_bars-to-Market" style="stroke:#181818;stroke-width:1;"/><polygon fill="#181818" points="770.68,161.4494,779.4448,156.9573,773.8199,157.5583,773.219,151.9334,770.68,161.4494" style="stroke:#181818;stroke-width:1;"/><text fill="#000000" font-family="sans-serif" font-size="13" lengthAdjust="spacing" textLength="55.6372" x="810" y="128.1045">on_bars()</text></g><!--link on_order to Bridge--><g class="link" data-entity-1="ent0007" data-entity-2="ent0013" data-link-type="dependency" data-source-line="23" id="lnk19"><path d="M1091.02,83.6794 C1144.24,104.5894 1226.3653,136.836 1284.2653,159.576" fill="none" id="on_order-to-Bridge" style="stroke:#181818;stroke-width:1;"/><polygon fill="#181818" points="1289.85,161.7694,1282.9352,154.7562,1285.1961,159.9416,1280.0107,162.2025,1289.85,161.7694" style="stroke:#181818;stroke-width:1;"/><text fill="#000000" font-family="sans-serif" font-size="13" lengthAdjust="spacing" textLength="60.6963" x="1207" y="128.1045">on_order()</text></g><!--link on_trade to Bridge--><g class="link" data-entity-1="ent0008" data-entity-2="ent0013" data-link-type="dependency" data-source-line="24" id="lnk20"><path d="M1260.64,83.6794 C1278.65,104.4894 1304.3425,134.1735 1324.0325,156.9135" fill="none" id="on_trade-to-Bridge" style="stroke:#181818;stroke-width:1;"/><polygon fill="#181818" points="1327.96,161.4494,1325.0926,152.0272,1324.6871,157.6694,1319.0448,157.2639,1327.96,161.4494" style="stroke:#181818;stroke-width:1;"/><text fill="#000000" font-family="sans-serif" font-size="13" lengthAdjust="spacing" textLength="59.979" x="1300" y="128.1045">on_trade()</text></g><!--link on_position to Bridge--><g class="link" data-entity-1="ent0009" data-entity-2="ent0013" data-link-type="dependency" data-source-line="25" id="lnk21"><path d="M1436.2,83.6794 C1418.02,104.4894 1392.0579,134.1912 1372.1879,156.9312" fill="none" id="on_position-to-Bridge" style="stroke:#181818;stroke-width:1;"/><polygon fill="#181818" points="1368.24,161.4494,1377.174,157.3041,1371.5299,157.6842,1371.1498,152.0402,1368.24,161.4494" style="stroke:#181818;stroke-width:1;"/><text fill="#000000" font-family="sans-serif" font-size="13" lengthAdjust="spacing" textLength="75.1563" x="1410" y="128.1045">on_position()</text></g><!--link process_position_event to Bridge--><g class="link" data-entity-1="ent0010" data-entity-2="ent0013" data-link-type="dependency" data-source-line="26" id="lnk22"><path d="M1650.78,83.6794 C1584.85,105.6594 1479.7021,140.712 1411.9921,163.282" fill="none" id="process_position_event-to-Bridge" style="stroke:#181818;stroke-width:1;"/><polygon fill="#181818" points="1406.3,165.1794,1416.1031,166.1281,1411.0434,163.5982,1413.5732,158.5386,1406.3,165.1794" style="stroke:#181818;stroke-width:1;"/><text fill="#000000" font-family="sans-serif" font-size="13" lengthAdjust="spacing" textLength="145.2471" x="1559" y="128.1045">process_position_event()</text></g><?plantuml-src XPAnJiCm48PtFuNLgHtA0p0m87M3YO6nCiabM4bzrjcYoWE0a1WgPaR4Ap20nDCqxq5insch1BFT_VztzjbtLjeQ-FxhPV_zsJv-jBltzlcftRssRp_CL59fGMB3pRt8SIjLoGjH6s2C8BD2bLtfxCQIi50sAsMfEKErbahQ6HU6zt4IDbRGGFla7nprWKQTXAtCgWYxE0dV2J8HTd4IHig18ksJT2CaSXWwSKaIrsYabQXYHSp_BjA46HWpa6ju01M-TTfYBCEDHjM5V7Ob2yYQh8PRfAgeSUiB1_KOlHPKWJtXWdGChTmDboJpCZmwX8pr-y2Noul3wVmyxibymU8EJ27UY0pgQGHr8DouFH6w2xOJW-q6FBAT66m_KU-7reFlrVvuDyCHuDK0nDyUCT7eiEd9d5PCC_F5Bm00?></g></svg>